<svg xmlns="http://www.w3.org/2000/svg" xmlns:xlink="http://www.w3.org/1999/xlink" width="50" zoomAndPan="magnify" viewBox="0 0 37.5 37.499999" height="50" preserveAspectRatio="xMidYMid meet" version="1.0"><defs><g/><clipPath id="72b67addfc"><path d="M 5.152344 0 L 32.347656 0 L 32.347656 37.007812 L 5.152344 37.007812 Z M 5.152344 0 " clip-rule="nonzero"/></clipPath><clipPath id="7566d0bcc1"><path d="M 5.152344 0.0078125 L 32.152344 0.0078125 L 32.152344 37.007812 L 5.152344 37.007812 Z M 5.152344 0.0078125 " clip-rule="nonzero"/></clipPath><clipPath id="48439786bf"><path d="M 7.5 24 L 15 24 L 15 27.449219 L 7.5 27.449219 Z M 7.5 24 " clip-rule="nonzero"/></clipPath><clipPath id="d86adb3266"><path d="M 15 16.949219 L 23 16.949219 L 23 21 L 15 21 Z M 15 16.949219 " clip-rule="nonzero"/></clipPath><clipPath id="77dca4493d"><path d="M 22 24 L 30 24 L 30 27.449219 L 22 27.449219 Z M 22 24 " clip-rule="nonzero"/></clipPath><clipPath id="39691f8dfe"><path d="M 15 24 L 23 24 L 23 27.449219 L 15 27.449219 Z M 15 24 " clip-rule="nonzero"/></clipPath></defs><g clip-path="url(#72b67addfc)"><path fill="#792f2f" d="M 5.152344 0 L 32.445312 0 L 32.445312 37.46875 L 5.152344 37.46875 Z M 5.152344 0 " fill-opacity="1" fill-rule="nonzero"/></g><g clip-path="url(#7566d0bcc1)"><path stroke-linecap="butt" transform="matrix(0.744828, 0, 0, 0.75, 5.151596, 0.00641673)" fill="none" stroke-linejoin="miter" d="M 0.00100376 0.00186103 L 36.251006 0.00186103 L 36.251006 49.981034 L 0.00100376 49.981034 L 0.00100376 0.00186103 " stroke="#240606" stroke-width="2" stroke-opacity="1" stroke-miterlimit="4"/></g><g fill="#240606" fill-opacity="1"><g transform="translate(11.275667, 9.149997)"><g><path d="M 1.957031 -3.300781 C 1.636719 -3.300781 1.324219 -3.199219 1.109375 -2.953125 L 1.109375 -4.273438 L 0.175781 -4.273438 L 0.175781 0 L 1.109375 0 L 1.109375 -0.324219 C 1.332031 -0.046875 1.65625 0.0429688 1.96875 0.0429688 C 2.992188 0.0429688 3.527344 -0.773438 3.527344 -1.667969 C 3.527344 -2.554688 3.011719 -3.300781 1.957031 -3.300781 Z M 1.855469 -0.863281 C 1.445312 -0.863281 1.109375 -1.210938 1.109375 -1.644531 C 1.109375 -2.074219 1.445312 -2.429688 1.855469 -2.429688 C 2.339844 -2.429688 2.578125 -2.039062 2.578125 -1.644531 C 2.578125 -1.253906 2.335938 -0.863281 1.855469 -0.863281 Z M 1.855469 -0.863281 "/></g></g></g><g fill="#240606" fill-opacity="1"><g transform="translate(15.12169, 9.149997)"><g><path d="M 1.066406 -3.03125 L 1.03125 -3.246094 L 0.179688 -3.246094 L 0.179688 0 L 1.121094 0 L 1.121094 -1.800781 C 1.121094 -2.238281 1.46875 -2.417969 1.8125 -2.425781 C 1.921875 -2.425781 2.035156 -2.40625 2.128906 -2.375 L 2.140625 -3.265625 C 2.015625 -3.292969 1.890625 -3.3125 1.777344 -3.3125 C 1.511719 -3.3125 1.277344 -3.226562 1.066406 -3.03125 Z M 1.066406 -3.03125 "/></g></g></g><g fill="#240606" fill-opacity="1"><g transform="translate(17.581705, 9.149997)"><g><path d="M 0.132812 -3.960938 C 0.132812 -3.605469 0.421875 -3.433594 0.707031 -3.433594 C 0.984375 -3.433594 1.265625 -3.605469 1.265625 -3.960938 C 1.265625 -4.332031 0.976562 -4.511719 0.691406 -4.511719 C 0.414062 -4.511719 0.132812 -4.324219 0.132812 -3.960938 Z M 0.222656 -3.246094 L 1.183594 -3.246094 L 1.183594 0 L 0.222656 0 Z M 0.222656 -3.246094 "/></g></g></g><g fill="#240606" fill-opacity="1"><g transform="translate(19.189714, 9.149997)"><g><path d="M 3.347656 -1.378906 L 2.410156 -1.378906 C 2.304688 -1.019531 2.011719 -0.851562 1.722656 -0.851562 C 1.363281 -0.851562 1.003906 -1.117188 1.003906 -1.625 C 1.003906 -2.136719 1.363281 -2.398438 1.722656 -2.398438 C 2.011719 -2.398438 2.304688 -2.226562 2.410156 -1.867188 L 3.347656 -1.867188 C 3.222656 -2.820312 2.472656 -3.289062 1.722656 -3.289062 C 0.898438 -3.289062 0.078125 -2.722656 0.078125 -1.625 C 0.078125 -0.527344 0.898438 0.0351562 1.722656 0.0351562 C 2.472656 0.0351562 3.222656 -0.433594 3.347656 -1.378906 Z M 3.347656 -1.378906 "/></g></g></g><g fill="#240606" fill-opacity="1"><g transform="translate(22.873742, 9.149997)"><g><path d="M 1.949219 -1.632812 L 3.046875 -3.199219 L 3.046875 -3.246094 L 2.015625 -3.246094 L 1.121094 -1.96875 L 1.121094 -4.199219 L 0.179688 -4.199219 L 0.179688 0 L 1.121094 0 L 1.121094 -1.265625 L 2.050781 0 L 3.15625 0 L 3.15625 -0.0429688 Z M 1.949219 -1.632812 "/></g></g></g><g clip-path="url(#48439786bf)"><path fill="#240606" d="M 14.316406 27.449219 L 8.035156 27.449219 C 7.753906 27.449219 7.527344 27.226562 7.527344 26.953125 L 7.527344 24.695312 C 7.527344 24.417969 7.753906 24.195312 8.035156 24.195312 L 14.316406 24.195312 C 14.601562 24.195312 14.828125 24.417969 14.828125 24.695312 L 14.828125 26.953125 C 14.828125 27.226562 14.601562 27.449219 14.316406 27.449219 " fill-opacity="1" fill-rule="nonzero"/></g><g clip-path="url(#d86adb3266)"><path fill="#240606" d="M 21.890625 20.203125 L 15.609375 20.203125 C 15.328125 20.203125 15.097656 19.980469 15.097656 19.703125 L 15.097656 17.449219 C 15.097656 17.171875 15.328125 16.949219 15.609375 16.949219 L 21.890625 16.949219 C 22.171875 16.949219 22.402344 17.171875 22.402344 17.449219 L 22.402344 19.703125 C 22.402344 19.980469 22.171875 20.203125 21.890625 20.203125 " fill-opacity="1" fill-rule="nonzero"/></g><path fill="#240606" d="M 18.066406 23.796875 L 11.785156 23.796875 C 11.503906 23.796875 11.273438 23.570312 11.273438 23.296875 L 11.273438 21.039062 C 11.273438 20.765625 11.503906 20.539062 11.785156 20.539062 L 18.066406 20.539062 C 18.347656 20.539062 18.578125 20.765625 18.578125 21.039062 L 18.578125 23.296875 C 18.578125 23.570312 18.347656 23.796875 18.066406 23.796875 " fill-opacity="1" fill-rule="nonzero"/><path fill="#240606" d="M 25.714844 23.796875 L 19.433594 23.796875 C 19.152344 23.796875 18.921875 23.570312 18.921875 23.296875 L 18.921875 21.039062 C 18.921875 20.765625 19.152344 20.539062 19.433594 20.539062 L 25.714844 20.539062 C 25.996094 20.539062 26.226562 20.765625 26.226562 21.039062 L 26.226562 23.296875 C 26.226562 23.570312 25.996094 23.796875 25.714844 23.796875 " fill-opacity="1" fill-rule="nonzero"/><g clip-path="url(#77dca4493d)"><path fill="#240606" d="M 29.460938 27.449219 L 23.179688 27.449219 C 22.898438 27.449219 22.671875 27.226562 22.671875 26.953125 L 22.671875 24.695312 C 22.671875 24.417969 22.898438 24.195312 23.179688 24.195312 L 29.460938 24.195312 C 29.742188 24.195312 29.972656 24.417969 29.972656 24.695312 L 29.972656 26.953125 C 29.972656 27.226562 29.742188 27.449219 29.460938 27.449219 " fill-opacity="1" fill-rule="nonzero"/></g><g clip-path="url(#39691f8dfe)"><path fill="#240606" d="M 21.921875 27.449219 L 15.640625 27.449219 C 15.359375 27.449219 15.132812 27.226562 15.132812 26.953125 L 15.132812 24.695312 C 15.132812 24.417969 15.359375 24.195312 15.640625 24.195312 L 21.921875 24.195312 C 22.203125 24.195312 22.433594 24.417969 22.433594 24.695312 L 22.433594 26.953125 C 22.433594 27.226562 22.203125 27.449219 21.921875 27.449219 " fill-opacity="1" fill-rule="nonzero"/></g></svg>