<svg xmlns="http://www.w3.org/2000/svg" xmlns:xlink="http://www.w3.org/1999/xlink" width="50" zoomAndPan="magnify" viewBox="0 0 37.5 37.499999" height="50" preserveAspectRatio="xMidYMid meet" version="1.0"><defs><g/><clipPath id="46757aa242"><path d="M 5.152344 0 L 32.347656 0 L 32.347656 37.007812 L 5.152344 37.007812 Z M 5.152344 0 " clip-rule="nonzero"/></clipPath><clipPath id="543c7a8276"><path d="M 5.152344 0.0078125 L 32.152344 0.0078125 L 32.152344 37.007812 L 5.152344 37.007812 Z M 5.152344 0.0078125 " clip-rule="nonzero"/></clipPath><clipPath id="0f57299924"><path d="M 11.25 17 L 26 17 L 26 31.175781 L 11.25 31.175781 Z M 11.25 17 " clip-rule="nonzero"/></clipPath></defs><g clip-path="url(#46757aa242)"><path fill="#d9d9d9" d="M 5.152344 0 L 32.445312 0 L 32.445312 37.46875 L 5.152344 37.46875 Z M 5.152344 0 " fill-opacity="1" fill-rule="nonzero"/></g><g clip-path="url(#543c7a8276)"><path stroke-linecap="butt" transform="matrix(0.744828, 0, 0, 0.75, 5.151596, 0.00641673)" fill="none" stroke-linejoin="miter" d="M 0.00100376 0.00186103 L 36.251006 0.00186103 L 36.251006 49.981034 L 0.00100376 49.981034 L 0.00100376 0.00186103 " stroke="#737373" stroke-width="2" stroke-opacity="1" stroke-miterlimit="4"/></g><g fill="#737373" fill-opacity="1"><g transform="translate(13.697542, 9.149997)"><g><path d="M 3.484375 -1.621094 C 3.484375 -2.777344 2.621094 -3.355469 1.757812 -3.355469 C 0.886719 -3.355469 0.0234375 -2.777344 0.0234375 -1.621094 C 0.0234375 -0.46875 0.894531 0.109375 1.757812 0.109375 C 2.621094 0.109375 3.484375 -0.46875 3.484375 -1.621094 Z M 0.972656 -1.621094 C 0.972656 -2.171875 1.363281 -2.449219 1.757812 -2.449219 C 2.191406 -2.449219 2.539062 -2.171875 2.539062 -1.621094 C 2.539062 -1.074219 2.148438 -0.804688 1.757812 -0.804688 C 1.363281 -0.804688 0.972656 -1.074219 0.972656 -1.621094 Z M 0.972656 -1.621094 "/></g></g></g><g fill="#737373" fill-opacity="1"><g transform="translate(17.495569, 9.149997)"><g><path d="M 1.066406 -3.03125 L 1.03125 -3.246094 L 0.179688 -3.246094 L 0.179688 0 L 1.121094 0 L 1.121094 -1.800781 C 1.121094 -2.238281 1.46875 -2.417969 1.8125 -2.425781 C 1.921875 -2.425781 2.035156 -2.40625 2.128906 -2.375 L 2.140625 -3.265625 C 2.015625 -3.292969 1.890625 -3.3125 1.777344 -3.3125 C 1.511719 -3.3125 1.277344 -3.226562 1.066406 -3.03125 Z M 1.066406 -3.03125 "/></g></g></g><g fill="#737373" fill-opacity="1"><g transform="translate(19.955583, 9.149997)"><g><path d="M 3.433594 -1.632812 C 3.433594 -2.742188 2.59375 -3.292969 1.757812 -3.292969 C 0.910156 -3.292969 0.078125 -2.742188 0.078125 -1.632812 C 0.078125 -0.523438 0.910156 0.0351562 1.753906 0.0351562 C 2.425781 0.0351562 3.089844 -0.316406 3.335938 -1.027344 L 2.308594 -1.027344 C 2.171875 -0.875 1.972656 -0.804688 1.765625 -0.804688 C 1.476562 -0.808594 1.183594 -0.960938 1.066406 -1.261719 L 3.394531 -1.261719 C 3.421875 -1.378906 3.433594 -1.5 3.433594 -1.632812 Z M 2.398438 -1.996094 L 1.105469 -1.996094 C 1.199219 -2.316406 1.457031 -2.472656 1.738281 -2.472656 C 2.046875 -2.472656 2.308594 -2.320312 2.398438 -1.996094 Z M 2.398438 -1.996094 "/></g></g></g><g clip-path="url(#0f57299924)"><path fill="#737373" d="M 22.773438 26.613281 C 22.441406 26.609375 22.121094 26.679688 21.828125 26.8125 L 15.894531 20.871094 L 16.726562 20.078125 C 16.828125 19.980469 16.835938 19.824219 16.742188 19.730469 L 14.648438 17.636719 C 14.429688 17.417969 14.117188 17.3125 13.792969 17.34375 L 11.984375 17.535156 C 11.75 17.5625 11.5625 17.738281 11.53125 17.96875 L 11.292969 19.734375 C 11.25 20.050781 11.351562 20.359375 11.570312 20.578125 L 13.664062 22.675781 C 13.757812 22.769531 13.914062 22.765625 14.015625 22.667969 L 14.847656 21.875 L 20.777344 27.8125 C 20.636719 28.097656 20.558594 28.410156 20.554688 28.734375 C 20.546875 29.308594 20.769531 29.851562 21.179688 30.257812 L 22.089844 31.171875 L 25.230469 28.171875 L 24.316406 27.261719 C 23.90625 26.851562 23.359375 26.621094 22.773438 26.613281 Z M 21.535156 27.546875 C 22.222656 26.890625 23.320312 26.902344 23.988281 27.574219 L 24.230469 27.816406 L 21.746094 30.1875 L 21.507812 29.945312 C 20.835938 29.277344 20.851562 28.199219 21.535156 27.546875 Z M 21.535156 27.546875 " fill-opacity="1" fill-rule="nonzero"/></g><path fill="#737373" d="M 24.601562 20.144531 L 24.734375 20.019531 L 24.585938 19.871094 L 24.765625 19.710938 L 23.523438 18.464844 L 23.347656 18.632812 L 23.15625 18.4375 L 23.015625 18.570312 C 21.214844 17.234375 19.144531 16.925781 18.03125 17.9375 C 18.015625 17.949219 18.023438 17.976562 18.042969 17.980469 C 18.046875 17.980469 18.050781 17.980469 18.050781 17.984375 C 18.058594 17.984375 18.0625 17.984375 18.066406 17.984375 C 18.746094 17.773438 20.195312 18.515625 21.703125 19.824219 L 21.539062 19.980469 L 21.734375 20.175781 L 15.140625 26.476562 L 15.015625 26.59375 L 13.886719 27.675781 L 13.816406 27.742188 L 12.238281 28.90625 C 11.949219 29.179688 11.941406 29.628906 12.214844 29.90625 L 12.488281 30.179688 C 12.761719 30.457031 13.171875 30.40625 13.457031 30.132812 L 14.660156 28.773438 L 16.039062 27.453125 L 22.910156 21.355469 L 23.117188 21.5625 L 23.28125 21.40625 C 24.625 22.941406 25.371094 24.414062 25.121094 25.074219 C 25.121094 25.078125 25.121094 25.085938 25.125 25.09375 C 25.132812 25.113281 25.15625 25.117188 25.167969 25.101562 C 26.25 24.027344 25.96875 21.953125 24.601562 20.144531 Z M 24.601562 20.144531 " fill-opacity="1" fill-rule="nonzero"/></svg>