<svg xmlns="http://www.w3.org/2000/svg" xmlns:xlink="http://www.w3.org/1999/xlink" width="50" zoomAndPan="magnify" viewBox="0 0 37.5 37.499999" height="50" preserveAspectRatio="xMidYMid meet" version="1.0"><defs><g/><clipPath id="c76725b44b"><path d="M 5.152344 0 L 32.347656 0 L 32.347656 37.007812 L 5.152344 37.007812 Z M 5.152344 0 " clip-rule="nonzero"/></clipPath><clipPath id="446f4f5ad9"><path d="M 5.152344 0.0078125 L 32.152344 0.0078125 L 32.152344 37.007812 L 5.152344 37.007812 Z M 5.152344 0.0078125 " clip-rule="nonzero"/></clipPath><clipPath id="d53a6c61da"><path d="M 24 26 L 27 26 L 27 31.738281 L 24 31.738281 Z M 24 26 " clip-rule="nonzero"/></clipPath><clipPath id="258811731a"><path d="M 21 25 L 25 25 L 25 31.738281 L 21 31.738281 Z M 21 25 " clip-rule="nonzero"/></clipPath><clipPath id="a2597309c5"><path d="M 13 26 L 16 26 L 16 31.738281 L 13 31.738281 Z M 13 26 " clip-rule="nonzero"/></clipPath><clipPath id="8dcc1550e6"><path d="M 15 26 L 18 26 L 18 31.738281 L 15 31.738281 Z M 15 26 " clip-rule="nonzero"/></clipPath><clipPath id="94cb7938a1"><path d="M 8.335938 17 L 14 17 L 14 22 L 8.335938 22 Z M 8.335938 17 " clip-rule="nonzero"/></clipPath><clipPath id="35ff58d970"><path d="M 8.335938 20 L 10 20 L 10 21 L 8.335938 21 Z M 8.335938 20 " clip-rule="nonzero"/></clipPath><clipPath id="1d68fce08c"><path d="M 9 16.738281 L 27 16.738281 L 27 29 L 9 29 Z M 9 16.738281 " clip-rule="nonzero"/></clipPath></defs><g clip-path="url(#c76725b44b)"><path fill="#c9e265" d="M 5.152344 0 L 32.445312 0 L 32.445312 37.46875 L 5.152344 37.46875 Z M 5.152344 0 " fill-opacity="1" fill-rule="nonzero"/></g><g clip-path="url(#446f4f5ad9)"><path stroke-linecap="butt" transform="matrix(0.744828, 0, 0, 0.75, 5.151596, 0.00641673)" fill="none" stroke-linejoin="miter" d="M 0.00100376 0.00186103 L 36.251006 0.00186103 L 36.251006 49.981034 L 0.00100376 49.981034 L 0.00100376 0.00186103 " stroke="#8ca231" stroke-width="2" stroke-opacity="1" stroke-miterlimit="4"/></g><g fill="#8ca231" fill-opacity="1"><g transform="translate(11.767854, 9.149997)"><g><path d="M -0.0585938 -3.246094 L -0.0585938 -3.101562 L 0.972656 0 L 1.878906 0 L 2.015625 -0.371094 L 2.296875 -1.285156 L 2.566406 -0.382812 L 2.710938 0 L 3.617188 0 L 4.648438 -3.101562 L 4.648438 -3.246094 L 3.683594 -3.246094 L 3.359375 -2.269531 L 3.144531 -1.378906 L 2.632812 -3.058594 L 1.957031 -3.058594 L 1.445312 -1.378906 L 1.230469 -2.269531 L 0.90625 -3.246094 Z M -0.0585938 -3.246094 "/></g></g></g><g fill="#8ca231" fill-opacity="1"><g transform="translate(16.639886, 9.149997)"><g><path d="M 3.484375 -1.621094 C 3.484375 -2.777344 2.621094 -3.355469 1.757812 -3.355469 C 0.886719 -3.355469 0.0234375 -2.777344 0.0234375 -1.621094 C 0.0234375 -0.46875 0.894531 0.109375 1.757812 0.109375 C 2.621094 0.109375 3.484375 -0.46875 3.484375 -1.621094 Z M 0.972656 -1.621094 C 0.972656 -2.171875 1.363281 -2.449219 1.757812 -2.449219 C 2.191406 -2.449219 2.539062 -2.171875 2.539062 -1.621094 C 2.539062 -1.074219 2.148438 -0.804688 1.757812 -0.804688 C 1.363281 -0.804688 0.972656 -1.074219 0.972656 -1.621094 Z M 0.972656 -1.621094 "/></g></g></g><g fill="#8ca231" fill-opacity="1"><g transform="translate(20.437913, 9.149997)"><g><path d="M 3.484375 -1.621094 C 3.484375 -2.777344 2.621094 -3.355469 1.757812 -3.355469 C 0.886719 -3.355469 0.0234375 -2.777344 0.0234375 -1.621094 C 0.0234375 -0.46875 0.894531 0.109375 1.757812 0.109375 C 2.621094 0.109375 3.484375 -0.46875 3.484375 -1.621094 Z M 0.972656 -1.621094 C 0.972656 -2.171875 1.363281 -2.449219 1.757812 -2.449219 C 2.191406 -2.449219 2.539062 -2.171875 2.539062 -1.621094 C 2.539062 -1.074219 2.148438 -0.804688 1.757812 -0.804688 C 1.363281 -0.804688 0.972656 -1.074219 0.972656 -1.621094 Z M 0.972656 -1.621094 "/></g></g></g><g fill="#8ca231" fill-opacity="1"><g transform="translate(24.23594, 9.149997)"><g><path d="M 1.105469 -4.199219 L 0.144531 -4.199219 L 0.144531 0 L 1.105469 0 Z M 1.105469 -4.199219 "/></g></g></g><g clip-path="url(#d53a6c61da)"><path fill="#caba9f" d="M 24.097656 26.902344 C 24.097656 26.902344 25.566406 29.078125 24.996094 30.613281 C 24.996094 30.613281 24.546875 30.894531 24.613281 31.699219 L 25.773438 31.699219 C 26.023438 30.921875 26.058594 31.175781 26.058594 30.410156 C 26.058594 30.410156 26.425781 30.492188 26.261719 29.683594 C 26.261719 29.683594 25.40625 26.492188 25.484375 26.089844 C 25.566406 25.6875 24.097656 26.902344 24.097656 26.902344 Z M 24.097656 26.902344 " fill-opacity="1" fill-rule="nonzero"/></g><g clip-path="url(#258811731a)"><path fill="#caba9f" d="M 21.957031 26.328125 C 21.957031 26.328125 23.699219 29.109375 22.808594 30.585938 C 22.808594 30.585938 22.152344 30.929688 22.140625 31.742188 L 23.332031 31.742188 C 23.65625 30.988281 23.8125 31.246094 23.886719 30.484375 C 23.886719 30.484375 24.242188 30.597656 24.15625 29.777344 C 24.15625 29.777344 23.609375 26.523438 23.726562 26.128906 C 23.847656 25.734375 21.957031 26.328125 21.957031 26.328125 Z M 21.957031 26.328125 " fill-opacity="1" fill-rule="nonzero"/></g><g clip-path="url(#a2597309c5)"><path fill="#caba9f" d="M 14.425781 26.699219 C 14.425781 26.699219 14.996094 29.765625 14.34375 30.976562 C 14.34375 30.976562 13.894531 31.175781 13.894531 31.699219 L 15.039062 31.699219 C 15.039062 31.699219 15.40625 30.976562 15.40625 30.773438 C 15.40625 30.570312 15.8125 30.570312 15.730469 30.128906 C 15.730469 30.128906 15.46875 27.425781 15.742188 26.820312 C 16.015625 26.21875 14.425781 26.699219 14.425781 26.699219 Z M 14.425781 26.699219 " fill-opacity="1" fill-rule="nonzero"/></g><g clip-path="url(#8dcc1550e6)"><path fill="#caba9f" d="M 15.464844 26.175781 C 15.464844 26.175781 16.890625 29.613281 16.445312 30.914062 C 16.445312 30.914062 16.136719 31.195312 16.015625 31.699219 L 17.078125 31.699219 C 17.078125 31.699219 17.417969 30.859375 17.382812 30.660156 C 17.351562 30.460938 17.753906 30.398438 17.601562 29.972656 C 17.601562 29.972656 17.023438 27.347656 17.195312 26.707031 C 17.367188 26.066406 15.464844 26.175781 15.464844 26.175781 Z M 15.464844 26.175781 " fill-opacity="1" fill-rule="nonzero"/></g><path fill="#bb804c" d="M 13.253906 17.664062 C 13.070312 17.570312 12.691406 17.242188 12.539062 17.171875 C 12.925781 17.648438 13.074219 18.277344 13.074219 18.277344 C 13.289062 18.441406 13.375 18.695312 13.398438 18.964844 C 13.703125 18.988281 13.980469 18.976562 14.199219 18.898438 C 14.199219 18.898438 13.734375 17.910156 13.253906 17.664062 Z M 13.253906 17.664062 " fill-opacity="1" fill-rule="nonzero"/><g clip-path="url(#94cb7938a1)"><path fill="#caba9f" d="M 13.398438 18.964844 C 13.375 18.695312 13.289062 18.441406 13.074219 18.277344 C 13.074219 18.277344 12.242188 17.925781 12.242188 17.925781 C 12.105469 18.308594 11.589844 18.386719 11.230469 18.390625 C 11.023438 18.394531 10.867188 18.375 10.867188 18.375 C 10.714844 18.394531 10.585938 18.40625 10.472656 18.40625 C 10.472656 18.40625 9.152344 19.03125 8.742188 19.675781 C 8.742188 19.675781 8.394531 20.066406 8.691406 20.328125 C 8.75 20.328125 8.816406 20.3125 8.871094 20.289062 C 9.03125 20.230469 9.183594 20.175781 9.335938 20.3125 C 9.246094 20.261719 9.097656 20.273438 9.046875 20.289062 C 8.992188 20.335938 8.914062 20.402344 8.824219 20.453125 C 8.824219 20.53125 8.835938 20.726562 8.847656 20.753906 C 8.953125 20.976562 9.230469 21.140625 9.453125 21.101562 C 9.746094 21.058594 9.953125 20.859375 10.257812 20.933594 C 10.773438 21.058594 11.144531 21.179688 11.679688 21.042969 C 12.222656 20.902344 13.132812 20.566406 13.25 20.011719 C 13.25 20.011719 13.441406 19.46875 13.398438 18.964844 Z M 13.398438 18.964844 " fill-opacity="1" fill-rule="nonzero"/></g><path fill="#ce8f56" d="M 10.375 18.402344 C 10.371094 18.402344 10.371094 18.402344 10.367188 18.402344 C 10.363281 18.441406 10.363281 18.425781 10.375 18.402344 Z M 10.375 18.402344 " fill-opacity="1" fill-rule="nonzero"/><path fill="#ce8f56" d="M 10.375 18.402344 C 10.40625 18.402344 10.4375 18.40625 10.472656 18.40625 C 10.417969 18.328125 10.386719 18.371094 10.375 18.402344 Z M 10.375 18.402344 " fill-opacity="1" fill-rule="nonzero"/><g clip-path="url(#35ff58d970)"><path fill="#1c1422" d="M 9.335938 20.3125 C 9.183594 20.175781 9.03125 20.230469 8.871094 20.289062 C 8.816406 20.3125 8.75 20.328125 8.691406 20.328125 C 8.726562 20.363281 8.769531 20.390625 8.828125 20.417969 C 8.824219 20.417969 8.824219 20.433594 8.824219 20.453125 C 8.914062 20.402344 8.992188 20.335938 9.046875 20.289062 C 9.097656 20.273438 9.246094 20.261719 9.335938 20.3125 Z M 9.335938 20.3125 " fill-opacity="1" fill-rule="nonzero"/></g><g clip-path="url(#1d68fce08c)"><path fill="#ffffff" d="M 26.683594 22.5 C 26.683594 22.5 26.425781 20.351562 24.585938 19.949219 C 24.585938 19.949219 23.8125 19.621094 23.257812 19.621094 C 22.335938 19.621094 21.25 19.445312 20.1875 19.609375 C 18.714844 19.832031 17.265625 20.230469 15.761719 20.148438 C 15.257812 20.121094 14.996094 20.015625 14.816406 19.84375 C 14.945312 19.070312 14.199219 18.898438 14.199219 18.898438 C 14.199219 18.070312 13.566406 17.917969 13.566406 17.917969 C 13.453125 17.277344 13.105469 17.25 12.910156 17.289062 C 12.539062 16.738281 12.050781 16.953125 11.835938 17.089844 C 11.6875 16.949219 11.328125 16.746094 10.640625 17.1875 C 10.640625 17.1875 9.835938 17.128906 9.777344 17.683594 C 9.746094 17.984375 9.792969 18.488281 10.367188 18.523438 C 10.5 18.53125 10.664062 18.402344 10.867188 18.375 C 10.867188 18.375 10.984375 18.449219 11.191406 18.445312 C 11.207031 18.445312 11.464844 18.375 11.480469 18.375 C 11.578125 18.371094 11.667969 18.363281 11.75 18.347656 C 11.894531 19.09375 12.664062 18.929688 12.664062 18.929688 C 12.191406 19.425781 12.335938 19.828125 12.335938 19.828125 C 11.828125 20.191406 12.007812 20.726562 12.074219 20.875 C 11.8125 20.859375 11.453125 20.898438 11.203125 21.183594 C 11.203125 21.183594 11.261719 21.492188 11.320312 21.597656 C 11.433594 21.800781 11.269531 22.5 11.316406 22.777344 C 11.414062 23.378906 11.890625 23.664062 12.210938 24.128906 C 12.75 24.917969 12.714844 25.71875 13.277344 26.515625 C 13.960938 27.488281 14.835938 27.386719 14.835938 27.386719 C 15.730469 27.875 16.847656 28.183594 18.214844 27.371094 C 18.863281 26.988281 19.410156 27.425781 20.203125 27.261719 C 20.714844 27.15625 21.335938 27.0625 21.921875 27.046875 C 22.195312 27.632812 22.824219 28.40625 24.171875 27.769531 L 24.171875 27.765625 C 24.421875 27.820312 24.703125 27.824219 25.019531 27.71875 C 26.304688 27.296875 25.519531 26.972656 25.835938 26.226562 C 25.9375 25.984375 26.507812 23.992188 26.132812 23.855469 C 26.132812 23.855469 27.015625 24.171875 26.683594 22.5 Z M 26.683594 22.5 " fill-opacity="1" fill-rule="nonzero"/></g><path fill="#caba9f" d="M 12.539062 18.050781 C 12.539062 18.050781 13.054688 17.421875 14.199219 17.683594 C 14.199219 17.683594 13.738281 18.648438 13.003906 18.683594 C 13.003906 18.683594 12.910156 18.292969 12.539062 18.050781 Z M 12.539062 18.050781 " fill-opacity="1" fill-rule="nonzero"/><path fill="#1c1422" d="M 10.664062 18.984375 C 10.554688 19.015625 10.457031 19.078125 10.402344 19.183594 C 10.472656 19.164062 10.542969 19.152344 10.613281 19.144531 C 10.789062 19.453125 11.210938 19.097656 11.210938 19.097656 C 10.945312 18.875 10.761719 18.921875 10.664062 18.984375 Z M 10.664062 18.984375 " fill-opacity="1" fill-rule="nonzero"/></svg>