<svg xmlns="http://www.w3.org/2000/svg" xmlns:xlink="http://www.w3.org/1999/xlink" width="50" zoomAndPan="magnify" viewBox="0 0 37.5 37.499999" height="50" preserveAspectRatio="xMidYMid meet" version="1.0"><defs><clipPath id="4958a6adcd"><path d="M 2.636719 0 L 34.886719 0 L 34.886719 37.007812 L 2.636719 37.007812 Z M 2.636719 0 " clip-rule="nonzero"/></clipPath><clipPath id="675b609aec"><path d="M 18.761719 0 L 34.886719 9.375 L 34.886719 28.125 L 18.761719 37.5 L 2.636719 28.125 L 2.636719 9.375 L 18.761719 0 " clip-rule="nonzero"/></clipPath><clipPath id="2be2200fec"><path d="M 4.128906 1.738281 L 33.371094 1.738281 L 33.371094 35.761719 L 4.128906 35.761719 Z M 4.128906 1.738281 " clip-rule="nonzero"/></clipPath><clipPath id="ba6ceaf029"><path d="M 18.75 1.738281 L 33.371094 10.242188 L 33.371094 27.257812 L 18.75 35.761719 L 4.128906 27.257812 L 4.128906 10.242188 L 18.75 1.738281 " clip-rule="nonzero"/></clipPath><clipPath id="accf512508"><path d="M 13.125 5.1875 L 24.375 5.1875 L 24.375 16.4375 L 13.125 16.4375 Z M 13.125 5.1875 " clip-rule="nonzero"/></clipPath><clipPath id="aec4c32856"><path d="M 18.75 5.1875 C 15.644531 5.1875 13.125 7.703125 13.125 10.8125 C 13.125 13.917969 15.644531 16.4375 18.75 16.4375 C 21.855469 16.4375 24.375 13.917969 24.375 10.8125 C 24.375 7.703125 21.855469 5.1875 18.75 5.1875 " clip-rule="nonzero"/></clipPath><clipPath id="e099238b27"><path d="M 7.5 25 L 15 25 L 15 28.351562 L 7.5 28.351562 Z M 7.5 25 " clip-rule="nonzero"/></clipPath><clipPath id="142196820b"><path d="M 15 17.851562 L 23 17.851562 L 23 22 L 15 22 Z M 15 17.851562 " clip-rule="nonzero"/></clipPath><clipPath id="d1c68b7939"><path d="M 22 25 L 30 25 L 30 28.351562 L 22 28.351562 Z M 22 25 " clip-rule="nonzero"/></clipPath><clipPath id="b4751be207"><path d="M 15 25 L 23 25 L 23 28.351562 L 15 28.351562 Z M 15 25 " clip-rule="nonzero"/></clipPath></defs><g clip-path="url(#4958a6adcd)"><g clip-path="url(#675b609aec)"><path stroke-linecap="butt" transform="matrix(0.750545, 0, 0, 0.75, 2.636719, 0)" fill="none" stroke-linejoin="miter" d="M 21.484377 0 L 42.968754 12.500002 L 42.968754 37.500005 L 21.484377 50.000006 L -0.000000110562 37.500005 L -0.000000110562 12.500002 L 21.484377 0 " stroke="#240606" stroke-width="4" stroke-opacity="1" stroke-miterlimit="4"/></g></g><g clip-path="url(#2be2200fec)"><g clip-path="url(#ba6ceaf029)"><path fill="#792f2f" d="M 4.128906 1.738281 L 33.371094 1.738281 L 33.371094 35.761719 L 4.128906 35.761719 Z M 4.128906 1.738281 " fill-opacity="1" fill-rule="nonzero"/></g></g><g clip-path="url(#accf512508)"><g clip-path="url(#aec4c32856)"><path fill="#ffebce" d="M 13.125 5.1875 L 24.375 5.1875 L 24.375 16.4375 L 13.125 16.4375 Z M 13.125 5.1875 " fill-opacity="1" fill-rule="nonzero"/><path stroke-linecap="butt" transform="matrix(0.75, 0, 0, 0.75, 13.124999, 5.186652)" fill="none" stroke-linejoin="miter" d="M 7.500002 0.0011303 C 3.359377 0.0011303 0.00000137127 3.355297 0.00000137127 7.501131 C 0.00000137127 11.641757 3.359377 15.001132 7.500002 15.001132 C 11.640628 15.001132 15.000003 11.641757 15.000003 7.501131 C 15.000003 3.355297 11.640628 0.0011303 7.500002 0.0011303 " stroke="#240606" stroke-width="2" stroke-opacity="1" stroke-miterlimit="4"/></g></g><g clip-path="url(#e099238b27)"><path fill="#240606" d="M 14.316406 28.351562 L 8.035156 28.351562 C 7.753906 28.351562 7.527344 28.128906 7.527344 27.851562 L 7.527344 25.59375 C 7.527344 25.320312 7.753906 25.09375 8.035156 25.09375 L 14.316406 25.09375 C 14.601562 25.09375 14.828125 25.320312 14.828125 25.59375 L 14.828125 27.851562 C 14.828125 28.128906 14.601562 28.351562 14.316406 28.351562 " fill-opacity="1" fill-rule="nonzero"/></g><g clip-path="url(#142196820b)"><path fill="#240606" d="M 21.890625 21.105469 L 15.609375 21.105469 C 15.328125 21.105469 15.097656 20.878906 15.097656 20.605469 L 15.097656 18.347656 C 15.097656 18.074219 15.328125 17.847656 15.609375 17.847656 L 21.890625 17.847656 C 22.171875 17.847656 22.402344 18.074219 22.402344 18.347656 L 22.402344 20.605469 C 22.402344 20.878906 22.171875 21.105469 21.890625 21.105469 " fill-opacity="1" fill-rule="nonzero"/></g><path fill="#240606" d="M 18.066406 24.695312 L 11.785156 24.695312 C 11.503906 24.695312 11.273438 24.472656 11.273438 24.195312 L 11.273438 21.9375 C 11.273438 21.664062 11.503906 21.441406 11.785156 21.441406 L 18.066406 21.441406 C 18.347656 21.441406 18.578125 21.664062 18.578125 21.9375 L 18.578125 24.195312 C 18.578125 24.472656 18.347656 24.695312 18.066406 24.695312 " fill-opacity="1" fill-rule="nonzero"/><path fill="#240606" d="M 25.714844 24.695312 L 19.433594 24.695312 C 19.152344 24.695312 18.921875 24.472656 18.921875 24.195312 L 18.921875 21.9375 C 18.921875 21.664062 19.152344 21.441406 19.433594 21.441406 L 25.714844 21.441406 C 25.996094 21.441406 26.226562 21.664062 26.226562 21.9375 L 26.226562 24.195312 C 26.226562 24.472656 25.996094 24.695312 25.714844 24.695312 " fill-opacity="1" fill-rule="nonzero"/><g clip-path="url(#d1c68b7939)"><path fill="#240606" d="M 29.460938 28.351562 L 23.179688 28.351562 C 22.898438 28.351562 22.671875 28.128906 22.671875 27.851562 L 22.671875 25.59375 C 22.671875 25.320312 22.898438 25.09375 23.179688 25.09375 L 29.460938 25.09375 C 29.742188 25.09375 29.972656 25.320312 29.972656 25.59375 L 29.972656 27.851562 C 29.972656 28.128906 29.742188 28.351562 29.460938 28.351562 " fill-opacity="1" fill-rule="nonzero"/></g><g clip-path="url(#b4751be207)"><path fill="#240606" d="M 21.921875 28.351562 L 15.640625 28.351562 C 15.359375 28.351562 15.132812 28.128906 15.132812 27.851562 L 15.132812 25.59375 C 15.132812 25.320312 15.359375 25.09375 15.640625 25.09375 L 21.921875 25.09375 C 22.203125 25.09375 22.433594 25.320312 22.433594 25.59375 L 22.433594 27.851562 C 22.433594 28.128906 22.203125 28.351562 21.921875 28.351562 " fill-opacity="1" fill-rule="nonzero"/></g></svg>