<svg xmlns="http://www.w3.org/2000/svg" xmlns:xlink="http://www.w3.org/1999/xlink" width="50" zoomAndPan="magnify" viewBox="0 0 37.5 37.499999" height="50" preserveAspectRatio="xMidYMid meet" version="1.0"><defs><clipPath id="5e253c641d"><path d="M 4.128906 1.738281 L 33.371094 1.738281 L 33.371094 35.761719 L 4.128906 35.761719 Z M 4.128906 1.738281 " clip-rule="nonzero"/></clipPath><clipPath id="c87e158652"><path d="M 18.75 1.738281 L 33.371094 10.242188 L 33.371094 27.257812 L 18.75 35.761719 L 4.128906 27.257812 L 4.128906 10.242188 L 18.75 1.738281 " clip-rule="nonzero"/></clipPath><clipPath id="556a1bf4ae"><path d="M 2.90625 21.742188 L 26 21.742188 L 26 28.492188 L 2.90625 28.492188 Z M 2.90625 21.742188 " clip-rule="nonzero"/></clipPath><clipPath id="6982043ed6"><path d="M 16 24 L 34.40625 24 L 34.40625 28.492188 L 16 28.492188 Z M 16 24 " clip-rule="nonzero"/></clipPath><clipPath id="4bd1184a46"><path d="M 2.90625 21.742188 L 26 21.742188 L 26 28.492188 L 2.90625 28.492188 Z M 2.90625 21.742188 " clip-rule="nonzero"/></clipPath><clipPath id="b737abedd3"><path d="M 16 24 L 32 24 L 32 28.492188 L 16 28.492188 Z M 16 24 " clip-rule="nonzero"/></clipPath><clipPath id="5bfe5d4938"><path d="M 31 27 L 33 27 L 33 28.492188 L 31 28.492188 Z M 31 27 " clip-rule="nonzero"/></clipPath><clipPath id="ef2802ce94"><path d="M 4.128906 27.65625 L 33.484375 27.65625 L 33.484375 37.007812 L 4.128906 37.007812 Z M 4.128906 27.65625 " clip-rule="nonzero"/></clipPath><clipPath id="cd646b1485"><path d="M 18.75 37.5 L 33.371094 27.65625 L 4.128906 27.65625 L 18.75 37.5 " clip-rule="nonzero"/></clipPath><clipPath id="e794e9a4e4"><path d="M 2.636719 0 L 34.886719 0 L 34.886719 37.007812 L 2.636719 37.007812 Z M 2.636719 0 " clip-rule="nonzero"/></clipPath><clipPath id="4b7ccfe587"><path d="M 18.761719 0 L 34.886719 9.375 L 34.886719 28.125 L 18.761719 37.5 L 2.636719 28.125 L 2.636719 9.375 L 18.761719 0 " clip-rule="nonzero"/></clipPath><clipPath id="ecf9c0fd87"><path d="M 16 7.757812 L 22 7.757812 L 22 14 L 16 14 Z M 16 7.757812 " clip-rule="nonzero"/></clipPath><clipPath id="35362c90d9"><path d="M 22 10 L 31.242188 10 L 31.242188 11 L 22 11 Z M 22 10 " clip-rule="nonzero"/></clipPath><clipPath id="fc7f411803"><path d="M 6.492188 10 L 16 10 L 16 11 L 6.492188 11 Z M 6.492188 10 " clip-rule="nonzero"/></clipPath><clipPath id="fa5096f393"><path d="M 18 13 L 19 13 L 19 22.757812 L 18 22.757812 Z M 18 13 " clip-rule="nonzero"/></clipPath><clipPath id="144dca3fdc"><path d="M 30 27 L 35 27 L 35 29 L 30 29 Z M 30 27 " clip-rule="nonzero"/></clipPath><clipPath id="8afba94671"><path d="M 30.242188 27.46875 L 33.910156 26.691406 L 34.222656 28.160156 L 30.554688 28.9375 Z M 30.242188 27.46875 " clip-rule="nonzero"/></clipPath><clipPath id="3a3fae7340"><path d="M 30.242188 27.46875 L 33.910156 26.691406 L 34.222656 28.160156 L 30.554688 28.9375 Z M 30.242188 27.46875 " clip-rule="nonzero"/></clipPath></defs><g clip-path="url(#5e253c641d)"><g clip-path="url(#c87e158652)"><path fill="#edba6e" d="M 4.128906 1.738281 L 33.371094 1.738281 L 33.371094 35.761719 L 4.128906 35.761719 Z M 4.128906 1.738281 " fill-opacity="1" fill-rule="nonzero"/></g></g><g clip-path="url(#556a1bf4ae)"><path fill="#bb8b44" d="M 14.144531 21.746094 L 13.800781 21.761719 C 13.332031 21.804688 12.8125 21.929688 12.246094 22.140625 C 11.855469 22.246094 11.0625 22.640625 9.871094 23.324219 C 8.558594 24.082031 6.234375 25.765625 2.90625 28.375 L 10.808594 28.492188 L 25.796875 28.492188 C 23.984375 27.390625 22.59375 26.523438 21.621094 25.890625 C 20.964844 25.492188 19.558594 24.515625 17.394531 22.960938 C 17.148438 22.796875 16.90625 22.648438 16.667969 22.511719 C 16.285156 22.277344 15.8125 22.070312 15.25 21.890625 C 14.976562 21.800781 14.605469 21.75 14.144531 21.746094 Z M 14.144531 21.746094 " fill-opacity="1" fill-rule="nonzero"/></g><g clip-path="url(#6982043ed6)"><path fill="#bb8b44" d="M 26.867188 24.15625 L 26.816406 24.15625 C 26.3125 24.144531 25.597656 24.308594 24.679688 24.65625 C 24.269531 24.824219 23.785156 25.050781 23.21875 25.324219 C 21.628906 26.171875 20.652344 26.679688 20.292969 26.847656 C 19.804688 27.070312 19.421875 27.222656 19.144531 27.308594 C 18.316406 27.585938 17.410156 27.675781 16.429688 27.578125 L 24.085938 28.492188 L 34.40625 28.492188 L 31.175781 26.382812 C 30.6875 25.917969 30.023438 25.40625 29.1875 24.851562 C 28.660156 24.570312 28.316406 24.40625 28.148438 24.359375 C 27.6875 24.21875 27.261719 24.152344 26.867188 24.15625 Z M 26.867188 24.15625 " fill-opacity="1" fill-rule="nonzero"/></g><g clip-path="url(#4bd1184a46)"><path fill="#efc88d" d="M 14.171875 21.746094 L 14.144531 21.746094 C 13.183594 21.839844 12.46875 21.992188 11.988281 22.207031 C 11.5625 22.382812 10.699219 22.851562 9.394531 23.609375 C 7.5 24.871094 5.335938 26.457031 2.90625 28.375 L 10.808594 28.492188 L 25.796875 28.492188 C 24.183594 27.511719 22.867188 26.691406 21.851562 26.039062 L 21.1875 26.585938 L 20.484375 26.957031 C 20.40625 27 20.324219 27.027344 20.238281 27.046875 C 20 27.089844 19.777344 27.089844 19.5625 27.050781 L 19.273438 26.960938 L 18.8125 26.738281 C 18.605469 26.601562 18.453125 26.410156 18.359375 26.15625 C 18.132812 25.984375 17.976562 25.84375 17.894531 25.734375 C 17.632812 25.703125 17.292969 25.5 16.878906 25.125 C 16.679688 24.886719 16.351562 24.417969 15.882812 23.71875 L 14.726562 22.523438 C 14.660156 22.457031 14.644531 22.207031 14.675781 21.777344 Z M 14.171875 21.746094 " fill-opacity="1" fill-rule="nonzero"/></g><path fill="#efc88d" d="M 29.519531 26.410156 L 29.574219 26.457031 L 29.632812 26.496094 L 29.695312 26.53125 L 29.757812 26.5625 L 29.824219 26.589844 L 29.890625 26.609375 L 29.960938 26.621094 L 30.035156 26.632812 L 30.113281 26.636719 L 30.113281 26.628906 L 30.070312 26.628906 C 30.039062 26.625 30.007812 26.621094 29.980469 26.613281 C 29.921875 26.601562 29.863281 26.585938 29.804688 26.566406 C 29.777344 26.554688 29.75 26.542969 29.722656 26.53125 L 29.683594 26.511719 C 29.632812 26.480469 29.578125 26.449219 29.519531 26.410156 " fill-opacity="1" fill-rule="nonzero"/><g clip-path="url(#b737abedd3)"><path fill="#efc88d" d="M 26.761719 24.15625 L 26.585938 24.164062 C 26.304688 24.191406 25.929688 24.265625 25.457031 24.382812 C 25.089844 24.484375 24.597656 24.675781 23.972656 24.953125 C 23.835938 25.007812 23.128906 25.367188 21.855469 26.035156 C 21.761719 26.085938 21.542969 26.265625 21.203125 26.578125 C 20.726562 26.792969 20.492188 26.914062 20.503906 26.949219 C 20.398438 27 20.335938 27.023438 20.3125 27.027344 C 20.179688 27.070312 19.996094 27.085938 19.753906 27.074219 C 19.0625 27.351562 18.566406 27.503906 18.257812 27.535156 C 17.574219 27.628906 16.980469 27.644531 16.472656 27.582031 L 24.085938 28.492188 L 31.710938 28.492188 L 31.523438 28.355469 C 30.839844 28.089844 30.480469 27.929688 30.445312 27.882812 C 30.117188 27.476562 29.796875 26.976562 29.476562 26.378906 C 28.863281 26.058594 27.957031 25.316406 26.761719 24.15625 Z M 26.761719 24.15625 " fill-opacity="1" fill-rule="nonzero"/></g><path fill="#efc88d" d="M 16.433594 27.578125 L 16.4375 27.578125 C 16.441406 27.578125 16.445312 27.578125 16.453125 27.582031 L 16.433594 27.578125 " fill-opacity="1" fill-rule="nonzero"/><g clip-path="url(#5bfe5d4938)"><path fill="#efc88d" d="M 32.128906 27.007812 L 32.128906 27.042969 C 32.132812 27.164062 32.117188 27.28125 32.078125 27.394531 C 32.042969 27.484375 32.011719 27.546875 31.988281 27.585938 C 31.957031 27.636719 31.925781 27.683594 31.886719 27.726562 C 31.734375 27.90625 31.539062 28.019531 31.304688 28.070312 L 31.496094 28.019531 L 31.664062 27.953125 L 31.808594 27.871094 L 31.925781 27.769531 L 32.019531 27.652344 L 32.085938 27.515625 L 32.125 27.363281 L 32.140625 27.195312 L 32.128906 27.007812 " fill-opacity="1" fill-rule="nonzero"/></g><g clip-path="url(#ef2802ce94)"><g clip-path="url(#cd646b1485)"><path fill="#efc88d" d="M 4.128906 27.65625 L 33.308594 27.65625 L 33.308594 37.5 L 4.128906 37.5 Z M 4.128906 27.65625 " fill-opacity="1" fill-rule="nonzero"/></g></g><g clip-path="url(#e794e9a4e4)"><g clip-path="url(#4b7ccfe587)"><path stroke-linecap="butt" transform="matrix(0.750545, 0, 0, 0.75, 2.636719, 0)" fill="none" stroke-linejoin="miter" d="M 21.484377 0 L 42.968754 12.500002 L 42.968754 37.500005 L 21.484377 50.000006 L -0.000000110562 37.500005 L -0.000000110562 12.500002 L 21.484377 0 " stroke="#bb8b44" stroke-width="4" stroke-opacity="1" stroke-miterlimit="4"/></g></g><g clip-path="url(#ecf9c0fd87)"><path fill="#bb8b44" d="M 18.867188 13.089844 C 20.339844 13.089844 21.539062 11.894531 21.539062 10.425781 C 21.539062 8.953125 20.339844 7.757812 18.867188 7.757812 C 17.394531 7.757812 16.195312 8.953125 16.195312 10.421875 C 16.195312 11.890625 17.394531 13.089844 18.867188 13.089844 Z M 18.867188 7.96875 C 20.222656 7.96875 21.328125 9.066406 21.328125 10.421875 C 21.328125 11.777344 20.222656 12.875 18.867188 12.875 C 17.511719 12.875 16.40625 11.777344 16.40625 10.421875 C 16.40625 9.066406 17.511719 7.96875 18.867188 7.96875 Z M 18.867188 7.96875 " fill-opacity="1" fill-rule="nonzero"/></g><g clip-path="url(#35362c90d9)"><path fill="#bb8b44" d="M 22.292969 10.320312 L 31.226562 10.320312 L 31.226562 10.53125 L 22.292969 10.53125 Z M 22.292969 10.320312 " fill-opacity="1" fill-rule="nonzero"/></g><g clip-path="url(#fc7f411803)"><path fill="#bb8b44" d="M 6.507812 10.320312 L 15.441406 10.320312 L 15.441406 10.53125 L 6.507812 10.53125 Z M 6.507812 10.320312 " fill-opacity="1" fill-rule="nonzero"/></g><g clip-path="url(#fa5096f393)"><path fill="#bb8b44" d="M 18.761719 13.839844 L 18.972656 13.839844 L 18.972656 22.753906 L 18.761719 22.753906 Z M 18.761719 13.839844 " fill-opacity="1" fill-rule="nonzero"/></g><path fill="#bb8b44" d="M 21.210938 12.914062 L 21.363281 12.765625 L 26.375 17.765625 L 26.222656 17.914062 Z M 21.210938 12.914062 " fill-opacity="1" fill-rule="nonzero"/><path fill="#bb8b44" d="M 11.363281 17.761719 L 16.371094 12.765625 L 16.523438 12.914062 L 11.511719 17.914062 Z M 11.363281 17.761719 " fill-opacity="1" fill-rule="nonzero"/><path fill="#bb8b44" d="M 21.15625 16.136719 L 21.351562 16.054688 L 22.386719 18.523438 L 22.191406 18.605469 Z M 21.15625 16.136719 " fill-opacity="1" fill-rule="nonzero"/><path fill="#bb8b44" d="M 20.09375 13.613281 L 20.289062 13.53125 L 21 15.21875 L 20.804688 15.300781 Z M 20.09375 13.613281 " fill-opacity="1" fill-rule="nonzero"/><path fill="#bb8b44" d="M 24.535156 12.851562 L 24.613281 12.652344 L 27.097656 13.667969 L 27.019531 13.863281 Z M 24.535156 12.851562 " fill-opacity="1" fill-rule="nonzero"/><path fill="#bb8b44" d="M 21.996094 11.816406 L 22.078125 11.621094 L 23.769531 12.308594 L 23.691406 12.507812 Z M 21.996094 11.816406 " fill-opacity="1" fill-rule="nonzero"/><path fill="#bb8b44" d="M 15.421875 18.554688 L 16.4375 16.078125 L 16.632812 16.15625 L 15.617188 18.636719 Z M 15.421875 18.554688 " fill-opacity="1" fill-rule="nonzero"/><path fill="#bb8b44" d="M 16.78125 15.234375 L 17.476562 13.542969 L 17.671875 13.625 L 16.976562 15.316406 Z M 16.78125 15.234375 " fill-opacity="1" fill-rule="nonzero"/><path fill="#bb8b44" d="M 10.664062 13.742188 L 13.140625 12.707031 L 13.222656 12.902344 L 10.746094 13.9375 Z M 10.664062 13.742188 " fill-opacity="1" fill-rule="nonzero"/><path fill="#bb8b44" d="M 13.980469 12.355469 L 15.667969 11.648438 L 15.75 11.84375 L 14.0625 12.550781 Z M 13.980469 12.355469 " fill-opacity="1" fill-rule="nonzero"/><g clip-path="url(#144dca3fdc)"><g clip-path="url(#8afba94671)"><g clip-path="url(#3a3fae7340)"><path fill="#bb8b44" d="M 30.558594 28.9375 L 30.246094 27.46875 L 34.0625 27.425781 Z M 30.558594 28.9375 " fill-opacity="1" fill-rule="nonzero"/></g></g></g></svg>