<svg xmlns="http://www.w3.org/2000/svg" xmlns:xlink="http://www.w3.org/1999/xlink" width="50" zoomAndPan="magnify" viewBox="0 0 37.5 37.499999" height="50" preserveAspectRatio="xMidYMid meet" version="1.0"><defs><clipPath id="82f23ac700"><path d="M 4.128906 1.738281 L 33.371094 1.738281 L 33.371094 35.761719 L 4.128906 35.761719 Z M 4.128906 1.738281 " clip-rule="nonzero"/></clipPath><clipPath id="3e2c0b2751"><path d="M 18.75 1.738281 L 33.371094 10.242188 L 33.371094 27.257812 L 18.75 35.761719 L 4.128906 27.257812 L 4.128906 10.242188 L 18.75 1.738281 " clip-rule="nonzero"/></clipPath><clipPath id="8e392f5232"><path d="M 2.90625 21.742188 L 26 21.742188 L 26 28.492188 L 2.90625 28.492188 Z M 2.90625 21.742188 " clip-rule="nonzero"/></clipPath><clipPath id="07b45b1a1a"><path d="M 16 24 L 34.40625 24 L 34.40625 28.492188 L 16 28.492188 Z M 16 24 " clip-rule="nonzero"/></clipPath><clipPath id="a230ef7088"><path d="M 2.90625 21.742188 L 26 21.742188 L 26 28.492188 L 2.90625 28.492188 Z M 2.90625 21.742188 " clip-rule="nonzero"/></clipPath><clipPath id="297531f547"><path d="M 16 24 L 32 24 L 32 28.492188 L 16 28.492188 Z M 16 24 " clip-rule="nonzero"/></clipPath><clipPath id="0f5777948d"><path d="M 31 27 L 33 27 L 33 28.492188 L 31 28.492188 Z M 31 27 " clip-rule="nonzero"/></clipPath><clipPath id="a55333a5b9"><path d="M 4.128906 27.65625 L 33.484375 27.65625 L 33.484375 37.007812 L 4.128906 37.007812 Z M 4.128906 27.65625 " clip-rule="nonzero"/></clipPath><clipPath id="122c4c37e6"><path d="M 18.75 37.5 L 33.371094 27.65625 L 4.128906 27.65625 L 18.75 37.5 " clip-rule="nonzero"/></clipPath><clipPath id="0f57fad0b8"><path d="M 2.636719 0 L 34.886719 0 L 34.886719 37.007812 L 2.636719 37.007812 Z M 2.636719 0 " clip-rule="nonzero"/></clipPath><clipPath id="ca612f02bd"><path d="M 18.761719 0 L 34.886719 9.375 L 34.886719 28.125 L 18.761719 37.5 L 2.636719 28.125 L 2.636719 9.375 L 18.761719 0 " clip-rule="nonzero"/></clipPath><clipPath id="e57e8160b2"><path d="M 16 7.757812 L 22 7.757812 L 22 14 L 16 14 Z M 16 7.757812 " clip-rule="nonzero"/></clipPath><clipPath id="209c855f7c"><path d="M 22 10 L 31.242188 10 L 31.242188 11 L 22 11 Z M 22 10 " clip-rule="nonzero"/></clipPath><clipPath id="eb3f0bbb6f"><path d="M 6.492188 10 L 16 10 L 16 11 L 6.492188 11 Z M 6.492188 10 " clip-rule="nonzero"/></clipPath><clipPath id="75677a346f"><path d="M 18 13 L 19 13 L 19 22.757812 L 18 22.757812 Z M 18 13 " clip-rule="nonzero"/></clipPath><clipPath id="f66a35fb3e"><path d="M 30 27 L 35 27 L 35 29 L 30 29 Z M 30 27 " clip-rule="nonzero"/></clipPath><clipPath id="5899df3ec5"><path d="M 30.242188 27.46875 L 33.910156 26.691406 L 34.222656 28.160156 L 30.554688 28.9375 Z M 30.242188 27.46875 " clip-rule="nonzero"/></clipPath><clipPath id="38ae69bb57"><path d="M 30.242188 27.46875 L 33.910156 26.691406 L 34.222656 28.160156 L 30.554688 28.9375 Z M 30.242188 27.46875 " clip-rule="nonzero"/></clipPath><clipPath id="621249a289"><path d="M 13.125 5.035156 L 24.375 5.035156 L 24.375 16.285156 L 13.125 16.285156 Z M 13.125 5.035156 " clip-rule="nonzero"/></clipPath><clipPath id="38b6a16404"><path d="M 18.75 5.035156 C 15.644531 5.035156 13.125 7.554688 13.125 10.660156 C 13.125 13.769531 15.644531 16.285156 18.75 16.285156 C 21.855469 16.285156 24.375 13.769531 24.375 10.660156 C 24.375 7.554688 21.855469 5.035156 18.75 5.035156 " clip-rule="nonzero"/></clipPath><clipPath id="17ca104689"><path d="M 13.835938 5.75 L 23.789062 5.75 L 23.789062 15.699219 L 13.835938 15.699219 Z M 13.835938 5.75 " clip-rule="nonzero"/></clipPath><clipPath id="b03b8d5da7"><path d="M 18.75 5.75 C 16.035156 5.75 13.835938 7.949219 13.835938 10.660156 C 13.835938 13.375 16.035156 15.574219 18.75 15.574219 C 21.464844 15.574219 23.664062 13.375 23.664062 10.660156 C 23.664062 7.949219 21.464844 5.75 18.75 5.75 " clip-rule="nonzero"/></clipPath><clipPath id="23053a70a2"><path d="M 15.097656 7.109375 L 22.316406 7.109375 L 22.316406 11 L 15.097656 11 Z M 15.097656 7.109375 " clip-rule="nonzero"/></clipPath><clipPath id="0b9974d94c"><path d="M 15.097656 11 L 21 11 L 21 14.121094 L 15.097656 14.121094 Z M 15.097656 11 " clip-rule="nonzero"/></clipPath></defs><g clip-path="url(#82f23ac700)"><g clip-path="url(#3e2c0b2751)"><path fill="#edba6e" d="M 4.128906 1.738281 L 33.371094 1.738281 L 33.371094 35.761719 L 4.128906 35.761719 Z M 4.128906 1.738281 " fill-opacity="1" fill-rule="nonzero"/></g></g><g clip-path="url(#8e392f5232)"><path fill="#bb8b44" d="M 14.144531 21.746094 L 13.800781 21.761719 C 13.332031 21.804688 12.8125 21.929688 12.246094 22.140625 C 11.855469 22.246094 11.0625 22.640625 9.871094 23.324219 C 8.558594 24.082031 6.234375 25.765625 2.90625 28.375 L 10.808594 28.492188 L 25.796875 28.492188 C 23.984375 27.390625 22.59375 26.523438 21.621094 25.890625 C 20.964844 25.492188 19.558594 24.515625 17.394531 22.960938 C 17.148438 22.796875 16.90625 22.648438 16.667969 22.511719 C 16.285156 22.277344 15.8125 22.070312 15.25 21.890625 C 14.976562 21.800781 14.605469 21.75 14.144531 21.746094 Z M 14.144531 21.746094 " fill-opacity="1" fill-rule="nonzero"/></g><g clip-path="url(#07b45b1a1a)"><path fill="#bb8b44" d="M 26.867188 24.15625 L 26.816406 24.15625 C 26.3125 24.144531 25.597656 24.308594 24.679688 24.65625 C 24.269531 24.824219 23.785156 25.050781 23.21875 25.324219 C 21.628906 26.171875 20.652344 26.679688 20.292969 26.847656 C 19.804688 27.070312 19.421875 27.222656 19.144531 27.308594 C 18.316406 27.585938 17.410156 27.675781 16.429688 27.578125 L 24.085938 28.492188 L 34.40625 28.492188 L 31.175781 26.382812 C 30.6875 25.917969 30.023438 25.40625 29.1875 24.851562 C 28.660156 24.570312 28.316406 24.40625 28.148438 24.359375 C 27.6875 24.21875 27.261719 24.152344 26.867188 24.15625 Z M 26.867188 24.15625 " fill-opacity="1" fill-rule="nonzero"/></g><g clip-path="url(#a230ef7088)"><path fill="#efc88d" d="M 14.171875 21.746094 L 14.144531 21.746094 C 13.183594 21.839844 12.46875 21.992188 11.988281 22.207031 C 11.5625 22.382812 10.699219 22.851562 9.394531 23.609375 C 7.5 24.871094 5.335938 26.457031 2.90625 28.375 L 10.808594 28.492188 L 25.796875 28.492188 C 24.183594 27.511719 22.867188 26.691406 21.851562 26.039062 L 21.1875 26.585938 L 20.484375 26.957031 C 20.40625 27 20.324219 27.027344 20.238281 27.046875 C 20 27.089844 19.777344 27.089844 19.5625 27.050781 L 19.273438 26.960938 L 18.8125 26.738281 C 18.605469 26.601562 18.453125 26.410156 18.359375 26.15625 C 18.132812 25.984375 17.976562 25.84375 17.894531 25.734375 C 17.632812 25.703125 17.292969 25.5 16.878906 25.125 C 16.679688 24.886719 16.351562 24.417969 15.882812 23.71875 L 14.726562 22.523438 C 14.660156 22.457031 14.644531 22.207031 14.675781 21.777344 Z M 14.171875 21.746094 " fill-opacity="1" fill-rule="nonzero"/></g><path fill="#efc88d" d="M 29.519531 26.410156 L 29.574219 26.457031 L 29.632812 26.496094 L 29.695312 26.53125 L 29.757812 26.5625 L 29.824219 26.589844 L 29.890625 26.609375 L 29.960938 26.621094 L 30.035156 26.632812 L 30.113281 26.636719 L 30.113281 26.628906 L 30.070312 26.628906 C 30.039062 26.625 30.007812 26.621094 29.980469 26.613281 C 29.921875 26.601562 29.863281 26.585938 29.804688 26.566406 C 29.777344 26.554688 29.75 26.542969 29.722656 26.53125 L 29.683594 26.511719 C 29.632812 26.480469 29.578125 26.449219 29.519531 26.410156 " fill-opacity="1" fill-rule="nonzero"/><g clip-path="url(#297531f547)"><path fill="#efc88d" d="M 26.761719 24.15625 L 26.585938 24.164062 C 26.304688 24.191406 25.929688 24.265625 25.457031 24.382812 C 25.089844 24.484375 24.597656 24.675781 23.972656 24.953125 C 23.835938 25.007812 23.128906 25.367188 21.855469 26.035156 C 21.761719 26.085938 21.542969 26.265625 21.203125 26.578125 C 20.726562 26.792969 20.492188 26.914062 20.503906 26.949219 C 20.398438 27 20.335938 27.023438 20.3125 27.027344 C 20.179688 27.070312 19.996094 27.085938 19.753906 27.074219 C 19.0625 27.351562 18.566406 27.503906 18.257812 27.535156 C 17.574219 27.628906 16.980469 27.644531 16.472656 27.582031 L 24.085938 28.492188 L 31.710938 28.492188 L 31.523438 28.355469 C 30.839844 28.089844 30.480469 27.929688 30.445312 27.882812 C 30.117188 27.476562 29.796875 26.976562 29.476562 26.378906 C 28.863281 26.058594 27.957031 25.316406 26.761719 24.15625 Z M 26.761719 24.15625 " fill-opacity="1" fill-rule="nonzero"/></g><path fill="#efc88d" d="M 16.433594 27.578125 L 16.4375 27.578125 C 16.441406 27.578125 16.445312 27.578125 16.453125 27.582031 L 16.433594 27.578125 " fill-opacity="1" fill-rule="nonzero"/><g clip-path="url(#0f5777948d)"><path fill="#efc88d" d="M 32.128906 27.007812 L 32.128906 27.042969 C 32.132812 27.164062 32.117188 27.28125 32.078125 27.394531 C 32.042969 27.484375 32.011719 27.546875 31.988281 27.585938 C 31.957031 27.636719 31.925781 27.683594 31.886719 27.726562 C 31.734375 27.90625 31.539062 28.019531 31.304688 28.070312 L 31.496094 28.019531 L 31.664062 27.953125 L 31.808594 27.871094 L 31.925781 27.769531 L 32.019531 27.652344 L 32.085938 27.515625 L 32.125 27.363281 L 32.140625 27.195312 L 32.128906 27.007812 " fill-opacity="1" fill-rule="nonzero"/></g><g clip-path="url(#a55333a5b9)"><g clip-path="url(#122c4c37e6)"><path fill="#efc88d" d="M 4.128906 27.65625 L 33.308594 27.65625 L 33.308594 37.5 L 4.128906 37.5 Z M 4.128906 27.65625 " fill-opacity="1" fill-rule="nonzero"/></g></g><g clip-path="url(#0f57fad0b8)"><g clip-path="url(#ca612f02bd)"><path stroke-linecap="butt" transform="matrix(0.750545, 0, 0, 0.75, 2.636719, 0)" fill="none" stroke-linejoin="miter" d="M 21.484377 0 L 42.968754 12.500002 L 42.968754 37.500005 L 21.484377 50.000006 L -0.000000110562 37.500005 L -0.000000110562 12.500002 L 21.484377 0 " stroke="#bb8b44" stroke-width="4" stroke-opacity="1" stroke-miterlimit="4"/></g></g><g clip-path="url(#e57e8160b2)"><path fill="#bb8b44" d="M 18.867188 13.089844 C 20.339844 13.089844 21.539062 11.894531 21.539062 10.425781 C 21.539062 8.953125 20.339844 7.757812 18.867188 7.757812 C 17.394531 7.757812 16.195312 8.953125 16.195312 10.421875 C 16.195312 11.890625 17.394531 13.089844 18.867188 13.089844 Z M 18.867188 7.96875 C 20.222656 7.96875 21.328125 9.066406 21.328125 10.421875 C 21.328125 11.777344 20.222656 12.875 18.867188 12.875 C 17.511719 12.875 16.40625 11.777344 16.40625 10.421875 C 16.40625 9.066406 17.511719 7.96875 18.867188 7.96875 Z M 18.867188 7.96875 " fill-opacity="1" fill-rule="nonzero"/></g><g clip-path="url(#209c855f7c)"><path fill="#bb8b44" d="M 22.292969 10.320312 L 31.226562 10.320312 L 31.226562 10.53125 L 22.292969 10.53125 Z M 22.292969 10.320312 " fill-opacity="1" fill-rule="nonzero"/></g><g clip-path="url(#eb3f0bbb6f)"><path fill="#bb8b44" d="M 6.507812 10.320312 L 15.441406 10.320312 L 15.441406 10.53125 L 6.507812 10.53125 Z M 6.507812 10.320312 " fill-opacity="1" fill-rule="nonzero"/></g><g clip-path="url(#75677a346f)"><path fill="#bb8b44" d="M 18.761719 13.839844 L 18.972656 13.839844 L 18.972656 22.753906 L 18.761719 22.753906 Z M 18.761719 13.839844 " fill-opacity="1" fill-rule="nonzero"/></g><path fill="#bb8b44" d="M 21.210938 12.914062 L 21.363281 12.765625 L 26.375 17.765625 L 26.222656 17.914062 Z M 21.210938 12.914062 " fill-opacity="1" fill-rule="nonzero"/><path fill="#bb8b44" d="M 11.363281 17.761719 L 16.371094 12.765625 L 16.523438 12.914062 L 11.511719 17.914062 Z M 11.363281 17.761719 " fill-opacity="1" fill-rule="nonzero"/><path fill="#bb8b44" d="M 21.15625 16.136719 L 21.351562 16.054688 L 22.386719 18.523438 L 22.191406 18.605469 Z M 21.15625 16.136719 " fill-opacity="1" fill-rule="nonzero"/><path fill="#bb8b44" d="M 20.09375 13.613281 L 20.289062 13.53125 L 21 15.21875 L 20.804688 15.300781 Z M 20.09375 13.613281 " fill-opacity="1" fill-rule="nonzero"/><path fill="#bb8b44" d="M 24.535156 12.851562 L 24.613281 12.652344 L 27.097656 13.667969 L 27.019531 13.863281 Z M 24.535156 12.851562 " fill-opacity="1" fill-rule="nonzero"/><path fill="#bb8b44" d="M 21.996094 11.816406 L 22.078125 11.621094 L 23.769531 12.308594 L 23.691406 12.507812 Z M 21.996094 11.816406 " fill-opacity="1" fill-rule="nonzero"/><path fill="#bb8b44" d="M 15.421875 18.554688 L 16.4375 16.078125 L 16.632812 16.15625 L 15.617188 18.636719 Z M 15.421875 18.554688 " fill-opacity="1" fill-rule="nonzero"/><path fill="#bb8b44" d="M 16.78125 15.234375 L 17.476562 13.542969 L 17.671875 13.625 L 16.976562 15.316406 Z M 16.78125 15.234375 " fill-opacity="1" fill-rule="nonzero"/><path fill="#bb8b44" d="M 10.664062 13.742188 L 13.140625 12.707031 L 13.222656 12.902344 L 10.746094 13.9375 Z M 10.664062 13.742188 " fill-opacity="1" fill-rule="nonzero"/><path fill="#bb8b44" d="M 13.980469 12.355469 L 15.667969 11.648438 L 15.75 11.84375 L 14.0625 12.550781 Z M 13.980469 12.355469 " fill-opacity="1" fill-rule="nonzero"/><g clip-path="url(#f66a35fb3e)"><g clip-path="url(#5899df3ec5)"><g clip-path="url(#38ae69bb57)"><path fill="#bb8b44" d="M 30.558594 28.9375 L 30.246094 27.46875 L 34.0625 27.425781 Z M 30.558594 28.9375 " fill-opacity="1" fill-rule="nonzero"/></g></g></g><g clip-path="url(#621249a289)"><g clip-path="url(#38b6a16404)"><path fill="#ffebce" d="M 13.125 5.035156 L 24.375 5.035156 L 24.375 16.285156 L 13.125 16.285156 Z M 13.125 5.035156 " fill-opacity="1" fill-rule="nonzero"/><path stroke-linecap="butt" transform="matrix(0.75, 0, 0, 0.75, 13.124999, 5.036653)" fill="none" stroke-linejoin="miter" d="M 7.500002 -0.00199545 C 3.359377 -0.00199545 0.00000137127 3.35738 0.00000137127 7.498005 C 0.00000137127 11.643839 3.359377 14.998006 7.500002 14.998006 C 11.640628 14.998006 15.000003 11.643839 15.000003 7.498005 C 15.000003 3.35738 11.640628 -0.00199545 7.500002 -0.00199545 " stroke="#bb8b44" stroke-width="2" stroke-opacity="1" stroke-miterlimit="4"/></g></g><g clip-path="url(#17ca104689)"><g clip-path="url(#b03b8d5da7)"><path fill="#ffebce" d="M 13.835938 5.75 L 23.636719 5.75 L 23.636719 15.546875 L 13.835938 15.546875 Z M 13.835938 5.75 " fill-opacity="1" fill-rule="nonzero"/></g></g><g clip-path="url(#23053a70a2)"><path fill="#000000" d="M 22.265625 9.050781 C 22.226562 9.007812 22.171875 8.984375 22.117188 8.984375 L 20.332031 8.984375 C 20.308594 8.910156 20.261719 8.742188 20.195312 8.542969 C 19.945312 7.785156 19.714844 7.34375 19.515625 7.230469 C 19.304688 7.113281 19.140625 7.171875 18.953125 7.242188 C 18.9375 7.246094 18.925781 7.25 18.910156 7.253906 C 18.855469 7.273438 18.746094 7.3125 18.707031 7.328125 C 18.65625 7.3125 18.609375 7.300781 18.566406 7.285156 C 18.296875 7.207031 18.066406 7.136719 17.898438 7.230469 C 17.699219 7.34375 17.46875 7.785156 17.21875 8.542969 C 17.152344 8.742188 17.105469 8.910156 17.085938 8.984375 L 15.296875 8.984375 C 15.242188 8.984375 15.1875 9.007812 15.152344 9.050781 C 15.113281 9.09375 15.097656 9.148438 15.105469 9.203125 C 15.125 9.339844 15.191406 9.453125 15.304688 9.527344 C 15.53125 9.679688 16.761719 10.101562 18.707031 10.101562 C 20.652344 10.101562 21.882812 9.679688 22.113281 9.527344 C 22.222656 9.453125 22.289062 9.339844 22.308594 9.203125 C 22.316406 9.148438 22.300781 9.09375 22.265625 9.050781 Z M 18.378906 8.9375 C 18.425781 8.796875 18.554688 8.699219 18.707031 8.699219 C 18.859375 8.699219 18.988281 8.796875 19.035156 8.9375 C 19.046875 8.972656 19.050781 9.007812 19.050781 9.042969 C 19.050781 9.140625 19.007812 9.234375 18.933594 9.300781 C 18.871094 9.355469 18.789062 9.382812 18.707031 9.382812 C 18.625 9.382812 18.542969 9.355469 18.480469 9.300781 C 18.40625 9.234375 18.363281 9.140625 18.363281 9.042969 C 18.363281 9.007812 18.371094 8.972656 18.378906 8.9375 Z M 20.050781 9.136719 Z M 19.101562 9.277344 C 19.140625 9.207031 19.164062 9.125 19.164062 9.042969 C 19.164062 9.015625 19.164062 8.992188 19.160156 8.972656 C 19.371094 8.945312 19.585938 8.898438 19.796875 8.835938 C 19.796875 8.875 19.804688 8.910156 19.816406 8.949219 C 19.839844 9.015625 19.875 9.070312 19.921875 9.117188 C 19.71875 9.179688 19.441406 9.246094 19.101562 9.277344 Z M 19.859375 8.757812 L 19.886719 8.761719 Z M 17.554688 8.757812 L 17.527344 8.761719 Z M 17.597656 8.949219 C 17.609375 8.910156 17.617188 8.875 17.617188 8.835938 C 17.828125 8.898438 18.042969 8.945312 18.253906 8.972656 C 18.25 8.992188 18.25 9.015625 18.25 9.042969 C 18.25 9.125 18.273438 9.207031 18.316406 9.277344 C 17.972656 9.246094 17.695312 9.179688 17.492188 9.117188 C 17.539062 9.070312 17.578125 9.015625 17.597656 8.949219 Z M 17.363281 9.136719 Z M 20.21875 9.007812 C 20.183594 9.023438 20.128906 9.046875 20.054688 9.074219 C 19.996094 9.042969 19.949219 8.984375 19.925781 8.914062 C 19.910156 8.863281 19.90625 8.816406 19.914062 8.769531 C 19.929688 8.691406 19.976562 8.636719 20.035156 8.617188 C 20.054688 8.609375 20.074219 8.609375 20.097656 8.609375 C 20.15625 8.789062 20.199219 8.9375 20.21875 9.007812 Z M 17.316406 8.609375 C 17.339844 8.609375 17.359375 8.609375 17.378906 8.617188 C 17.441406 8.636719 17.484375 8.691406 17.5 8.769531 C 17.507812 8.816406 17.503906 8.863281 17.488281 8.914062 C 17.464844 8.984375 17.417969 9.042969 17.359375 9.074219 C 17.285156 9.046875 17.230469 9.023438 17.195312 9.007812 C 17.214844 8.9375 17.257812 8.789062 17.316406 8.609375 Z M 22.195312 9.1875 C 22.183594 9.292969 22.132812 9.375 22.046875 9.429688 C 21.835938 9.574219 20.601562 9.988281 18.707031 9.988281 C 16.8125 9.988281 15.578125 9.574219 15.367188 9.429688 C 15.28125 9.375 15.234375 9.292969 15.21875 9.1875 C 15.214844 9.164062 15.222656 9.144531 15.238281 9.125 C 15.253906 9.109375 15.273438 9.097656 15.296875 9.097656 L 15.441406 9.097656 C 15.730469 9.554688 16.800781 9.777344 18.707031 9.777344 C 20.613281 9.777344 21.683594 9.554688 21.972656 9.097656 L 22.117188 9.097656 C 22.140625 9.097656 22.164062 9.109375 22.175781 9.125 C 22.191406 9.144531 22.199219 9.164062 22.195312 9.1875 Z M 22.195312 9.1875 " fill-opacity="1" fill-rule="nonzero"/></g><path fill="#000000" d="M 17.789062 10.949219 C 17.828125 10.960938 17.867188 10.964844 17.90625 10.964844 C 18.199219 10.964844 18.375 10.699219 18.382812 10.6875 C 18.394531 10.671875 18.394531 10.65625 18.390625 10.636719 C 18.386719 10.621094 18.371094 10.609375 18.355469 10.601562 L 17.460938 10.25 C 17.441406 10.242188 17.421875 10.242188 17.402344 10.253906 C 17.386719 10.265625 17.378906 10.285156 17.378906 10.304688 C 17.382812 10.328125 17.421875 10.867188 17.789062 10.949219 Z M 17.789062 10.949219 " fill-opacity="1" fill-rule="nonzero"/><path fill="#000000" d="M 19.511719 10.964844 C 19.546875 10.964844 19.585938 10.960938 19.625 10.949219 C 19.992188 10.867188 20.03125 10.328125 20.035156 10.304688 C 20.035156 10.285156 20.027344 10.265625 20.011719 10.253906 C 19.996094 10.242188 19.972656 10.242188 19.957031 10.25 L 19.058594 10.601562 C 19.042969 10.609375 19.03125 10.621094 19.023438 10.636719 C 19.019531 10.65625 19.023438 10.671875 19.03125 10.6875 C 19.039062 10.699219 19.214844 10.964844 19.511719 10.964844 Z M 19.511719 10.964844 " fill-opacity="1" fill-rule="nonzero"/><g clip-path="url(#0b9974d94c)"><path fill="#000000" d="M 20.511719 11.800781 C 20.5 11.765625 20.496094 11.734375 20.492188 11.707031 C 20.488281 11.644531 20.503906 11.601562 20.523438 11.554688 C 20.542969 11.5 20.5625 11.441406 20.550781 11.359375 C 20.53125 11.203125 20.363281 11.117188 20.21875 11.117188 L 17.199219 11.117188 C 17.070312 11.117188 16.929688 11.179688 16.878906 11.296875 C 16.328125 11.132812 15.851562 11.332031 15.457031 11.878906 C 15.445312 11.894531 15.445312 11.914062 15.449219 11.929688 C 15.453125 11.945312 15.464844 11.960938 15.480469 11.964844 C 15.742188 12.070312 15.980469 12.121094 16.195312 12.121094 C 16.207031 12.121094 16.222656 12.121094 16.234375 12.121094 C 16.117188 12.296875 16.039062 12.519531 16.003906 12.785156 C 16 12.804688 16.007812 12.820312 16.015625 12.832031 C 16.027344 12.84375 16.042969 12.851562 16.058594 12.851562 C 16.0625 12.851562 16.0625 12.851562 16.0625 12.851562 C 16.558594 12.84375 16.894531 12.699219 17.0625 12.429688 L 18.664062 14.101562 C 18.675781 14.113281 18.691406 14.117188 18.707031 14.117188 C 18.722656 14.117188 18.738281 14.113281 18.75 14.101562 L 20.523438 12.25 C 20.605469 12.164062 20.625 12.039062 20.570312 11.933594 C 20.546875 11.882812 20.527344 11.839844 20.511719 11.800781 Z M 20.378906 11.71875 C 20.378906 11.742188 20.386719 11.769531 20.394531 11.800781 L 18.707031 13.308594 L 17.019531 11.800781 C 17.027344 11.769531 17.035156 11.742188 17.035156 11.71875 C 17.042969 11.632812 17.023438 11.574219 17.003906 11.519531 L 18.667969 13.035156 C 18.679688 13.042969 18.695312 13.046875 18.707031 13.046875 C 18.722656 13.046875 18.734375 13.042969 18.746094 13.035156 L 20.410156 11.519531 C 20.394531 11.574219 20.371094 11.632812 20.378906 11.71875 Z M 15.59375 11.886719 C 15.953125 11.417969 16.367188 11.257812 16.859375 11.410156 C 16.859375 11.4375 16.863281 11.460938 16.871094 11.488281 L 16.152344 11.695312 C 16.121094 11.707031 16.105469 11.738281 16.113281 11.765625 C 16.121094 11.792969 16.144531 11.808594 16.167969 11.808594 C 16.171875 11.808594 16.179688 11.808594 16.183594 11.804688 L 16.90625 11.597656 C 16.917969 11.625 16.921875 11.652344 16.921875 11.6875 C 16.761719 11.867188 16.570312 11.964844 16.347656 12 C 16.128906 12.027344 15.878906 11.992188 15.59375 11.886719 Z M 16.128906 12.734375 C 16.171875 12.476562 16.257812 12.265625 16.386719 12.109375 C 16.558594 12.078125 16.71875 12.011719 16.859375 11.902344 C 16.851562 11.914062 16.847656 11.921875 16.84375 11.933594 C 16.816406 11.988281 16.808594 12.054688 16.820312 12.117188 L 16.4375 12.421875 C 16.414062 12.441406 16.410156 12.476562 16.429688 12.5 C 16.441406 12.515625 16.457031 12.523438 16.472656 12.523438 C 16.484375 12.523438 16.5 12.519531 16.507812 12.511719 L 16.867188 12.222656 C 16.875 12.234375 16.882812 12.242188 16.890625 12.25 L 16.980469 12.34375 C 16.84375 12.585938 16.5625 12.714844 16.128906 12.734375 Z M 16.128906 12.734375 " fill-opacity="1" fill-rule="nonzero"/></g><path stroke-linecap="butt" transform="matrix(0.000000000000000013, 0.211959, -0.206282, 0.000000000000000013, 20.48082, 9.959005)" fill="none" stroke-linejoin="miter" d="M 0.00911965 0.494053 L 6.809509 0.494053 " stroke="#000000" stroke-width="1" stroke-opacity="1" stroke-miterlimit="4"/><path stroke-linecap="butt" transform="matrix(0.000000000000000013, 0.211959, -0.206282, 0.000000000000000013, 17.180309, 9.998606)" fill="none" stroke-linejoin="miter" d="M 0.0065771 0.495361 L 6.806966 0.495361 " stroke="#000000" stroke-width="1" stroke-opacity="1" stroke-miterlimit="4"/></svg>