<svg xmlns="http://www.w3.org/2000/svg" xmlns:xlink="http://www.w3.org/1999/xlink" width="50" zoomAndPan="magnify" viewBox="0 0 37.5 37.499999" height="50" preserveAspectRatio="xMidYMid meet" version="1.0"><defs><clipPath id="9db0c7822c"><path d="M 2.636719 0 L 34.863281 0 L 34.863281 37.007812 L 2.636719 37.007812 Z M 2.636719 0 " clip-rule="nonzero"/></clipPath><clipPath id="a981aac72b"><path d="M 18.75 0 L 34.863281 9.375 L 34.863281 28.125 L 18.75 37.5 L 2.636719 28.125 L 2.636719 9.375 L 18.75 0 " clip-rule="nonzero"/></clipPath><clipPath id="13e6cff6ac"><path d="M 2.636719 0 L 34.886719 0 L 34.886719 37.007812 L 2.636719 37.007812 Z M 2.636719 0 " clip-rule="nonzero"/></clipPath><clipPath id="912f36e099"><path d="M 18.761719 0 L 34.886719 9.375 L 34.886719 28.125 L 18.761719 37.5 L 2.636719 28.125 L 2.636719 9.375 L 18.761719 0 " clip-rule="nonzero"/></clipPath><clipPath id="5d04eb54ed"><path d="M 4.128906 1.738281 L 33.371094 1.738281 L 33.371094 35.761719 L 4.128906 35.761719 Z M 4.128906 1.738281 " clip-rule="nonzero"/></clipPath><clipPath id="7e13ac28a5"><path d="M 18.75 1.738281 L 33.371094 10.242188 L 33.371094 27.257812 L 18.75 35.761719 L 4.128906 27.257812 L 4.128906 10.242188 L 18.75 1.738281 " clip-rule="nonzero"/></clipPath><clipPath id="46839451df"><path d="M 13.125 5.035156 L 24.375 5.035156 L 24.375 16.285156 L 13.125 16.285156 Z M 13.125 5.035156 " clip-rule="nonzero"/></clipPath><clipPath id="c1440a5430"><path d="M 18.75 5.035156 C 15.644531 5.035156 13.125 7.554688 13.125 10.660156 C 13.125 13.769531 15.644531 16.285156 18.75 16.285156 C 21.855469 16.285156 24.375 13.769531 24.375 10.660156 C 24.375 7.554688 21.855469 5.035156 18.75 5.035156 " clip-rule="nonzero"/></clipPath><clipPath id="35be5f605b"><path d="M 11.25 17.375 L 26 17.375 L 26 31.625 L 11.25 31.625 Z M 11.25 17.375 " clip-rule="nonzero"/></clipPath><clipPath id="8e4956f9c5"><path d="M 12 17.375 L 26 17.375 L 26 31 L 12 31 Z M 12 17.375 " clip-rule="nonzero"/></clipPath></defs><g clip-path="url(#9db0c7822c)"><g clip-path="url(#a981aac72b)"><path fill="#ffffff" d="M 2.636719 0 L 34.863281 0 L 34.863281 37.5 L 2.636719 37.5 Z M 2.636719 0 " fill-opacity="1" fill-rule="nonzero"/></g></g><g clip-path="url(#13e6cff6ac)"><g clip-path="url(#912f36e099)"><path stroke-linecap="butt" transform="matrix(0.750545, 0, 0, 0.75, 2.636719, 0)" fill="none" stroke-linejoin="miter" d="M 21.484377 0 L 42.968754 12.500002 L 42.968754 37.500005 L 21.484377 50.000006 L -0.000000110562 37.500005 L -0.000000110562 12.500002 L 21.484377 0 " stroke="#737373" stroke-width="4" stroke-opacity="1" stroke-miterlimit="4"/></g></g><g clip-path="url(#5d04eb54ed)"><g clip-path="url(#7e13ac28a5)"><path fill="#d9d9d9" d="M 4.128906 1.738281 L 33.371094 1.738281 L 33.371094 35.761719 L 4.128906 35.761719 Z M 4.128906 1.738281 " fill-opacity="1" fill-rule="nonzero"/></g></g><g clip-path="url(#46839451df)"><g clip-path="url(#c1440a5430)"><path fill="#ffebce" d="M 13.125 5.035156 L 24.375 5.035156 L 24.375 16.285156 L 13.125 16.285156 Z M 13.125 5.035156 " fill-opacity="1" fill-rule="nonzero"/><path stroke-linecap="butt" transform="matrix(0.75, 0, 0, 0.75, 13.124999, 5.036653)" fill="none" stroke-linejoin="miter" d="M 7.500002 -0.00199545 C 3.359377 -0.00199545 0.00000137127 3.35738 0.00000137127 7.498005 C 0.00000137127 11.643839 3.359377 14.998006 7.500002 14.998006 C 11.640628 14.998006 15.000003 11.643839 15.000003 7.498005 C 15.000003 3.35738 11.640628 -0.00199545 7.500002 -0.00199545 " stroke="#737373" stroke-width="2" stroke-opacity="1" stroke-miterlimit="4"/></g></g><g clip-path="url(#35be5f605b)"><path fill="#737373" d="M 22.773438 27.0625 C 22.441406 27.058594 22.121094 27.128906 21.828125 27.261719 L 15.894531 21.320312 L 16.726562 20.527344 C 16.828125 20.429688 16.835938 20.273438 16.742188 20.179688 L 14.648438 18.085938 C 14.429688 17.867188 14.117188 17.761719 13.792969 17.792969 L 11.984375 17.984375 C 11.75 18.011719 11.5625 18.1875 11.53125 18.417969 L 11.292969 20.1875 C 11.25 20.5 11.351562 20.808594 11.570312 21.027344 L 13.664062 23.125 C 13.757812 23.21875 13.914062 23.214844 14.015625 23.117188 L 14.847656 22.324219 L 20.777344 28.261719 C 20.636719 28.546875 20.558594 28.859375 20.554688 29.183594 C 20.546875 29.757812 20.769531 30.300781 21.179688 30.710938 L 22.089844 31.621094 L 25.230469 28.621094 L 24.316406 27.710938 C 23.90625 27.300781 23.359375 27.070312 22.773438 27.0625 Z M 21.535156 27.996094 C 22.222656 27.339844 23.320312 27.355469 23.988281 28.023438 L 24.230469 28.265625 L 21.746094 30.636719 L 21.507812 30.398438 C 20.835938 29.726562 20.851562 28.648438 21.535156 27.996094 Z M 21.535156 27.996094 " fill-opacity="1" fill-rule="nonzero"/></g><g clip-path="url(#8e4956f9c5)"><path fill="#737373" d="M 24.601562 20.59375 L 24.734375 20.46875 L 24.585938 20.320312 L 24.765625 20.160156 L 23.523438 18.914062 L 23.347656 19.082031 L 23.15625 18.886719 L 23.015625 19.019531 C 21.214844 17.683594 19.144531 17.375 18.03125 18.386719 C 18.015625 18.398438 18.023438 18.425781 18.042969 18.429688 C 18.046875 18.433594 18.050781 18.433594 18.050781 18.433594 C 18.058594 18.433594 18.0625 18.433594 18.066406 18.433594 C 18.746094 18.226562 20.195312 18.964844 21.703125 20.277344 L 21.539062 20.429688 L 21.734375 20.625 L 15.140625 26.925781 L 15.015625 27.046875 L 13.886719 28.125 L 13.816406 28.191406 L 12.238281 29.355469 C 11.949219 29.632812 11.941406 30.078125 12.214844 30.355469 L 12.488281 30.628906 C 12.761719 30.90625 13.171875 30.859375 13.457031 30.582031 L 14.660156 29.222656 L 16.039062 27.902344 L 22.910156 21.804688 L 23.117188 22.011719 L 23.28125 21.855469 C 24.625 23.390625 25.371094 24.867188 25.121094 25.523438 C 25.121094 25.53125 25.121094 25.535156 25.125 25.542969 L 25.125 25.546875 C 25.132812 25.5625 25.15625 25.566406 25.167969 25.550781 C 26.25 24.476562 25.96875 22.40625 24.601562 20.59375 Z M 24.601562 20.59375 " fill-opacity="1" fill-rule="nonzero"/></g></svg>