<svg xmlns="http://www.w3.org/2000/svg" xmlns:xlink="http://www.w3.org/1999/xlink" width="50" zoomAndPan="magnify" viewBox="0 0 37.5 37.499999" height="50" preserveAspectRatio="xMidYMid meet" version="1.0"><defs><clipPath id="2355b05c0a"><path d="M 2.636719 0 L 34.863281 0 L 34.863281 37.007812 L 2.636719 37.007812 Z M 2.636719 0 " clip-rule="nonzero"/></clipPath><clipPath id="762eda3a75"><path d="M 18.75 0 L 34.863281 9.375 L 34.863281 28.125 L 18.75 37.5 L 2.636719 28.125 L 2.636719 9.375 L 18.75 0 " clip-rule="nonzero"/></clipPath><clipPath id="beb691626f"><path d="M 2.636719 0 L 34.886719 0 L 34.886719 37.007812 L 2.636719 37.007812 Z M 2.636719 0 " clip-rule="nonzero"/></clipPath><clipPath id="df2f5c2ed0"><path d="M 18.761719 0 L 34.886719 9.375 L 34.886719 28.125 L 18.761719 37.5 L 2.636719 28.125 L 2.636719 9.375 L 18.761719 0 " clip-rule="nonzero"/></clipPath><clipPath id="440229e232"><path d="M 4.128906 1.738281 L 33.371094 1.738281 L 33.371094 35.761719 L 4.128906 35.761719 Z M 4.128906 1.738281 " clip-rule="nonzero"/></clipPath><clipPath id="aa0ebb93f0"><path d="M 18.75 1.738281 L 33.371094 10.242188 L 33.371094 27.257812 L 18.75 35.761719 L 4.128906 27.257812 L 4.128906 10.242188 L 18.75 1.738281 " clip-rule="nonzero"/></clipPath><clipPath id="78b7f1dd3d"><path d="M 13.125 5.035156 L 24.375 5.035156 L 24.375 16.285156 L 13.125 16.285156 Z M 13.125 5.035156 " clip-rule="nonzero"/></clipPath><clipPath id="4b2b08dda8"><path d="M 18.75 5.035156 C 15.644531 5.035156 13.125 7.554688 13.125 10.660156 C 13.125 13.769531 15.644531 16.285156 18.75 16.285156 C 21.855469 16.285156 24.375 13.769531 24.375 10.660156 C 24.375 7.554688 21.855469 5.035156 18.75 5.035156 " clip-rule="nonzero"/></clipPath><clipPath id="05225595a5"><path d="M 16.859375 18.75 L 20.601562 18.75 L 20.601562 33.75 L 16.859375 33.75 Z M 16.859375 18.75 " clip-rule="nonzero"/></clipPath><clipPath id="637761cdb3"><path d="M 11.234375 16.285156 L 14.976562 16.285156 L 14.976562 31.285156 L 11.234375 31.285156 Z M 11.234375 16.285156 " clip-rule="nonzero"/></clipPath><clipPath id="969a778e25"><path d="M 22.484375 16.285156 L 26.226562 16.285156 L 26.226562 31.285156 L 22.484375 31.285156 Z M 22.484375 16.285156 " clip-rule="nonzero"/></clipPath></defs><g clip-path="url(#2355b05c0a)"><g clip-path="url(#762eda3a75)"><path fill="#ffffff" d="M 2.636719 0 L 34.863281 0 L 34.863281 37.5 L 2.636719 37.5 Z M 2.636719 0 " fill-opacity="1" fill-rule="nonzero"/></g></g><g clip-path="url(#beb691626f)"><g clip-path="url(#df2f5c2ed0)"><path stroke-linecap="butt" transform="matrix(0.750545, 0, 0, 0.75, 2.636719, 0)" fill="none" stroke-linejoin="miter" d="M 21.484377 0 L 42.968754 12.500002 L 42.968754 37.500005 L 21.484377 50.000006 L -0.000000110562 37.500005 L -0.000000110562 12.500002 L 21.484377 0 " stroke="#d68612" stroke-width="4" stroke-opacity="1" stroke-miterlimit="4"/></g></g><g clip-path="url(#440229e232)"><g clip-path="url(#aa0ebb93f0)"><path fill="#ffde59" d="M 4.128906 1.738281 L 33.371094 1.738281 L 33.371094 35.761719 L 4.128906 35.761719 Z M 4.128906 1.738281 " fill-opacity="1" fill-rule="nonzero"/></g></g><g clip-path="url(#78b7f1dd3d)"><g clip-path="url(#4b2b08dda8)"><path fill="#ffebce" d="M 13.125 5.035156 L 24.375 5.035156 L 24.375 16.285156 L 13.125 16.285156 Z M 13.125 5.035156 " fill-opacity="1" fill-rule="nonzero"/><path stroke-linecap="butt" transform="matrix(0.75, 0, 0, 0.75, 13.124999, 5.036653)" fill="none" stroke-linejoin="miter" d="M 7.500002 -0.00199545 C 3.359377 -0.00199545 0.00000137127 3.35738 0.00000137127 7.498005 C 0.00000137127 11.643839 3.359377 14.998006 7.500002 14.998006 C 11.640628 14.998006 15.000003 11.643839 15.000003 7.498005 C 15.000003 3.35738 11.640628 -0.00199545 7.500002 -0.00199545 " stroke="#d68612" stroke-width="2" stroke-opacity="1" stroke-miterlimit="4"/></g></g><g clip-path="url(#05225595a5)"><path fill="#d68612" d="M 18.445312 29.726562 C 18.503906 28.386719 17.511719 27.152344 16.859375 27.664062 C 17.230469 27.628906 17.628906 27.789062 17.800781 28.289062 C 17.304688 27.75 16.808594 27.894531 16.949219 28.230469 C 17.242188 28.914062 18.195312 28.511719 18.445312 29.726562 Z M 18.445312 28.550781 C 18.503906 27.210938 17.511719 25.976562 16.859375 26.488281 C 17.230469 26.453125 17.628906 26.613281 17.800781 27.113281 C 17.304688 26.574219 16.808594 26.71875 16.949219 27.050781 C 17.242188 27.738281 18.195312 27.335938 18.445312 28.550781 Z M 18.445312 27.347656 C 18.195312 26.132812 17.242188 26.535156 16.949219 25.847656 C 16.808594 25.515625 17.304688 25.371094 17.800781 25.910156 C 17.628906 25.410156 17.230469 25.25 16.859375 25.285156 C 17.511719 24.773438 18.503906 26.007812 18.445312 27.347656 Z M 18.445312 26.144531 C 18.503906 24.804688 17.511719 23.570312 16.859375 24.082031 C 17.230469 24.046875 17.628906 24.207031 17.800781 24.707031 C 17.304688 24.167969 16.808594 24.3125 16.949219 24.644531 C 17.242188 25.332031 18.195312 24.929688 18.445312 26.144531 Z M 18.445312 24.941406 C 18.503906 23.601562 17.511719 22.367188 16.859375 22.878906 C 17.230469 22.84375 17.628906 23.003906 17.800781 23.503906 C 17.304688 22.964844 16.808594 23.109375 16.949219 23.441406 C 17.242188 24.128906 18.195312 23.726562 18.445312 24.941406 Z M 18.445312 23.765625 C 18.195312 22.550781 17.242188 22.953125 16.949219 22.265625 C 16.808594 21.933594 17.304688 21.789062 17.800781 22.328125 C 17.628906 21.828125 17.230469 21.664062 16.859375 21.703125 C 17.511719 21.191406 18.503906 22.421875 18.445312 23.765625 Z M 18.445312 22.5625 C 18.195312 21.347656 17.242188 21.746094 16.949219 21.0625 C 16.808594 20.730469 17.304688 20.585938 17.800781 21.125 C 17.628906 20.621094 17.230469 20.460938 16.859375 20.5 C 17.511719 19.988281 18.503906 21.21875 18.445312 22.5625 Z M 18.332031 21.363281 C 18.246094 20.859375 17.605469 20.410156 17.554688 20.050781 C 17.519531 19.789062 17.882812 19.761719 18.15625 20.230469 C 18.109375 19.84375 17.851562 19.664062 17.578125 19.632812 C 18.125 19.367188 18.582031 20.410156 18.332031 21.363281 Z M 18.550781 21.289062 L 18.613281 18.859375 C 18.617188 18.710938 18.453125 18.714844 18.460938 18.863281 Z M 18.429688 20.222656 C 18.390625 19.800781 18.300781 19.398438 18.152344 19.019531 C 18.101562 18.898438 17.945312 18.953125 18.011719 19.082031 C 18.207031 19.445312 18.339844 19.8125 18.429688 20.222656 Z M 19.015625 29.726562 C 18.960938 28.386719 19.953125 27.152344 20.601562 27.664062 C 20.230469 27.628906 19.832031 27.789062 19.664062 28.289062 C 20.160156 27.75 20.652344 27.894531 20.511719 28.230469 C 20.222656 28.914062 19.269531 28.511719 19.015625 29.726562 Z M 19.015625 28.550781 C 18.960938 27.210938 19.953125 25.976562 20.601562 26.488281 C 20.230469 26.453125 19.832031 26.613281 19.664062 27.113281 C 20.160156 26.574219 20.652344 26.71875 20.511719 27.050781 C 20.222656 27.738281 19.269531 27.335938 19.015625 28.550781 Z M 19.015625 27.347656 C 19.269531 26.132812 20.222656 26.535156 20.511719 25.847656 C 20.652344 25.515625 20.160156 25.371094 19.664062 25.910156 C 19.832031 25.410156 20.230469 25.25 20.601562 25.285156 C 19.953125 24.773438 18.960938 26.007812 19.015625 27.347656 Z M 19.015625 26.144531 C 19.269531 24.929688 20.222656 25.332031 20.511719 24.644531 C 20.652344 24.3125 20.160156 24.167969 19.664062 24.707031 C 19.832031 24.207031 20.230469 24.046875 20.601562 24.082031 C 19.953125 23.570312 18.960938 24.804688 19.015625 26.144531 Z M 19.015625 24.941406 C 18.960938 23.601562 19.953125 22.367188 20.601562 22.878906 C 20.230469 22.84375 19.832031 23.003906 19.664062 23.503906 C 20.160156 22.964844 20.652344 23.109375 20.511719 23.441406 C 20.222656 24.128906 19.269531 23.726562 19.015625 24.941406 Z M 19.015625 23.765625 C 18.960938 22.421875 19.953125 21.191406 20.601562 21.703125 C 20.230469 21.664062 19.832031 21.828125 19.664062 22.328125 C 20.160156 21.789062 20.652344 21.933594 20.511719 22.265625 C 20.222656 22.953125 19.269531 22.550781 19.015625 23.765625 Z M 19.015625 22.5625 C 19.269531 21.347656 20.222656 21.746094 20.511719 21.0625 C 20.652344 20.730469 20.160156 20.585938 19.664062 21.125 C 19.832031 20.621094 20.230469 20.460938 20.601562 20.5 C 19.953125 19.988281 18.960938 21.21875 19.015625 22.5625 Z M 19.128906 21.363281 C 19.214844 20.859375 19.859375 20.410156 19.90625 20.050781 C 19.945312 19.789062 19.582031 19.761719 19.308594 20.230469 C 19.351562 19.84375 19.613281 19.664062 19.882812 19.632812 C 19.339844 19.367188 18.882812 20.410156 19.128906 21.363281 Z M 18.910156 21.289062 L 19.003906 18.863281 C 19.007812 18.714844 18.847656 18.710938 18.851562 18.859375 Z M 19.035156 20.222656 C 19.070312 19.800781 19.160156 19.398438 19.3125 19.019531 C 19.359375 18.898438 19.519531 18.953125 19.449219 19.082031 C 19.253906 19.445312 19.121094 19.8125 19.035156 20.222656 Z M 19.015625 30.929688 C 19.269531 29.71875 20.222656 30.117188 20.511719 29.433594 C 20.652344 29.101562 20.160156 28.953125 19.664062 29.492188 C 19.832031 28.992188 20.230469 28.832031 20.601562 28.867188 C 19.953125 28.355469 18.960938 29.589844 19.015625 30.929688 Z M 18.445312 30.929688 C 18.195312 29.71875 17.242188 30.117188 16.949219 29.433594 C 16.808594 29.101562 17.304688 28.953125 17.800781 29.492188 C 17.628906 28.992188 17.230469 28.832031 16.859375 28.867188 C 17.511719 28.355469 18.503906 29.589844 18.445312 30.929688 Z M 18.847656 33.75 L 18.613281 33.75 L 18.730469 18.757812 L 18.847656 33.75 " fill-opacity="1" fill-rule="evenodd"/></g><g clip-path="url(#637761cdb3)"><path fill="#d68612" d="M 12.820312 27.261719 C 12.878906 25.921875 11.886719 24.6875 11.234375 25.203125 C 11.605469 25.164062 12.003906 25.324219 12.175781 25.828125 C 11.679688 25.289062 11.183594 25.433594 11.324219 25.765625 C 11.617188 26.449219 12.570312 26.050781 12.820312 27.261719 Z M 12.820312 26.085938 C 12.878906 24.746094 11.886719 23.511719 11.234375 24.027344 C 11.605469 23.988281 12.003906 24.148438 12.175781 24.652344 C 11.679688 24.109375 11.183594 24.257812 11.324219 24.589844 C 11.617188 25.273438 12.570312 24.875 12.820312 26.085938 Z M 12.820312 24.882812 C 12.570312 23.671875 11.617188 24.070312 11.324219 23.386719 C 11.183594 23.054688 11.679688 22.90625 12.175781 23.449219 C 12.003906 22.945312 11.605469 22.785156 11.234375 22.820312 C 11.886719 22.308594 12.878906 23.542969 12.820312 24.882812 Z M 12.820312 23.679688 C 12.878906 22.339844 11.886719 21.105469 11.234375 21.617188 C 11.605469 21.582031 12.003906 21.742188 12.175781 22.242188 C 11.679688 21.703125 11.183594 21.851562 11.324219 22.183594 C 11.617188 22.867188 12.570312 22.46875 12.820312 23.679688 Z M 12.820312 22.476562 C 12.878906 21.136719 11.886719 19.902344 11.234375 20.414062 C 11.605469 20.378906 12.003906 20.539062 12.175781 21.039062 C 11.679688 20.5 11.183594 20.648438 11.324219 20.980469 C 11.617188 21.664062 12.570312 21.265625 12.820312 22.476562 Z M 12.820312 21.300781 C 12.570312 20.085938 11.617188 20.488281 11.324219 19.804688 C 11.183594 19.46875 11.679688 19.324219 12.175781 19.863281 C 12.003906 19.363281 11.605469 19.203125 11.234375 19.238281 C 11.886719 18.726562 12.878906 19.960938 12.820312 21.300781 Z M 12.820312 20.097656 C 12.570312 18.882812 11.617188 19.285156 11.324219 18.597656 C 11.183594 18.265625 11.679688 18.121094 12.175781 18.660156 C 12.003906 18.160156 11.605469 18 11.234375 18.035156 C 11.886719 17.523438 12.878906 18.757812 12.820312 20.097656 Z M 12.707031 18.898438 C 12.621094 18.394531 11.980469 17.949219 11.929688 17.585938 C 11.894531 17.324219 12.257812 17.300781 12.53125 17.765625 C 12.484375 17.378906 12.226562 17.199219 11.953125 17.167969 C 12.5 16.902344 12.957031 17.945312 12.707031 18.898438 Z M 12.925781 18.824219 L 12.988281 16.394531 C 12.992188 16.25 12.828125 16.25 12.835938 16.398438 Z M 12.804688 17.757812 C 12.765625 17.335938 12.675781 16.933594 12.527344 16.554688 C 12.476562 16.433594 12.320312 16.492188 12.386719 16.621094 C 12.582031 16.984375 12.714844 17.351562 12.804688 17.757812 Z M 13.390625 27.261719 C 13.335938 25.921875 14.328125 24.6875 14.976562 25.203125 C 14.605469 25.164062 14.207031 25.324219 14.039062 25.828125 C 14.535156 25.289062 15.027344 25.433594 14.886719 25.765625 C 14.597656 26.449219 13.644531 26.050781 13.390625 27.261719 Z M 13.390625 26.085938 C 13.335938 24.746094 14.328125 23.511719 14.976562 24.027344 C 14.605469 23.988281 14.207031 24.148438 14.039062 24.652344 C 14.535156 24.109375 15.027344 24.257812 14.886719 24.589844 C 14.597656 25.273438 13.644531 24.875 13.390625 26.085938 Z M 13.390625 24.882812 C 13.644531 23.671875 14.597656 24.070312 14.886719 23.386719 C 15.027344 23.054688 14.535156 22.90625 14.039062 23.449219 C 14.207031 22.945312 14.605469 22.785156 14.976562 22.820312 C 14.328125 22.308594 13.335938 23.542969 13.390625 24.882812 Z M 13.390625 23.679688 C 13.644531 22.46875 14.597656 22.867188 14.886719 22.183594 C 15.027344 21.851562 14.535156 21.703125 14.039062 22.242188 C 14.207031 21.742188 14.605469 21.582031 14.976562 21.617188 C 14.328125 21.105469 13.335938 22.339844 13.390625 23.679688 Z M 13.390625 22.476562 C 13.335938 21.136719 14.328125 19.902344 14.976562 20.414062 C 14.605469 20.378906 14.207031 20.539062 14.039062 21.039062 C 14.535156 20.5 15.027344 20.648438 14.886719 20.980469 C 14.597656 21.664062 13.644531 21.265625 13.390625 22.476562 Z M 13.390625 21.300781 C 13.335938 19.960938 14.328125 18.726562 14.976562 19.238281 C 14.605469 19.203125 14.207031 19.363281 14.039062 19.863281 C 14.535156 19.324219 15.027344 19.46875 14.886719 19.804688 C 14.597656 20.488281 13.644531 20.085938 13.390625 21.300781 Z M 13.390625 20.097656 C 13.644531 18.882812 14.597656 19.285156 14.886719 18.597656 C 15.027344 18.265625 14.535156 18.121094 14.039062 18.660156 C 14.207031 18.160156 14.605469 18 14.976562 18.035156 C 14.328125 17.523438 13.335938 18.757812 13.390625 20.097656 Z M 13.503906 18.898438 C 13.589844 18.394531 14.234375 17.949219 14.28125 17.585938 C 14.320312 17.324219 13.957031 17.300781 13.683594 17.765625 C 13.726562 17.378906 13.988281 17.199219 14.257812 17.167969 C 13.714844 16.902344 13.257812 17.945312 13.503906 18.898438 Z M 13.285156 18.824219 L 13.378906 16.398438 C 13.382812 16.25 13.222656 16.25 13.226562 16.394531 Z M 13.410156 17.757812 C 13.445312 17.335938 13.535156 16.933594 13.6875 16.554688 C 13.734375 16.433594 13.894531 16.492188 13.824219 16.621094 C 13.628906 16.984375 13.496094 17.351562 13.410156 17.757812 Z M 13.390625 28.464844 C 13.644531 27.253906 14.597656 27.652344 14.886719 26.96875 C 15.027344 26.636719 14.535156 26.492188 14.039062 27.03125 C 14.207031 26.527344 14.605469 26.367188 14.976562 26.40625 C 14.328125 25.894531 13.335938 27.125 13.390625 28.464844 Z M 12.820312 28.464844 C 12.570312 27.253906 11.617188 27.652344 11.324219 26.96875 C 11.183594 26.636719 11.679688 26.492188 12.175781 27.03125 C 12.003906 26.527344 11.605469 26.367188 11.234375 26.40625 C 11.886719 25.894531 12.878906 27.125 12.820312 28.464844 Z M 13.222656 31.285156 L 12.988281 31.285156 L 13.105469 16.296875 L 13.222656 31.285156 " fill-opacity="1" fill-rule="evenodd"/></g><g clip-path="url(#969a778e25)"><path fill="#d68612" d="M 24.070312 27.261719 C 24.128906 25.921875 23.136719 24.6875 22.484375 25.203125 C 22.855469 25.164062 23.253906 25.324219 23.425781 25.828125 C 22.929688 25.289062 22.433594 25.433594 22.574219 25.765625 C 22.867188 26.449219 23.820312 26.050781 24.070312 27.261719 Z M 24.070312 26.085938 C 24.128906 24.746094 23.136719 23.511719 22.484375 24.027344 C 22.855469 23.988281 23.253906 24.148438 23.425781 24.652344 C 22.929688 24.109375 22.433594 24.257812 22.574219 24.589844 C 22.867188 25.273438 23.820312 24.875 24.070312 26.085938 Z M 24.070312 24.882812 C 23.820312 23.671875 22.867188 24.070312 22.574219 23.386719 C 22.433594 23.054688 22.929688 22.90625 23.425781 23.449219 C 23.253906 22.945312 22.855469 22.785156 22.484375 22.820312 C 23.136719 22.308594 24.128906 23.542969 24.070312 24.882812 Z M 24.070312 23.679688 C 24.128906 22.339844 23.136719 21.105469 22.484375 21.617188 C 22.855469 21.582031 23.253906 21.742188 23.425781 22.242188 C 22.929688 21.703125 22.433594 21.851562 22.574219 22.183594 C 22.867188 22.867188 23.820312 22.46875 24.070312 23.679688 Z M 24.070312 22.476562 C 24.128906 21.136719 23.136719 19.902344 22.484375 20.414062 C 22.855469 20.378906 23.253906 20.539062 23.425781 21.039062 C 22.929688 20.5 22.433594 20.648438 22.574219 20.980469 C 22.867188 21.664062 23.820312 21.265625 24.070312 22.476562 Z M 24.070312 21.300781 C 23.820312 20.085938 22.867188 20.488281 22.574219 19.804688 C 22.433594 19.46875 22.929688 19.324219 23.425781 19.863281 C 23.253906 19.363281 22.855469 19.203125 22.484375 19.238281 C 23.136719 18.726562 24.128906 19.960938 24.070312 21.300781 Z M 24.070312 20.097656 C 23.820312 18.882812 22.867188 19.285156 22.574219 18.597656 C 22.433594 18.265625 22.929688 18.121094 23.425781 18.660156 C 23.253906 18.160156 22.855469 18 22.484375 18.035156 C 23.136719 17.523438 24.128906 18.757812 24.070312 20.097656 Z M 23.957031 18.898438 C 23.871094 18.394531 23.230469 17.949219 23.179688 17.585938 C 23.144531 17.324219 23.507812 17.300781 23.78125 17.765625 C 23.734375 17.378906 23.476562 17.199219 23.203125 17.167969 C 23.75 16.902344 24.207031 17.945312 23.957031 18.898438 Z M 24.175781 18.824219 L 24.238281 16.394531 C 24.242188 16.25 24.078125 16.25 24.085938 16.398438 Z M 24.054688 17.757812 C 24.015625 17.335938 23.925781 16.933594 23.777344 16.554688 C 23.726562 16.433594 23.570312 16.492188 23.636719 16.621094 C 23.832031 16.984375 23.964844 17.351562 24.054688 17.757812 Z M 24.640625 27.261719 C 24.585938 25.921875 25.578125 24.6875 26.226562 25.203125 C 25.855469 25.164062 25.457031 25.324219 25.289062 25.828125 C 25.785156 25.289062 26.277344 25.433594 26.136719 25.765625 C 25.847656 26.449219 24.894531 26.050781 24.640625 27.261719 Z M 24.640625 26.085938 C 24.585938 24.746094 25.578125 23.511719 26.226562 24.027344 C 25.855469 23.988281 25.457031 24.148438 25.289062 24.652344 C 25.785156 24.109375 26.277344 24.257812 26.136719 24.589844 C 25.847656 25.273438 24.894531 24.875 24.640625 26.085938 Z M 24.640625 24.882812 C 24.894531 23.671875 25.847656 24.070312 26.136719 23.386719 C 26.277344 23.054688 25.785156 22.90625 25.289062 23.449219 C 25.457031 22.945312 25.855469 22.785156 26.226562 22.820312 C 25.578125 22.308594 24.585938 23.542969 24.640625 24.882812 Z M 24.640625 23.679688 C 24.894531 22.46875 25.847656 22.867188 26.136719 22.183594 C 26.277344 21.851562 25.785156 21.703125 25.289062 22.242188 C 25.457031 21.742188 25.855469 21.582031 26.226562 21.617188 C 25.578125 21.105469 24.585938 22.339844 24.640625 23.679688 Z M 24.640625 22.476562 C 24.585938 21.136719 25.578125 19.902344 26.226562 20.414062 C 25.855469 20.378906 25.457031 20.539062 25.289062 21.039062 C 25.785156 20.5 26.277344 20.648438 26.136719 20.980469 C 25.847656 21.664062 24.894531 21.265625 24.640625 22.476562 Z M 24.640625 21.300781 C 24.585938 19.960938 25.578125 18.726562 26.226562 19.238281 C 25.855469 19.203125 25.457031 19.363281 25.289062 19.863281 C 25.785156 19.324219 26.277344 19.46875 26.136719 19.804688 C 25.847656 20.488281 24.894531 20.085938 24.640625 21.300781 Z M 24.640625 20.097656 C 24.894531 18.882812 25.847656 19.285156 26.136719 18.597656 C 26.277344 18.265625 25.785156 18.121094 25.289062 18.660156 C 25.457031 18.160156 25.855469 18 26.226562 18.035156 C 25.578125 17.523438 24.585938 18.757812 24.640625 20.097656 Z M 24.753906 18.898438 C 24.839844 18.394531 25.484375 17.949219 25.53125 17.585938 C 25.570312 17.324219 25.207031 17.300781 24.933594 17.765625 C 24.976562 17.378906 25.238281 17.199219 25.507812 17.167969 C 24.964844 16.902344 24.507812 17.945312 24.753906 18.898438 Z M 24.535156 18.824219 L 24.628906 16.398438 C 24.632812 16.25 24.472656 16.25 24.476562 16.394531 Z M 24.660156 17.757812 C 24.695312 17.335938 24.785156 16.933594 24.9375 16.554688 C 24.984375 16.433594 25.144531 16.492188 25.074219 16.621094 C 24.878906 16.984375 24.746094 17.351562 24.660156 17.757812 Z M 24.640625 28.464844 C 24.894531 27.253906 25.847656 27.652344 26.136719 26.96875 C 26.277344 26.636719 25.785156 26.492188 25.289062 27.03125 C 25.457031 26.527344 25.855469 26.367188 26.226562 26.40625 C 25.578125 25.894531 24.585938 27.125 24.640625 28.464844 Z M 24.070312 28.464844 C 23.820312 27.253906 22.867188 27.652344 22.574219 26.96875 C 22.433594 26.636719 22.929688 26.492188 23.425781 27.03125 C 23.253906 26.527344 22.855469 26.367188 22.484375 26.40625 C 23.136719 25.894531 24.128906 27.125 24.070312 28.464844 Z M 24.472656 31.285156 L 24.238281 31.285156 L 24.355469 16.296875 L 24.472656 31.285156 " fill-opacity="1" fill-rule="evenodd"/></g></svg>