<svg xmlns="http://www.w3.org/2000/svg" xmlns:xlink="http://www.w3.org/1999/xlink" width="50" zoomAndPan="magnify" viewBox="0 0 37.5 37.499999" height="50" preserveAspectRatio="xMidYMid meet" version="1.0"><defs><clipPath id="2db9108dc9"><path d="M 2.636719 0 L 34.863281 0 L 34.863281 37.007812 L 2.636719 37.007812 Z M 2.636719 0 " clip-rule="nonzero"/></clipPath><clipPath id="955df271cf"><path d="M 18.75 0 L 34.863281 9.375 L 34.863281 28.125 L 18.75 37.5 L 2.636719 28.125 L 2.636719 9.375 L 18.75 0 " clip-rule="nonzero"/></clipPath><clipPath id="beef3ac161"><path d="M 2.636719 0 L 34.886719 0 L 34.886719 37.007812 L 2.636719 37.007812 Z M 2.636719 0 " clip-rule="nonzero"/></clipPath><clipPath id="901bfb2696"><path d="M 18.761719 0 L 34.886719 9.375 L 34.886719 28.125 L 18.761719 37.5 L 2.636719 28.125 L 2.636719 9.375 L 18.761719 0 " clip-rule="nonzero"/></clipPath><clipPath id="00fc9e7e49"><path d="M 4.128906 1.738281 L 33.371094 1.738281 L 33.371094 35.761719 L 4.128906 35.761719 Z M 4.128906 1.738281 " clip-rule="nonzero"/></clipPath><clipPath id="35d711e636"><path d="M 18.75 1.738281 L 33.371094 10.242188 L 33.371094 27.257812 L 18.75 35.761719 L 4.128906 27.257812 L 4.128906 10.242188 L 18.75 1.738281 " clip-rule="nonzero"/></clipPath><clipPath id="bddcc575f3"><path d="M 13.125 5.035156 L 24.375 5.035156 L 24.375 16.285156 L 13.125 16.285156 Z M 13.125 5.035156 " clip-rule="nonzero"/></clipPath><clipPath id="19c8e30108"><path d="M 18.75 5.035156 C 15.644531 5.035156 13.125 7.554688 13.125 10.660156 C 13.125 13.769531 15.644531 16.285156 18.75 16.285156 C 21.855469 16.285156 24.375 13.769531 24.375 10.660156 C 24.375 7.554688 21.855469 5.035156 18.75 5.035156 " clip-rule="nonzero"/></clipPath><clipPath id="e69e7e133c"><path d="M 24 25 L 27 25 L 27 31.285156 L 24 31.285156 Z M 24 25 " clip-rule="nonzero"/></clipPath><clipPath id="6232a91ec6"><path d="M 21 25 L 25 25 L 25 31.285156 L 21 31.285156 Z M 21 25 " clip-rule="nonzero"/></clipPath><clipPath id="df1f323610"><path d="M 13 26 L 16 26 L 16 31.285156 L 13 31.285156 Z M 13 26 " clip-rule="nonzero"/></clipPath><clipPath id="ae68bab59a"><path d="M 15 25 L 18 25 L 18 31.285156 L 15 31.285156 Z M 15 25 " clip-rule="nonzero"/></clipPath><clipPath id="28f003f648"><path d="M 12 16.285156 L 15 16.285156 L 15 19 L 12 19 Z M 12 16.285156 " clip-rule="nonzero"/></clipPath><clipPath id="64f046231a"><path d="M 8.335938 17 L 14 17 L 14 21 L 8.335938 21 Z M 8.335938 17 " clip-rule="nonzero"/></clipPath><clipPath id="d21b97d729"><path d="M 8.335938 19 L 10 19 L 10 21 L 8.335938 21 Z M 8.335938 19 " clip-rule="nonzero"/></clipPath><clipPath id="942bbe7215"><path d="M 9 16.285156 L 27 16.285156 L 27 28 L 9 28 Z M 9 16.285156 " clip-rule="nonzero"/></clipPath></defs><g clip-path="url(#2db9108dc9)"><g clip-path="url(#955df271cf)"><path fill="#ffffff" d="M 2.636719 0 L 34.863281 0 L 34.863281 37.5 L 2.636719 37.5 Z M 2.636719 0 " fill-opacity="1" fill-rule="nonzero"/></g></g><g clip-path="url(#beef3ac161)"><g clip-path="url(#901bfb2696)"><path stroke-linecap="butt" transform="matrix(0.750545, 0, 0, 0.75, 2.636719, 0)" fill="none" stroke-linejoin="miter" d="M 21.484377 0 L 42.968754 12.500002 L 42.968754 37.500005 L 21.484377 50.000006 L -0.000000110562 37.500005 L -0.000000110562 12.500002 L 21.484377 0 " stroke="#8ca231" stroke-width="4" stroke-opacity="1" stroke-miterlimit="4"/></g></g><g clip-path="url(#00fc9e7e49)"><g clip-path="url(#35d711e636)"><path fill="#c9e265" d="M 4.128906 1.738281 L 33.371094 1.738281 L 33.371094 35.761719 L 4.128906 35.761719 Z M 4.128906 1.738281 " fill-opacity="1" fill-rule="nonzero"/></g></g><g clip-path="url(#bddcc575f3)"><g clip-path="url(#19c8e30108)"><path fill="#ffebce" d="M 13.125 5.035156 L 24.375 5.035156 L 24.375 16.285156 L 13.125 16.285156 Z M 13.125 5.035156 " fill-opacity="1" fill-rule="nonzero"/><path stroke-linecap="butt" transform="matrix(0.75, 0, 0, 0.75, 13.124999, 5.036638)" fill="none" stroke-linejoin="miter" d="M 7.500002 -0.00197619 C 3.359377 -0.00197619 0.00000137127 3.357399 0.00000137127 7.498025 C 0.00000137127 11.643859 3.359377 14.998026 7.500002 14.998026 C 11.640628 14.998026 15.000003 11.643859 15.000003 7.498025 C 15.000003 3.357399 11.640628 -0.00197619 7.500002 -0.00197619 " stroke="#8ca231" stroke-width="2" stroke-opacity="1" stroke-miterlimit="4"/></g></g><g clip-path="url(#e69e7e133c)"><path fill="#caba9f" d="M 24.097656 26.453125 C 24.097656 26.453125 25.566406 28.628906 24.996094 30.160156 C 24.996094 30.160156 24.546875 30.445312 24.613281 31.25 L 25.773438 31.25 C 26.023438 30.472656 26.058594 30.726562 26.058594 29.960938 C 26.058594 29.960938 26.425781 30.039062 26.261719 29.234375 C 26.261719 29.234375 25.40625 26.042969 25.484375 25.640625 C 25.566406 25.234375 24.097656 26.453125 24.097656 26.453125 Z M 24.097656 26.453125 " fill-opacity="1" fill-rule="nonzero"/></g><g clip-path="url(#6232a91ec6)"><path fill="#caba9f" d="M 21.957031 25.878906 C 21.957031 25.878906 23.699219 28.660156 22.808594 30.136719 C 22.808594 30.136719 22.152344 30.480469 22.140625 31.292969 L 23.332031 31.292969 C 23.65625 30.539062 23.8125 30.796875 23.886719 30.03125 C 23.886719 30.03125 24.242188 30.148438 24.15625 29.328125 C 24.15625 29.328125 23.609375 26.070312 23.726562 25.679688 C 23.847656 25.285156 21.957031 25.878906 21.957031 25.878906 Z M 21.957031 25.878906 " fill-opacity="1" fill-rule="nonzero"/></g><g clip-path="url(#df1f323610)"><path fill="#caba9f" d="M 14.425781 26.25 C 14.425781 26.25 14.996094 29.316406 14.34375 30.523438 C 14.34375 30.523438 13.894531 30.726562 13.894531 31.25 L 15.039062 31.25 C 15.039062 31.25 15.40625 30.523438 15.40625 30.324219 C 15.40625 30.121094 15.8125 30.121094 15.730469 29.679688 C 15.730469 29.679688 15.46875 26.976562 15.742188 26.371094 C 16.015625 25.765625 14.425781 26.25 14.425781 26.25 Z M 14.425781 26.25 " fill-opacity="1" fill-rule="nonzero"/></g><g clip-path="url(#ae68bab59a)"><path fill="#caba9f" d="M 15.464844 25.726562 C 15.464844 25.726562 16.890625 29.164062 16.445312 30.464844 C 16.445312 30.464844 16.136719 30.746094 16.015625 31.25 L 17.078125 31.25 C 17.078125 31.25 17.417969 30.410156 17.382812 30.210938 C 17.351562 30.011719 17.753906 29.945312 17.601562 29.523438 C 17.601562 29.523438 17.023438 26.898438 17.195312 26.257812 C 17.367188 25.617188 15.464844 25.726562 15.464844 25.726562 Z M 15.464844 25.726562 " fill-opacity="1" fill-rule="nonzero"/></g><g clip-path="url(#28f003f648)"><path fill="#bb804c" d="M 13.253906 17.214844 C 13.070312 17.121094 12.691406 16.792969 12.539062 16.71875 C 12.925781 17.199219 13.074219 17.828125 13.074219 17.828125 C 13.289062 17.992188 13.375 18.246094 13.398438 18.515625 C 13.703125 18.539062 13.980469 18.527344 14.199219 18.449219 C 14.199219 18.449219 13.734375 17.457031 13.253906 17.214844 Z M 13.253906 17.214844 " fill-opacity="1" fill-rule="nonzero"/></g><g clip-path="url(#64f046231a)"><path fill="#caba9f" d="M 13.398438 18.515625 C 13.375 18.246094 13.289062 17.992188 13.074219 17.828125 C 13.074219 17.828125 12.242188 17.476562 12.242188 17.476562 C 12.105469 17.855469 11.589844 17.933594 11.230469 17.941406 C 11.023438 17.945312 10.867188 17.925781 10.867188 17.925781 C 10.714844 17.945312 10.585938 17.957031 10.472656 17.957031 C 10.472656 17.957031 9.152344 18.582031 8.742188 19.226562 C 8.742188 19.226562 8.394531 19.617188 8.691406 19.878906 C 8.75 19.878906 8.816406 19.859375 8.871094 19.839844 C 9.03125 19.777344 9.183594 19.726562 9.335938 19.859375 C 9.246094 19.8125 9.097656 19.824219 9.046875 19.835938 C 8.992188 19.886719 8.914062 19.953125 8.824219 20.003906 C 8.824219 20.082031 8.835938 20.277344 8.847656 20.304688 C 8.953125 20.527344 9.230469 20.6875 9.453125 20.652344 C 9.746094 20.605469 9.953125 20.410156 10.257812 20.484375 C 10.773438 20.605469 11.144531 20.730469 11.679688 20.589844 C 12.222656 20.453125 13.132812 20.117188 13.25 19.5625 C 13.25 19.5625 13.441406 19.019531 13.398438 18.515625 Z M 13.398438 18.515625 " fill-opacity="1" fill-rule="nonzero"/></g><path fill="#ce8f56" d="M 10.375 17.953125 C 10.371094 17.953125 10.371094 17.953125 10.367188 17.953125 C 10.363281 17.992188 10.363281 17.972656 10.375 17.953125 Z M 10.375 17.953125 " fill-opacity="1" fill-rule="nonzero"/><path fill="#ce8f56" d="M 10.375 17.953125 C 10.40625 17.953125 10.4375 17.957031 10.472656 17.957031 C 10.417969 17.875 10.386719 17.921875 10.375 17.953125 Z M 10.375 17.953125 " fill-opacity="1" fill-rule="nonzero"/><g clip-path="url(#d21b97d729)"><path fill="#1c1422" d="M 9.335938 19.859375 C 9.183594 19.726562 9.03125 19.777344 8.871094 19.839844 C 8.816406 19.859375 8.75 19.878906 8.691406 19.878906 C 8.726562 19.910156 8.769531 19.941406 8.828125 19.96875 C 8.824219 19.96875 8.824219 19.984375 8.824219 20.003906 C 8.914062 19.953125 8.992188 19.886719 9.046875 19.835938 C 9.097656 19.824219 9.246094 19.8125 9.335938 19.859375 Z M 9.335938 19.859375 " fill-opacity="1" fill-rule="nonzero"/></g><g clip-path="url(#942bbe7215)"><path fill="#ffffff" d="M 26.683594 22.046875 C 26.683594 22.046875 26.425781 19.902344 24.585938 19.5 C 24.585938 19.5 23.8125 19.171875 23.257812 19.171875 C 22.335938 19.171875 21.25 18.996094 20.1875 19.15625 C 18.714844 19.382812 17.265625 19.78125 15.761719 19.699219 C 15.257812 19.667969 14.996094 19.566406 14.816406 19.394531 C 14.945312 18.621094 14.199219 18.449219 14.199219 18.449219 C 14.199219 17.621094 13.566406 17.46875 13.566406 17.46875 C 13.453125 16.828125 13.105469 16.800781 12.910156 16.839844 C 12.539062 16.285156 12.050781 16.503906 11.835938 16.640625 C 11.6875 16.5 11.328125 16.296875 10.640625 16.738281 C 10.640625 16.738281 9.835938 16.679688 9.777344 17.234375 C 9.746094 17.53125 9.792969 18.039062 10.367188 18.074219 C 10.5 18.082031 10.664062 17.953125 10.867188 17.925781 C 10.867188 17.925781 10.984375 18 11.191406 17.996094 C 11.207031 17.996094 11.464844 17.925781 11.480469 17.925781 C 11.578125 17.921875 11.667969 17.914062 11.75 17.898438 C 11.894531 18.644531 12.664062 18.480469 12.664062 18.480469 C 12.191406 18.972656 12.335938 19.378906 12.335938 19.378906 C 11.828125 19.738281 12.007812 20.277344 12.074219 20.425781 C 11.8125 20.40625 11.453125 20.445312 11.203125 20.734375 C 11.203125 20.734375 11.261719 21.042969 11.320312 21.148438 C 11.433594 21.351562 11.269531 22.050781 11.316406 22.328125 C 11.414062 22.929688 11.890625 23.210938 12.210938 23.679688 C 12.75 24.46875 12.714844 25.269531 13.277344 26.066406 C 13.960938 27.039062 14.835938 26.9375 14.835938 26.9375 C 15.730469 27.425781 16.847656 27.734375 18.214844 26.921875 C 18.863281 26.539062 19.410156 26.972656 20.203125 26.8125 C 20.714844 26.707031 21.335938 26.613281 21.921875 26.597656 C 22.195312 27.179688 22.824219 27.957031 24.171875 27.316406 C 24.421875 27.371094 24.703125 27.371094 25.019531 27.269531 C 26.304688 26.84375 25.519531 26.523438 25.835938 25.777344 C 25.9375 25.535156 26.507812 23.542969 26.132812 23.40625 C 26.132812 23.40625 27.015625 23.722656 26.683594 22.046875 Z M 26.683594 22.046875 " fill-opacity="1" fill-rule="nonzero"/></g><path fill="#caba9f" d="M 12.539062 17.601562 C 12.539062 17.601562 13.054688 16.972656 14.199219 17.234375 C 14.199219 17.234375 13.738281 18.199219 13.003906 18.234375 C 13.003906 18.234375 12.910156 17.84375 12.539062 17.601562 Z M 12.539062 17.601562 " fill-opacity="1" fill-rule="nonzero"/><path fill="#1c1422" d="M 10.664062 18.535156 C 10.554688 18.5625 10.457031 18.628906 10.402344 18.734375 C 10.472656 18.714844 10.542969 18.703125 10.613281 18.691406 C 10.789062 19.003906 11.210938 18.648438 11.210938 18.648438 C 10.945312 18.425781 10.761719 18.472656 10.664062 18.535156 Z M 10.664062 18.535156 " fill-opacity="1" fill-rule="nonzero"/></svg>