<svg xmlns="http://www.w3.org/2000/svg" width="482" height="517" viewBox="0 0 482 517" version="1.1"><path d="M 228.213 89.287 L 199.939 117.574 215.752 133.537 C 224.449 142.317, 249.451 167.555, 271.311 189.623 L 311.057 229.745 318.278 224.578 C 322.250 221.736, 327.975 217.727, 331 215.668 C 334.025 213.609, 341.900 208.121, 348.500 203.473 C 355.100 198.825, 364.184 192.545, 368.686 189.518 C 373.189 186.491, 377.159 183.553, 377.508 182.988 C 377.856 182.423, 368.998 172.811, 357.821 161.628 C 346.644 150.444, 319.589 123.228, 297.698 101.147 C 275.806 79.066, 257.579 61, 257.191 61 C 256.804 61, 243.763 73.729, 228.213 89.287 M 210.982 93.750 L 200.500 104.500 211.250 94.018 C 221.235 84.282, 222.454 83, 221.732 83 C 221.585 83, 216.747 87.838, 210.982 93.750 M 192.469 112.250 L 186.500 118.500 192.750 112.531 C 196.188 109.249, 199 106.436, 199 106.281 C 199 105.542, 198.013 106.444, 192.469 112.250 M 331.500 123 C 334.209 125.750, 336.650 128, 336.925 128 C 337.200 128, 335.209 125.750, 332.500 123 C 329.791 120.250, 327.350 118, 327.075 118 C 326.800 118, 328.791 120.250, 331.500 123 M 136.830 180.265 L 80.160 236.500 79.545 356.202 L 78.929 475.903 190.715 476.202 C 252.197 476.366, 302.797 476.275, 303.161 476 C 303.524 475.725, 303.973 421.570, 304.157 355.656 L 304.492 235.813 264.273 195.156 C 226.106 156.575, 193.714 123.983, 193.567 124.015 C 193.530 124.023, 167.999 149.335, 136.830 180.265 M 345.958 137.250 C 350.102 141.665, 351 142.459, 351 141.708 C 351 141.548, 348.863 139.410, 346.250 136.958 L 341.500 132.500 345.958 137.250 M 378.531 192.950 C 378.208 193.472, 371.576 198.310, 363.792 203.700 C 356.009 209.090, 346.234 215.879, 342.070 218.787 C 337.907 221.695, 330.900 226.517, 326.500 229.504 C 322.100 232.491, 317.299 235.962, 315.831 237.217 L 313.163 239.500 312.761 355.773 C 312.540 419.724, 312.701 471.924, 313.119 471.773 C 313.536 471.623, 328.468 457.004, 346.300 439.288 L 378.722 407.075 379.465 299.538 C 379.874 240.392, 379.963 192, 379.663 192 C 379.363 192, 378.854 192.427, 378.531 192.950 M 105.924 197.750 L 103.500 200.500 106.250 198.076 C 107.763 196.742, 109 195.505, 109 195.326 C 109 194.541, 108.190 195.180, 105.924 197.750 M 94.469 209.250 L 88.500 215.500 94.750 209.531 C 100.556 203.987, 101.458 203, 100.719 203 C 100.564 203, 97.751 205.813, 94.469 209.250 M 80.971 222.750 L 74.500 229.500 81.250 223.029 C 84.963 219.470, 88 216.432, 88 216.279 C 88 215.543, 86.982 216.480, 80.971 222.750 M 71.392 249 C 71.392 256.425, 71.549 259.462, 71.742 255.750 C 71.934 252.037, 71.934 245.963, 71.742 242.250 C 71.549 238.537, 71.392 241.575, 71.392 249 M 388.444 336 C 388.444 352.775, 388.581 359.637, 388.748 351.250 C 388.915 342.863, 388.915 329.137, 388.748 320.750 C 388.581 312.363, 388.444 319.225, 388.444 336 M 381.437 416.250 L 378.500 419.500 381.750 416.563 C 384.779 413.825, 385.460 413, 384.687 413 C 384.515 413, 383.052 414.462, 381.437 416.250 M 70.436 449.500 C 70.436 463.800, 70.577 469.511, 70.748 462.191 C 70.919 454.871, 70.918 443.171, 70.747 436.191 C 70.575 429.211, 70.435 435.200, 70.436 449.500 M 366.946 430.750 L 363.500 434.500 367.250 431.054 C 369.313 429.158, 371 427.471, 371 427.304 C 371 426.540, 370.154 427.260, 366.946 430.750 M 353.946 443.750 L 350.500 447.500 354.250 444.054 C 357.740 440.846, 358.460 440, 357.696 440 C 357.529 440, 355.842 441.688, 353.946 443.750 M 319 478.500 C 316.571 480.975, 314.809 483, 315.084 483 C 315.359 483, 317.571 480.975, 320 478.500 C 322.429 476.025, 324.191 474, 323.916 474 C 323.641 474, 321.429 476.025, 319 478.500 M 119.813 484.749 C 128.785 484.914, 143.185 484.914, 151.813 484.748 C 160.441 484.581, 153.100 484.446, 135.500 484.446 C 117.900 484.447, 110.841 484.583, 119.813 484.749" stroke="none" fill="#f59b23" fill-rule="evenodd"/><path d="M 162.814 142.251 L 71.128 233.500 71.314 357.699 C 71.436 438.921, 71.846 482.242, 72.500 482.891 C 73.142 483.528, 115.011 484.131, 189.500 484.574 C 260.212 484.994, 305.969 485.635, 306.702 486.214 C 307.363 486.737, 308.746 486.898, 309.776 486.571 C 310.805 486.245, 328.105 469.623, 348.221 449.635 C 368.336 429.647, 385.441 413.045, 386.232 412.741 C 387.457 412.271, 387.767 400.430, 388.335 332.430 C 388.701 288.562, 389 237.014, 389 217.879 L 389 183.089 386.458 179.342 C 385.059 177.282, 369.835 161.399, 352.625 144.048 C 335.416 126.697, 307.647 98.666, 290.918 81.757 C 264.500 55.057, 260.106 51.014, 257.500 51.008 C 254.855 51.002, 243.638 61.812, 162.814 142.251 M 228.213 89.287 L 199.939 117.574 215.752 133.537 C 224.449 142.317, 249.451 167.555, 271.311 189.623 L 311.057 229.745 318.278 224.578 C 322.250 221.736, 327.975 217.727, 331 215.668 C 334.025 213.609, 341.900 208.121, 348.500 203.473 C 355.100 198.825, 364.184 192.545, 368.686 189.518 C 373.189 186.491, 377.159 183.553, 377.508 182.988 C 377.856 182.423, 368.998 172.811, 357.821 161.628 C 346.644 150.444, 319.589 123.228, 297.698 101.147 C 275.806 79.066, 257.579 61, 257.191 61 C 256.804 61, 243.763 73.729, 228.213 89.287 M 136.830 180.265 L 80.160 236.500 79.545 356.202 L 78.929 475.903 190.715 476.202 C 252.197 476.366, 302.797 476.275, 303.161 476 C 303.524 475.725, 303.973 421.570, 304.157 355.656 L 304.492 235.813 264.273 195.156 C 226.106 156.575, 193.714 123.983, 193.567 124.015 C 193.530 124.023, 167.999 149.335, 136.830 180.265 M 378.531 192.950 C 378.208 193.472, 371.576 198.310, 363.792 203.700 C 356.009 209.090, 346.234 215.879, 342.070 218.787 C 337.907 221.695, 330.900 226.517, 326.500 229.504 C 322.100 232.491, 317.299 235.962, 315.831 237.217 L 313.163 239.500 312.761 355.773 C 312.540 419.724, 312.701 471.924, 313.119 471.773 C 313.536 471.623, 328.468 457.004, 346.300 439.288 L 378.722 407.075 379.465 299.538 C 379.874 240.392, 379.963 192, 379.663 192 C 379.363 192, 378.854 192.427, 378.531 192.950" stroke="none" fill="#080604" fill-rule="evenodd"/></svg>