<svg xmlns="http://www.w3.org/2000/svg" width="499" height="500" viewBox="0 0 499 500" version="1.1"><path d="M 214.991 165.204 L 160.022 219.500 160.111 291.500 C 160.160 331.100, 160.512 364.625, 160.894 366 L 161.590 368.500 232.545 369 L 303.500 369.500 326.250 347.008 L 349 324.516 349 256.538 L 349 188.560 311.250 150.713 C 290.488 129.898, 272.703 112.426, 271.730 111.887 C 270.236 111.061, 261.383 119.380, 214.991 165.204 M 252.977 134.515 L 236.462 151.031 269.667 184.182 L 302.873 217.333 309.226 212.916 C 312.721 210.487, 321.727 204.225, 329.240 199 L 342.901 189.500 307.206 153.750 C 287.573 134.088, 271.056 118, 270.501 118 C 269.947 118, 262.061 125.432, 252.977 134.515 M 198.683 188.817 L 165 222.511 165 293.255 L 165 364 232 364 L 299 364 299 292.125 L 299 220.249 265.683 187.686 L 232.366 155.123 198.683 188.817 M 324 208.910 L 304.500 222.700 304.243 292.056 L 303.986 361.412 323.858 341.956 L 343.731 322.500 343.865 258.750 C 343.939 223.688, 343.887 195.027, 343.750 195.060 C 343.613 195.093, 334.725 201.326, 324 208.910" stroke="none" fill="#060505" fill-rule="evenodd"/><path d="M 271.122 111.250 C 271.373 111.388, 288.661 128.375, 309.539 149 L 347.500 186.500 310.005 148.750 C 289.383 127.987, 272.095 111, 271.588 111 C 271.081 111, 270.872 111.112, 271.122 111.250 M 252.977 134.515 L 236.462 151.031 269.667 184.182 L 302.873 217.333 309.226 212.916 C 312.721 210.487, 321.727 204.225, 329.240 199 L 342.901 189.500 307.206 153.750 C 287.573 134.088, 271.056 118, 270.501 118 C 269.947 118, 262.061 125.432, 252.977 134.515 M 198.683 188.817 L 165 222.511 165 293.255 L 165 364 232 364 L 299 364 299 292.125 L 299 220.249 265.683 187.686 L 232.366 155.123 198.683 188.817 M 204.986 174.750 L 191.500 188.500 205.250 175.014 C 218.023 162.486, 219.453 161, 218.736 161 C 218.591 161, 212.403 167.188, 204.986 174.750 M 349.453 225.500 C 349.453 245.850, 349.586 254.033, 349.749 243.685 C 349.912 233.336, 349.911 216.686, 349.748 206.685 C 349.585 196.683, 349.452 205.150, 349.453 225.500 M 324 208.910 L 304.500 222.700 304.243 292.056 L 303.986 361.412 323.858 341.956 L 343.731 322.500 343.865 258.750 C 343.939 223.688, 343.887 195.027, 343.750 195.060 C 343.613 195.093, 334.725 201.326, 324 208.910 M 160 365.941 C 160 367.009, 160.385 368.120, 160.856 368.411 C 161.326 368.702, 161.499 367.828, 161.239 366.470 C 160.675 363.519, 160 363.231, 160 365.941 M 197.323 369.750 C 216.476 369.902, 247.526 369.902, 266.323 369.749 C 285.120 369.597, 269.450 369.473, 231.500 369.473 C 193.550 369.473, 178.170 369.598, 197.323 369.750" stroke="none" fill="#d30404" fill-rule="evenodd"/></svg>