<svg xmlns="http://www.w3.org/2000/svg" width="523" height="477" viewBox="0 0 523 477" version="1.1"><path d="M 202.166 133.113 L 115.952 219.225 116.226 335.959 C 116.455 433.428, 116.728 452.968, 117.880 454.355 C 119.150 455.886, 127.832 456.015, 228.002 455.991 C 287.811 455.977, 337.452 456.236, 338.314 456.567 C 339.177 456.898, 340.576 457.019, 341.424 456.835 C 342.271 456.651, 358.947 440.552, 378.482 421.060 L 414 385.620 414 278.290 L 414 170.960 411.590 167.230 C 407.488 160.879, 292.717 47, 290.420 47 C 289.049 47, 260.076 75.270, 202.166 133.113 M 262.743 83.757 L 236 110.514 288.408 162.898 L 340.815 215.283 345.341 212.391 C 347.829 210.801, 361.682 201.175, 376.124 191 C 390.566 180.825, 402.859 172.173, 403.441 171.773 C 404.065 171.345, 381.071 147.606, 347.503 114.023 C 316.155 82.660, 290.277 57, 289.996 57 C 289.716 57, 277.452 69.041, 262.743 83.757 M 177.096 169.404 L 124 222.507 124 335.253 L 124 448 229.500 448 L 335 448 335 334.584 L 335 221.168 282.596 168.734 L 230.193 116.300 177.096 169.404 M 399.894 184.345 C 397.477 186.185, 392.350 189.866, 388.500 192.527 C 377.425 200.180, 372.061 203.944, 360.035 212.500 C 353.850 216.900, 347.713 221.175, 346.397 222 L 344.004 223.500 344.002 333.405 L 344 443.310 346.115 441.405 C 347.278 440.357, 361.228 426.496, 377.115 410.603 L 406 381.706 406 281.353 C 406 226.159, 405.615 181, 405.144 181 C 404.673 181, 402.310 182.505, 399.894 184.345" stroke="none" fill="#040706" fill-rule="evenodd"/><path d="M 201.256 131.256 L 115 217.513 115.246 332.006 L 115.491 446.500 115.750 332.834 L 116.008 219.169 202.194 133.084 C 260.090 75.257, 289.049 47, 290.420 47 C 292.724 47, 409.086 162.519, 411.642 167.343 C 412.470 168.907, 413.372 169.962, 413.646 169.687 C 415.171 168.162, 403.678 156.008, 350.820 103.250 C 305.163 57.679, 291.922 45, 289.986 45 C 288.041 45, 269.102 63.411, 201.256 131.256 M 262.743 83.757 L 236 110.514 288.408 162.898 L 340.815 215.283 345.341 212.391 C 347.829 210.801, 361.682 201.175, 376.124 191 C 390.566 180.825, 402.859 172.173, 403.441 171.773 C 404.065 171.345, 381.071 147.606, 347.503 114.023 C 316.155 82.660, 290.277 57, 289.996 57 C 289.716 57, 277.452 69.041, 262.743 83.757 M 177.096 169.404 L 124 222.507 124 335.253 L 124 448 229.500 448 L 335 448 335 334.584 L 335 221.168 282.596 168.734 L 230.193 116.300 177.096 169.404 M 414.482 278 C 414.482 337.125, 414.603 361.313, 414.750 331.750 C 414.897 302.188, 414.897 253.813, 414.750 224.250 C 414.603 194.688, 414.482 218.875, 414.482 278 M 399.894 184.345 C 397.477 186.185, 392.350 189.866, 388.500 192.527 C 377.425 200.180, 372.061 203.944, 360.035 212.500 C 353.850 216.900, 347.713 221.175, 346.397 222 L 344.004 223.500 344.002 333.405 L 344 443.310 346.115 441.405 C 347.278 440.357, 361.228 426.496, 377.115 410.603 L 406 381.706 406 281.353 C 406 226.159, 405.615 181, 405.144 181 C 404.673 181, 402.310 182.505, 399.894 184.345" stroke="none" fill="#047353" fill-rule="evenodd"/></svg>