<svg xmlns="http://www.w3.org/2000/svg" width="486" height="514" viewBox="0 0 486 514" version="1.1"><path d="M 196.727 180.849 L 114.955 262.633 115.019 372.067 C 115.054 432.255, 115.204 482.996, 115.354 484.825 C 115.503 486.654, 116.272 488.562, 117.063 489.065 C 117.908 489.603, 161.175 489.976, 222.121 489.972 C 279.112 489.967, 326.448 490.235, 327.312 490.566 C 328.176 490.898, 329.582 491.019, 330.435 490.835 C 331.289 490.651, 347.290 475.215, 365.994 456.534 L 400 422.569 400 319.637 L 400 216.706 396.262 212.103 C 394.205 209.571, 368.092 183.088, 338.233 153.250 C 292.799 107.850, 283.498 99.005, 281.221 99.032 C 278.965 99.059, 264.530 113.036, 196.727 180.849 M 255.356 133.576 L 229.784 159.153 279.642 209.055 C 307.064 236.501, 329.950 258.965, 330.500 258.974 C 331.050 258.984, 333.750 257.287, 336.500 255.203 C 339.250 253.120, 344.650 249.323, 348.500 246.766 C 352.350 244.208, 358.200 240.150, 361.500 237.747 C 364.800 235.344, 372.832 229.626, 379.348 225.040 L 391.196 216.703 336.851 162.351 C 306.962 132.458, 282.152 108, 281.717 108 C 281.283 108, 269.420 119.509, 255.356 133.576 M 173.604 215.210 L 123.026 265.919 122.763 373.960 L 122.500 482 223.750 482 L 325 482 325 373.782 L 325 265.565 274.591 215.032 L 224.182 164.500 173.604 215.210 M 382.851 232.469 C 378.094 235.786, 370.975 240.750, 367.030 243.500 C 363.086 246.250, 355.278 251.794, 349.679 255.820 C 344.081 259.846, 338.038 264.053, 336.250 265.169 L 333 267.198 333 372.847 L 333 478.496 362.505 448.991 L 392.010 419.486 391.755 322.962 L 391.500 226.439 382.851 232.469" stroke="none" fill="#040506" fill-rule="evenodd"/><path d="M 280.269 98.693 C 281.242 98.947, 282.592 98.930, 283.269 98.656 C 283.946 98.382, 283.150 98.175, 281.500 98.195 C 279.850 98.215, 279.296 98.439, 280.269 98.693 M 290.958 106.250 C 295.102 110.665, 296 111.459, 296 110.708 C 296 110.548, 293.863 108.410, 291.250 105.958 L 286.500 101.500 290.958 106.250 M 255.356 133.576 L 229.784 159.153 279.642 209.055 C 307.064 236.501, 329.950 258.965, 330.500 258.974 C 331.050 258.984, 333.750 257.287, 336.500 255.203 C 339.250 253.120, 344.650 249.323, 348.500 246.766 C 352.350 244.208, 358.200 240.150, 361.500 237.747 C 364.800 235.344, 372.832 229.626, 379.348 225.040 L 391.196 216.703 336.851 162.351 C 306.962 132.458, 282.152 108, 281.717 108 C 281.283 108, 269.420 119.509, 255.356 133.576 M 300 114.500 C 301.292 115.875, 302.574 117, 302.849 117 C 303.124 117, 302.292 115.875, 301 114.500 C 299.708 113.125, 298.426 112, 298.151 112 C 297.876 112, 298.708 113.125, 300 114.500 M 307.958 123.250 C 312.102 127.665, 313 128.459, 313 127.708 C 313 127.548, 310.863 125.410, 308.250 122.958 L 303.500 118.500 307.958 123.250 M 317.500 132 C 319.648 134.200, 321.631 136, 321.906 136 C 322.181 136, 320.648 134.200, 318.500 132 C 316.352 129.800, 314.369 128, 314.094 128 C 313.819 128, 315.352 129.800, 317.500 132 M 325.500 141 C 327.648 143.200, 329.631 145, 329.906 145 C 330.181 145, 328.648 143.200, 326.500 141 C 324.352 138.800, 322.369 137, 322.094 137 C 321.819 137, 323.352 138.800, 325.500 141 M 334.500 149 C 336.648 151.200, 338.631 153, 338.906 153 C 339.181 153, 337.648 151.200, 335.500 149 C 333.352 146.800, 331.369 145, 331.094 145 C 330.819 145, 332.352 146.800, 334.500 149 M 342.500 158 C 344.648 160.200, 346.631 162, 346.906 162 C 347.181 162, 345.648 160.200, 343.500 158 C 341.352 155.800, 339.369 154, 339.094 154 C 338.819 154, 340.352 155.800, 342.500 158 M 351.500 166 C 353.648 168.200, 355.631 170, 355.906 170 C 356.181 170, 354.648 168.200, 352.500 166 C 350.352 163.800, 348.369 162, 348.094 162 C 347.819 162, 349.352 163.800, 351.500 166 M 173.604 215.210 L 123.026 265.919 122.763 373.960 L 122.500 482 223.750 482 L 325 482 325 373.782 L 325 265.565 274.591 215.032 L 224.182 164.500 173.604 215.210 M 359.500 175 C 361.648 177.200, 363.631 179, 363.906 179 C 364.181 179, 362.648 177.200, 360.500 175 C 358.352 172.800, 356.369 171, 356.094 171 C 355.819 171, 357.352 172.800, 359.500 175 M 368.958 183.250 C 371.410 185.863, 373.548 188, 373.708 188 C 374.459 188, 373.665 187.102, 369.250 182.958 L 364.500 178.500 368.958 183.250 M 377.500 193 C 379.648 195.200, 381.631 197, 381.906 197 C 382.181 197, 380.648 195.200, 378.500 193 C 376.352 190.800, 374.369 189, 374.094 189 C 373.819 189, 375.352 190.800, 377.500 193 M 386.500 201 C 388.648 203.200, 390.631 205, 390.906 205 C 391.181 205, 389.648 203.200, 387.500 201 C 385.352 198.800, 383.369 197, 383.094 197 C 382.819 197, 384.352 198.800, 386.500 201 M 395.175 210.748 L 399.500 215.996 400.007 319.748 L 400.514 423.500 400.757 319.940 L 401 216.381 395.925 210.940 L 390.850 205.500 395.175 210.748 M 382.851 232.469 C 378.094 235.786, 370.975 240.750, 367.030 243.500 C 363.086 246.250, 355.278 251.794, 349.679 255.820 C 344.081 259.846, 338.038 264.053, 336.250 265.169 L 333 267.198 333 372.847 L 333 478.496 362.505 448.991 L 392.010 419.486 391.755 322.962 L 391.500 226.439 382.851 232.469 M 114.478 351.500 C 114.478 398.800, 114.600 418.004, 114.750 394.175 C 114.899 370.346, 114.899 331.646, 114.750 308.175 C 114.600 284.704, 114.478 304.200, 114.478 351.500 M 394.946 427.750 L 391.500 431.500 395.250 428.054 C 397.313 426.158, 399 424.471, 399 424.304 C 399 423.540, 398.154 424.260, 394.946 427.750 M 382.477 440.250 L 374.500 448.500 382.750 440.523 C 387.288 436.136, 391 432.424, 391 432.273 C 391 431.544, 389.885 432.588, 382.477 440.250 M 114.204 460.191 C 114.092 472.671, 114.338 483.091, 114.750 483.348 C 115.162 483.604, 115.384 476.993, 115.242 468.657 C 114.759 440.315, 114.408 437.449, 114.204 460.191 M 370.437 452.250 L 367.500 455.500 370.750 452.563 C 372.538 450.948, 374 449.485, 374 449.313 C 374 448.540, 373.175 449.221, 370.437 452.250 M 358.477 464.250 L 350.500 472.500 358.750 464.523 C 366.412 457.115, 367.456 456, 366.727 456 C 366.576 456, 362.864 459.712, 358.477 464.250 M 341.477 481.250 L 333.500 489.500 341.750 481.523 C 346.288 477.136, 350 473.424, 350 473.273 C 350 472.544, 348.885 473.588, 341.477 481.250" stroke="none" fill="#04438b" fill-rule="evenodd"/></svg>