<svg xmlns="http://www.w3.org/2000/svg" width="1091" height="229" viewBox="0 0 1091 229" version="1.1"><path d="M 44.461 123 C 44.461 148.025, 44.590 158.263, 44.749 145.750 C 44.908 133.238, 44.908 112.763, 44.749 100.250 C 44.590 87.738, 44.461 97.975, 44.461 123 M 63.237 122.750 L 63.500 157.500 540.250 157.751 L 1017 158.002 1017 123.001 L 1017 88 539.987 88 L 62.974 88 63.237 122.750 M 296.332 176.750 C 430.989 176.890, 651.039 176.890, 785.332 176.750 C 919.624 176.610, 809.450 176.496, 540.500 176.496 C 271.550 176.496, 161.674 176.610, 296.332 176.750" stroke="none" fill="#d30404" fill-rule="evenodd"/><path d="M 49.775 70.559 C 48.276 71.372, 46.589 72.900, 46.025 73.953 C 45.366 75.184, 45 92.812, 45 123.288 L 45 170.708 47.452 173.354 L 49.905 176 540.363 176 L 1030.822 176 1033.411 172.923 L 1036 169.847 1036 123.374 C 1036 72.122, 1036.014 72.246, 1029.881 70.108 C 1027.570 69.303, 893.612 69.011, 539.601 69.040 C 111.684 69.075, 52.169 69.260, 49.775 70.559 M 63.237 122.750 L 63.500 157.500 540.250 157.751 L 1017 158.002 1017 123.001 L 1017 88 539.987 88 L 62.974 88 63.237 122.750" stroke="none" fill="#050505" fill-rule="evenodd"/></svg>