<svg xmlns="http://www.w3.org/2000/svg" width="1389" height="179" viewBox="0 0 1389 179" version="1.1"><path d="M 371.168 25.750 C 524.985 25.889, 776.985 25.889, 931.168 25.750 C 1085.351 25.611, 959.500 25.496, 651.500 25.496 C 343.500 25.496, 217.351 25.611, 371.168 25.750 M 103.239 86.750 L 103.500 126.500 651.250 126.751 L 1199 127.002 1199 87.001 L 1199 47 650.989 47 L 102.977 47 103.239 86.750 M 371.168 148.750 C 524.985 148.889, 776.985 148.889, 931.168 148.750 C 1085.351 148.611, 959.500 148.496, 651.500 148.496 C 343.500 148.496, 217.351 148.611, 371.168 148.750" stroke="none" fill="#f39b23" fill-rule="evenodd"/><path d="M 86.786 27.553 C 85.078 28.480, 83.669 30.411, 82.983 32.763 C 82.239 35.312, 81.989 53.297, 82.196 89.333 L 82.500 142.165 85.766 145.083 L 89.032 148 651.370 148 L 1213.708 148 1216.364 145.538 C 1217.825 144.184, 1219.466 141.905, 1220.010 140.473 C 1220.616 138.879, 1221 118.111, 1221 86.903 C 1221 32.175, 1220.912 31.153, 1215.883 27.631 C 1213.737 26.128, 1169.548 26.003, 651.527 26.040 C 158.490 26.075, 89.167 26.261, 86.786 27.553 M 103.239 86.750 L 103.500 126.500 651.250 126.751 L 1199 127.002 1199 87.001 L 1199 47 650.989 47 L 102.977 47 103.239 86.750" stroke="none" fill="#040404" fill-rule="evenodd"/></svg>