<svg xmlns="http://www.w3.org/2000/svg" width="1232" height="202" viewBox="0 0 1232 202" version="1.1"><path d="M 95 66.705 C 94.175 67.007, 92.487 68.176, 91.250 69.302 L 89 71.349 89 117.500 L 89 163.651 91.581 166.076 L 94.161 168.500 565.500 168.500 L 1036.839 168.500 1039.419 166.076 L 1042 163.651 1042 117.500 L 1042 71.349 1039.419 68.924 L 1036.839 66.500 566.669 66.327 C 308.076 66.232, 95.825 66.402, 95 66.705 M 106 117.500 L 106 151 565.500 151 L 1025 151 1025 117.500 L 1025 84 565.500 84 L 106 84 106 117.500" stroke="none" fill="#050505" fill-rule="evenodd"/><path d="M 88.461 117.500 C 88.461 142.800, 88.591 153.007, 88.749 140.181 C 88.908 127.356, 88.907 106.656, 88.749 94.181 C 88.590 81.707, 88.461 92.200, 88.461 117.500 M 1042.461 117.500 C 1042.461 142.800, 1042.591 153.007, 1042.749 140.181 C 1042.908 127.356, 1042.907 106.656, 1042.749 94.181 C 1042.590 81.707, 1042.461 92.200, 1042.461 117.500 M 106 117.500 L 106 151 565.500 151 L 1025 151 1025 117.500 L 1025 84 565.500 84 L 106 84 106 117.500" stroke="none" fill="#04448b" fill-rule="evenodd"/></svg>