<svg xmlns="http://www.w3.org/2000/svg" width="1264" height="197" viewBox="0 0 1264 197" version="1.1"><path d="M 1118.463 112 C 1118.463 138.675, 1118.592 149.588, 1118.749 136.250 C 1118.907 122.913, 1118.907 101.088, 1118.749 87.750 C 1118.592 74.412, 1118.463 85.325, 1118.463 112 M 102.462 112.500 C 102.463 138.900, 102.592 149.556, 102.749 136.181 C 102.907 122.805, 102.907 101.205, 102.749 88.181 C 102.591 75.156, 102.462 86.100, 102.462 112.500 M 122 112 L 122 148 610.500 148 L 1099 148 1099 112 L 1099 76 610.500 76 L 122 76 122 112" stroke="none" fill="#047353" fill-rule="evenodd"/><path d="M 109.295 58.107 C 102.813 59.981, 103 58.376, 103 112.268 L 103 161.091 105.388 163.479 C 106.702 164.793, 109.289 166.137, 111.138 166.467 C 112.987 166.797, 339.201 166.940, 613.837 166.784 L 1113.173 166.500 1115.587 163.694 L 1118 160.888 1118 112.378 C 1118 79.542, 1117.651 63.216, 1116.920 61.850 C 1114.155 56.684, 1147.058 56.993, 610.782 57.090 C 308.097 57.145, 111.242 57.544, 109.295 58.107 M 122 112 L 122 148 610.500 148 L 1099 148 1099 112 L 1099 76 610.500 76 L 122 76 122 112" stroke="none" fill="#050505" fill-rule="evenodd"/></svg>