<svg xmlns="http://www.w3.org/2000/svg" xmlns:xlink="http://www.w3.org/1999/xlink" width="50" zoomAndPan="magnify" viewBox="0 0 37.5 37.499999" height="50" preserveAspectRatio="xMidYMid meet" version="1.0"><defs><g/><clipPath id="6472b4778a"><path d="M 13.835938 13.835938 L 23.664062 13.835938 L 23.664062 23.664062 L 13.835938 23.664062 Z M 13.835938 13.835938 " clip-rule="nonzero"/></clipPath><clipPath id="00018d3d86"><path d="M 18.75 13.835938 C 16.035156 13.835938 13.835938 16.035156 13.835938 18.75 C 13.835938 21.464844 16.035156 23.664062 18.75 23.664062 C 21.464844 23.664062 23.664062 21.464844 23.664062 18.75 C 23.664062 16.035156 21.464844 13.835938 18.75 13.835938 " clip-rule="nonzero"/></clipPath></defs><g clip-path="url(#6472b4778a)"><g clip-path="url(#00018d3d86)"><path fill="#ffebce" d="M 13.835938 13.835938 L 23.664062 13.835938 L 23.664062 23.664062 L 13.835938 23.664062 Z M 13.835938 13.835938 " fill-opacity="1" fill-rule="nonzero"/></g></g><g fill="#000000" fill-opacity="1"><g transform="translate(17.634374, 19.158327)"><g><path d="M 0.140625 -0.234375 C 0.140625 -0.390625 0.15625 -0.519531 0.1875 -0.625 C 0.226562 -0.726562 0.285156 -0.828125 0.359375 -0.921875 C 0.441406 -1.015625 0.550781 -1.109375 0.6875 -1.203125 L 1.078125 -1.484375 C 1.179688 -1.554688 1.257812 -1.617188 1.3125 -1.671875 C 1.375 -1.734375 1.414062 -1.789062 1.4375 -1.84375 C 1.46875 -1.90625 1.484375 -1.976562 1.484375 -2.0625 C 1.484375 -2.175781 1.445312 -2.265625 1.375 -2.328125 C 1.3125 -2.390625 1.207031 -2.421875 1.0625 -2.421875 C 0.925781 -2.421875 0.804688 -2.382812 0.703125 -2.3125 C 0.597656 -2.25 0.515625 -2.164062 0.453125 -2.0625 L 0.40625 -2.046875 L 0.09375 -2.390625 C 0.195312 -2.546875 0.328125 -2.664062 0.484375 -2.75 C 0.648438 -2.84375 0.851562 -2.890625 1.09375 -2.890625 C 1.300781 -2.890625 1.476562 -2.851562 1.625 -2.78125 C 1.769531 -2.71875 1.875 -2.625 1.9375 -2.5 C 2.007812 -2.382812 2.046875 -2.242188 2.046875 -2.078125 C 2.046875 -1.941406 2.015625 -1.816406 1.953125 -1.703125 C 1.898438 -1.597656 1.820312 -1.5 1.71875 -1.40625 C 1.625 -1.3125 1.5 -1.207031 1.34375 -1.09375 L 1.015625 -0.859375 C 0.910156 -0.785156 0.835938 -0.71875 0.796875 -0.65625 C 0.753906 -0.601562 0.734375 -0.539062 0.734375 -0.46875 L 2.03125 -0.46875 L 2.03125 0 L 0.140625 0 Z M 0.140625 -0.234375 "/></g></g></g><g fill="#000000" fill-opacity="1"><g transform="translate(18.334452, 21.450004)"><g><path d="M 0.40625 0.015625 C 0.351562 0.015625 0.304688 0.00390625 0.265625 -0.015625 C 0.234375 -0.0351562 0.207031 -0.0625 0.1875 -0.09375 C 0.164062 -0.132812 0.15625 -0.179688 0.15625 -0.234375 C 0.15625 -0.273438 0.164062 -0.3125 0.1875 -0.34375 C 0.207031 -0.382812 0.234375 -0.414062 0.265625 -0.4375 C 0.304688 -0.46875 0.351562 -0.484375 0.40625 -0.484375 C 0.46875 -0.484375 0.515625 -0.472656 0.546875 -0.453125 C 0.585938 -0.429688 0.617188 -0.398438 0.640625 -0.359375 C 0.660156 -0.316406 0.671875 -0.273438 0.671875 -0.234375 C 0.671875 -0.160156 0.644531 -0.0976562 0.59375 -0.046875 C 0.550781 -0.00390625 0.488281 0.015625 0.40625 0.015625 Z M 0.40625 0.015625 "/></g></g></g></svg>