<svg xmlns="http://www.w3.org/2000/svg" xmlns:xlink="http://www.w3.org/1999/xlink" width="50" zoomAndPan="magnify" viewBox="0 0 37.5 37.499999" height="50" preserveAspectRatio="xMidYMid meet" version="1.0"><defs><g/><clipPath id="31dd9b66cb"><path d="M 13.835938 13.835938 L 23.664062 13.835938 L 23.664062 23.664062 L 13.835938 23.664062 Z M 13.835938 13.835938 " clip-rule="nonzero"/></clipPath><clipPath id="9090ecdb4d"><path d="M 18.75 13.835938 C 16.035156 13.835938 13.835938 16.035156 13.835938 18.75 C 13.835938 21.464844 16.035156 23.664062 18.75 23.664062 C 21.464844 23.664062 23.664062 21.464844 23.664062 18.75 C 23.664062 16.035156 21.464844 13.835938 18.75 13.835938 " clip-rule="nonzero"/></clipPath></defs><g clip-path="url(#31dd9b66cb)"><g clip-path="url(#9090ecdb4d)"><path fill="#ffebce" d="M 13.835938 13.835938 L 23.664062 13.835938 L 23.664062 23.664062 L 13.835938 23.664062 Z M 13.835938 13.835938 " fill-opacity="1" fill-rule="nonzero"/></g></g><g fill="#000000" fill-opacity="1"><g transform="translate(17.566666, 19.158327)"><g><path d="M 1.171875 0.046875 C 0.859375 0.046875 0.613281 -0.015625 0.4375 -0.140625 C 0.257812 -0.273438 0.144531 -0.460938 0.09375 -0.703125 L 0.515625 -0.90625 L 0.5625 -0.890625 C 0.613281 -0.734375 0.679688 -0.617188 0.765625 -0.546875 C 0.859375 -0.472656 0.984375 -0.4375 1.140625 -0.4375 C 1.296875 -0.4375 1.414062 -0.472656 1.5 -0.546875 C 1.582031 -0.617188 1.625 -0.722656 1.625 -0.859375 C 1.625 -0.992188 1.582031 -1.097656 1.5 -1.171875 C 1.414062 -1.242188 1.296875 -1.28125 1.140625 -1.28125 L 0.71875 -1.28125 L 0.71875 -1.71875 L 1.09375 -1.71875 C 1.21875 -1.71875 1.316406 -1.75 1.390625 -1.8125 C 1.472656 -1.875 1.515625 -1.96875 1.515625 -2.09375 C 1.515625 -2.207031 1.476562 -2.289062 1.40625 -2.34375 C 1.332031 -2.40625 1.234375 -2.4375 1.109375 -2.4375 C 0.984375 -2.4375 0.867188 -2.40625 0.765625 -2.34375 C 0.671875 -2.289062 0.59375 -2.210938 0.53125 -2.109375 L 0.484375 -2.09375 L 0.1875 -2.453125 C 0.289062 -2.585938 0.421875 -2.691406 0.578125 -2.765625 C 0.734375 -2.847656 0.921875 -2.890625 1.140625 -2.890625 C 1.441406 -2.890625 1.671875 -2.828125 1.828125 -2.703125 C 1.984375 -2.578125 2.0625 -2.40625 2.0625 -2.1875 C 2.0625 -2.050781 2.03125 -1.929688 1.96875 -1.828125 C 1.90625 -1.734375 1.8125 -1.648438 1.6875 -1.578125 L 1.6875 -1.546875 C 2.019531 -1.421875 2.1875 -1.1875 2.1875 -0.84375 C 2.1875 -0.664062 2.144531 -0.507812 2.0625 -0.375 C 1.988281 -0.238281 1.875 -0.132812 1.71875 -0.0625 C 1.570312 0.0078125 1.390625 0.046875 1.171875 0.046875 Z M 1.171875 0.046875 "/></g></g></g><g fill="#000000" fill-opacity="1"><g transform="translate(17.838358, 21.44999)"><g><path d="M 0.40625 0.015625 C 0.351562 0.015625 0.304688 0.00390625 0.265625 -0.015625 C 0.234375 -0.0351562 0.207031 -0.0625 0.1875 -0.09375 C 0.164062 -0.132812 0.15625 -0.179688 0.15625 -0.234375 C 0.15625 -0.273438 0.164062 -0.3125 0.1875 -0.34375 C 0.207031 -0.382812 0.234375 -0.414062 0.265625 -0.4375 C 0.304688 -0.46875 0.351562 -0.484375 0.40625 -0.484375 C 0.46875 -0.484375 0.515625 -0.472656 0.546875 -0.453125 C 0.585938 -0.429688 0.617188 -0.398438 0.640625 -0.359375 C 0.660156 -0.316406 0.671875 -0.273438 0.671875 -0.234375 C 0.671875 -0.160156 0.644531 -0.0976562 0.59375 -0.046875 C 0.550781 -0.00390625 0.488281 0.015625 0.40625 0.015625 Z M 0.40625 0.015625 "/></g></g></g><g fill="#000000" fill-opacity="1"><g transform="translate(18.830994, 21.44999)"><g><path d="M 0.40625 0.015625 C 0.351562 0.015625 0.304688 0.00390625 0.265625 -0.015625 C 0.234375 -0.0351562 0.207031 -0.0625 0.1875 -0.09375 C 0.164062 -0.132812 0.15625 -0.179688 0.15625 -0.234375 C 0.15625 -0.273438 0.164062 -0.3125 0.1875 -0.34375 C 0.207031 -0.382812 0.234375 -0.414062 0.265625 -0.4375 C 0.304688 -0.46875 0.351562 -0.484375 0.40625 -0.484375 C 0.46875 -0.484375 0.515625 -0.472656 0.546875 -0.453125 C 0.585938 -0.429688 0.617188 -0.398438 0.640625 -0.359375 C 0.660156 -0.316406 0.671875 -0.273438 0.671875 -0.234375 C 0.671875 -0.160156 0.644531 -0.0976562 0.59375 -0.046875 C 0.550781 -0.00390625 0.488281 0.015625 0.40625 0.015625 Z M 0.40625 0.015625 "/></g></g></g></svg>