<svg xmlns="http://www.w3.org/2000/svg" xmlns:xlink="http://www.w3.org/1999/xlink" width="50" zoomAndPan="magnify" viewBox="0 0 37.5 37.499999" height="50" preserveAspectRatio="xMidYMid meet" version="1.0"><defs><g/><clipPath id="e7de76c459"><path d="M 13.835938 13.835938 L 23.664062 13.835938 L 23.664062 23.664062 L 13.835938 23.664062 Z M 13.835938 13.835938 " clip-rule="nonzero"/></clipPath><clipPath id="6d5260bf3f"><path d="M 18.75 13.835938 C 16.035156 13.835938 13.835938 16.035156 13.835938 18.75 C 13.835938 21.464844 16.035156 23.664062 18.75 23.664062 C 21.464844 23.664062 23.664062 21.464844 23.664062 18.75 C 23.664062 16.035156 21.464844 13.835938 18.75 13.835938 " clip-rule="nonzero"/></clipPath></defs><g clip-path="url(#e7de76c459)"><g clip-path="url(#6d5260bf3f)"><path fill="#ffebce" d="M 13.835938 13.835938 L 23.664062 13.835938 L 23.664062 23.664062 L 13.835938 23.664062 Z M 13.835938 13.835938 " fill-opacity="1" fill-rule="nonzero"/></g></g><g fill="#000000" fill-opacity="1"><g transform="translate(17.504166, 19.158342)"><g><path d="M 1.9375 0 L 1.40625 0 L 1.40625 -0.625 L 0.09375 -0.625 L 0.09375 -1.078125 L 1.21875 -2.859375 L 1.9375 -2.859375 L 1.9375 -1.078125 L 2.375 -1.078125 L 2.375 -0.625 L 1.9375 -0.625 Z M 0.671875 -1.125 L 0.6875 -1.078125 L 1.40625 -1.078125 L 1.40625 -2.1875 L 1.359375 -2.1875 Z M 0.671875 -1.125 "/></g></g></g><g fill="#000000" fill-opacity="1"><g transform="translate(17.342265, 21.450004)"><g><path d="M 0.40625 0.015625 C 0.351562 0.015625 0.304688 0.00390625 0.265625 -0.015625 C 0.234375 -0.0351562 0.207031 -0.0625 0.1875 -0.09375 C 0.164062 -0.132812 0.15625 -0.179688 0.15625 -0.234375 C 0.15625 -0.273438 0.164062 -0.3125 0.1875 -0.34375 C 0.207031 -0.382812 0.234375 -0.414062 0.265625 -0.4375 C 0.304688 -0.46875 0.351562 -0.484375 0.40625 -0.484375 C 0.46875 -0.484375 0.515625 -0.472656 0.546875 -0.453125 C 0.585938 -0.429688 0.617188 -0.398438 0.640625 -0.359375 C 0.660156 -0.316406 0.671875 -0.273438 0.671875 -0.234375 C 0.671875 -0.160156 0.644531 -0.0976562 0.59375 -0.046875 C 0.550781 -0.00390625 0.488281 0.015625 0.40625 0.015625 Z M 0.40625 0.015625 "/></g></g></g><g fill="#000000" fill-opacity="1"><g transform="translate(18.334902, 21.450004)"><g><path d="M 0.40625 0.015625 C 0.351562 0.015625 0.304688 0.00390625 0.265625 -0.015625 C 0.234375 -0.0351562 0.207031 -0.0625 0.1875 -0.09375 C 0.164062 -0.132812 0.15625 -0.179688 0.15625 -0.234375 C 0.15625 -0.273438 0.164062 -0.3125 0.1875 -0.34375 C 0.207031 -0.382812 0.234375 -0.414062 0.265625 -0.4375 C 0.304688 -0.46875 0.351562 -0.484375 0.40625 -0.484375 C 0.46875 -0.484375 0.515625 -0.472656 0.546875 -0.453125 C 0.585938 -0.429688 0.617188 -0.398438 0.640625 -0.359375 C 0.660156 -0.316406 0.671875 -0.273438 0.671875 -0.234375 C 0.671875 -0.160156 0.644531 -0.0976562 0.59375 -0.046875 C 0.550781 -0.00390625 0.488281 0.015625 0.40625 0.015625 Z M 0.40625 0.015625 "/></g></g></g><g fill="#000000" fill-opacity="1"><g transform="translate(19.327539, 21.450004)"><g><path d="M 0.40625 0.015625 C 0.351562 0.015625 0.304688 0.00390625 0.265625 -0.015625 C 0.234375 -0.0351562 0.207031 -0.0625 0.1875 -0.09375 C 0.164062 -0.132812 0.15625 -0.179688 0.15625 -0.234375 C 0.15625 -0.273438 0.164062 -0.3125 0.1875 -0.34375 C 0.207031 -0.382812 0.234375 -0.414062 0.265625 -0.4375 C 0.304688 -0.46875 0.351562 -0.484375 0.40625 -0.484375 C 0.46875 -0.484375 0.515625 -0.472656 0.546875 -0.453125 C 0.585938 -0.429688 0.617188 -0.398438 0.640625 -0.359375 C 0.660156 -0.316406 0.671875 -0.273438 0.671875 -0.234375 C 0.671875 -0.160156 0.644531 -0.0976562 0.59375 -0.046875 C 0.550781 -0.00390625 0.488281 0.015625 0.40625 0.015625 Z M 0.40625 0.015625 "/></g></g></g></svg>