<svg xmlns="http://www.w3.org/2000/svg" xmlns:xlink="http://www.w3.org/1999/xlink" width="50" zoomAndPan="magnify" viewBox="0 0 37.5 37.499999" height="50" preserveAspectRatio="xMidYMid meet" version="1.0"><defs><g/><clipPath id="a904bcafdc"><path d="M 13.835938 13.835938 L 23.664062 13.835938 L 23.664062 23.664062 L 13.835938 23.664062 Z M 13.835938 13.835938 " clip-rule="nonzero"/></clipPath><clipPath id="7ffc895f8c"><path d="M 18.75 13.835938 C 16.035156 13.835938 13.835938 16.035156 13.835938 18.75 C 13.835938 21.464844 16.035156 23.664062 18.75 23.664062 C 21.464844 23.664062 23.664062 21.464844 23.664062 18.75 C 23.664062 16.035156 21.464844 13.835938 18.75 13.835938 " clip-rule="nonzero"/></clipPath></defs><g clip-path="url(#a904bcafdc)"><g clip-path="url(#7ffc895f8c)"><path fill="#ffebce" d="M 13.835938 13.835938 L 23.664062 13.835938 L 23.664062 23.664062 L 13.835938 23.664062 Z M 13.835938 13.835938 " fill-opacity="1" fill-rule="nonzero"/></g></g><g fill="#000000" fill-opacity="1"><g transform="translate(17.545832, 19.158331)"><g><path d="M 1.1875 0.046875 C 0.90625 0.046875 0.679688 -0.0078125 0.515625 -0.125 C 0.347656 -0.25 0.238281 -0.421875 0.1875 -0.640625 L 0.609375 -0.828125 L 0.65625 -0.828125 C 0.695312 -0.703125 0.757812 -0.601562 0.84375 -0.53125 C 0.925781 -0.46875 1.039062 -0.4375 1.1875 -0.4375 C 1.332031 -0.4375 1.445312 -0.476562 1.53125 -0.5625 C 1.613281 -0.65625 1.65625 -0.785156 1.65625 -0.953125 C 1.65625 -1.117188 1.613281 -1.242188 1.53125 -1.328125 C 1.445312 -1.410156 1.335938 -1.453125 1.203125 -1.453125 C 1.097656 -1.453125 1.007812 -1.425781 0.9375 -1.375 C 0.863281 -1.332031 0.800781 -1.269531 0.75 -1.1875 L 0.296875 -1.21875 L 0.34375 -2.859375 L 2.046875 -2.859375 L 2.046875 -2.375 L 0.828125 -2.375 L 0.796875 -1.65625 L 0.84375 -1.640625 C 0.90625 -1.734375 0.984375 -1.800781 1.078125 -1.84375 C 1.171875 -1.882812 1.28125 -1.90625 1.40625 -1.90625 C 1.570312 -1.90625 1.710938 -1.867188 1.828125 -1.796875 C 1.953125 -1.722656 2.046875 -1.613281 2.109375 -1.46875 C 2.179688 -1.332031 2.21875 -1.160156 2.21875 -0.953125 C 2.21875 -0.742188 2.175781 -0.566406 2.09375 -0.421875 C 2.019531 -0.273438 1.90625 -0.160156 1.75 -0.078125 C 1.59375 0.00390625 1.40625 0.046875 1.1875 0.046875 Z M 1.1875 0.046875 "/></g></g></g><g fill="#000000" fill-opacity="1"><g transform="translate(16.846171, 21.449997)"><g><path d="M 0.40625 0.015625 C 0.351562 0.015625 0.304688 0.00390625 0.265625 -0.015625 C 0.234375 -0.0351562 0.207031 -0.0625 0.1875 -0.09375 C 0.164062 -0.132812 0.15625 -0.179688 0.15625 -0.234375 C 0.15625 -0.273438 0.164062 -0.3125 0.1875 -0.34375 C 0.207031 -0.382812 0.234375 -0.414062 0.265625 -0.4375 C 0.304688 -0.46875 0.351562 -0.484375 0.40625 -0.484375 C 0.46875 -0.484375 0.515625 -0.472656 0.546875 -0.453125 C 0.585938 -0.429688 0.617188 -0.398438 0.640625 -0.359375 C 0.660156 -0.316406 0.671875 -0.273438 0.671875 -0.234375 C 0.671875 -0.160156 0.644531 -0.0976562 0.59375 -0.046875 C 0.550781 -0.00390625 0.488281 0.015625 0.40625 0.015625 Z M 0.40625 0.015625 "/></g></g></g><g fill="#000000" fill-opacity="1"><g transform="translate(17.838808, 21.449997)"><g><path d="M 0.40625 0.015625 C 0.351562 0.015625 0.304688 0.00390625 0.265625 -0.015625 C 0.234375 -0.0351562 0.207031 -0.0625 0.1875 -0.09375 C 0.164062 -0.132812 0.15625 -0.179688 0.15625 -0.234375 C 0.15625 -0.273438 0.164062 -0.3125 0.1875 -0.34375 C 0.207031 -0.382812 0.234375 -0.414062 0.265625 -0.4375 C 0.304688 -0.46875 0.351562 -0.484375 0.40625 -0.484375 C 0.46875 -0.484375 0.515625 -0.472656 0.546875 -0.453125 C 0.585938 -0.429688 0.617188 -0.398438 0.640625 -0.359375 C 0.660156 -0.316406 0.671875 -0.273438 0.671875 -0.234375 C 0.671875 -0.160156 0.644531 -0.0976562 0.59375 -0.046875 C 0.550781 -0.00390625 0.488281 0.015625 0.40625 0.015625 Z M 0.40625 0.015625 "/></g></g></g><g fill="#000000" fill-opacity="1"><g transform="translate(18.831445, 21.449997)"><g><path d="M 0.40625 0.015625 C 0.351562 0.015625 0.304688 0.00390625 0.265625 -0.015625 C 0.234375 -0.0351562 0.207031 -0.0625 0.1875 -0.09375 C 0.164062 -0.132812 0.15625 -0.179688 0.15625 -0.234375 C 0.15625 -0.273438 0.164062 -0.3125 0.1875 -0.34375 C 0.207031 -0.382812 0.234375 -0.414062 0.265625 -0.4375 C 0.304688 -0.46875 0.351562 -0.484375 0.40625 -0.484375 C 0.46875 -0.484375 0.515625 -0.472656 0.546875 -0.453125 C 0.585938 -0.429688 0.617188 -0.398438 0.640625 -0.359375 C 0.660156 -0.316406 0.671875 -0.273438 0.671875 -0.234375 C 0.671875 -0.160156 0.644531 -0.0976562 0.59375 -0.046875 C 0.550781 -0.00390625 0.488281 0.015625 0.40625 0.015625 Z M 0.40625 0.015625 "/></g></g></g><g fill="#000000" fill-opacity="1"><g transform="translate(19.824081, 21.449997)"><g><path d="M 0.40625 0.015625 C 0.351562 0.015625 0.304688 0.00390625 0.265625 -0.015625 C 0.234375 -0.0351562 0.207031 -0.0625 0.1875 -0.09375 C 0.164062 -0.132812 0.15625 -0.179688 0.15625 -0.234375 C 0.15625 -0.273438 0.164062 -0.3125 0.1875 -0.34375 C 0.207031 -0.382812 0.234375 -0.414062 0.265625 -0.4375 C 0.304688 -0.46875 0.351562 -0.484375 0.40625 -0.484375 C 0.46875 -0.484375 0.515625 -0.472656 0.546875 -0.453125 C 0.585938 -0.429688 0.617188 -0.398438 0.640625 -0.359375 C 0.660156 -0.316406 0.671875 -0.273438 0.671875 -0.234375 C 0.671875 -0.160156 0.644531 -0.0976562 0.59375 -0.046875 C 0.550781 -0.00390625 0.488281 0.015625 0.40625 0.015625 Z M 0.40625 0.015625 "/></g></g></g></svg>