<svg xmlns="http://www.w3.org/2000/svg" xmlns:xlink="http://www.w3.org/1999/xlink" width="50" zoomAndPan="magnify" viewBox="0 0 37.5 37.499999" height="50" preserveAspectRatio="xMidYMid meet" version="1.0"><defs><g/><clipPath id="8f8fdd1132"><path d="M 13.835938 13.835938 L 23.664062 13.835938 L 23.664062 23.664062 L 13.835938 23.664062 Z M 13.835938 13.835938 " clip-rule="nonzero"/></clipPath><clipPath id="81ecb842a2"><path d="M 18.75 13.835938 C 16.035156 13.835938 13.835938 16.035156 13.835938 18.75 C 13.835938 21.464844 16.035156 23.664062 18.75 23.664062 C 21.464844 23.664062 23.664062 21.464844 23.664062 18.75 C 23.664062 16.035156 21.464844 13.835938 18.75 13.835938 " clip-rule="nonzero"/></clipPath></defs><g clip-path="url(#8f8fdd1132)"><g clip-path="url(#81ecb842a2)"><path fill="#ffebce" d="M 13.835938 13.835938 L 23.664062 13.835938 L 23.664062 23.664062 L 13.835938 23.664062 Z M 13.835938 13.835938 " fill-opacity="1" fill-rule="nonzero"/></g></g><g fill="#cb0707" fill-opacity="1"><g transform="translate(17.452082, 19.158334)"><g><path d="M 1.359375 0.046875 C 1.148438 0.046875 0.957031 0 0.78125 -0.09375 C 0.613281 -0.195312 0.476562 -0.359375 0.375 -0.578125 C 0.28125 -0.796875 0.234375 -1.070312 0.234375 -1.40625 C 0.234375 -1.738281 0.285156 -2.015625 0.390625 -2.234375 C 0.492188 -2.460938 0.632812 -2.628906 0.8125 -2.734375 C 1 -2.835938 1.207031 -2.890625 1.4375 -2.890625 C 1.632812 -2.890625 1.800781 -2.863281 1.9375 -2.8125 C 2.082031 -2.757812 2.191406 -2.675781 2.265625 -2.5625 L 2 -2.203125 L 1.953125 -2.203125 C 1.828125 -2.347656 1.65625 -2.421875 1.4375 -2.421875 C 1.03125 -2.421875 0.828125 -2.125 0.828125 -1.53125 L 0.859375 -1.515625 C 0.929688 -1.640625 1.019531 -1.734375 1.125 -1.796875 C 1.226562 -1.859375 1.363281 -1.890625 1.53125 -1.890625 C 1.707031 -1.890625 1.859375 -1.851562 1.984375 -1.78125 C 2.117188 -1.707031 2.21875 -1.597656 2.28125 -1.453125 C 2.351562 -1.316406 2.390625 -1.15625 2.390625 -0.96875 C 2.390625 -0.757812 2.347656 -0.578125 2.265625 -0.421875 C 2.179688 -0.273438 2.0625 -0.160156 1.90625 -0.078125 C 1.757812 0.00390625 1.578125 0.046875 1.359375 0.046875 Z M 1.359375 -0.4375 C 1.503906 -0.4375 1.617188 -0.476562 1.703125 -0.5625 C 1.785156 -0.65625 1.828125 -0.78125 1.828125 -0.9375 C 1.828125 -1.09375 1.785156 -1.210938 1.703125 -1.296875 C 1.617188 -1.390625 1.503906 -1.4375 1.359375 -1.4375 C 1.253906 -1.4375 1.164062 -1.414062 1.09375 -1.375 C 1.03125 -1.332031 0.976562 -1.273438 0.9375 -1.203125 C 0.894531 -1.128906 0.875 -1.039062 0.875 -0.9375 C 0.875 -0.78125 0.914062 -0.65625 1 -0.5625 C 1.082031 -0.476562 1.203125 -0.4375 1.359375 -0.4375 Z M 1.359375 -0.4375 "/></g></g></g><g fill="#cb0707" fill-opacity="1"><g transform="translate(16.350077, 21.450001)"><g><path d="M 0.40625 0.015625 C 0.351562 0.015625 0.304688 0.00390625 0.265625 -0.015625 C 0.234375 -0.0351562 0.207031 -0.0625 0.1875 -0.09375 C 0.164062 -0.132812 0.15625 -0.179688 0.15625 -0.234375 C 0.15625 -0.273438 0.164062 -0.3125 0.1875 -0.34375 C 0.207031 -0.382812 0.234375 -0.414062 0.265625 -0.4375 C 0.304688 -0.46875 0.351562 -0.484375 0.40625 -0.484375 C 0.46875 -0.484375 0.515625 -0.472656 0.546875 -0.453125 C 0.585938 -0.429688 0.617188 -0.398438 0.640625 -0.359375 C 0.660156 -0.316406 0.671875 -0.273438 0.671875 -0.234375 C 0.671875 -0.160156 0.644531 -0.0976562 0.59375 -0.046875 C 0.550781 -0.00390625 0.488281 0.015625 0.40625 0.015625 Z M 0.40625 0.015625 "/></g></g></g><g fill="#cb0707" fill-opacity="1"><g transform="translate(17.342714, 21.450001)"><g><path d="M 0.40625 0.015625 C 0.351562 0.015625 0.304688 0.00390625 0.265625 -0.015625 C 0.234375 -0.0351562 0.207031 -0.0625 0.1875 -0.09375 C 0.164062 -0.132812 0.15625 -0.179688 0.15625 -0.234375 C 0.15625 -0.273438 0.164062 -0.3125 0.1875 -0.34375 C 0.207031 -0.382812 0.234375 -0.414062 0.265625 -0.4375 C 0.304688 -0.46875 0.351562 -0.484375 0.40625 -0.484375 C 0.46875 -0.484375 0.515625 -0.472656 0.546875 -0.453125 C 0.585938 -0.429688 0.617188 -0.398438 0.640625 -0.359375 C 0.660156 -0.316406 0.671875 -0.273438 0.671875 -0.234375 C 0.671875 -0.160156 0.644531 -0.0976562 0.59375 -0.046875 C 0.550781 -0.00390625 0.488281 0.015625 0.40625 0.015625 Z M 0.40625 0.015625 "/></g></g></g><g fill="#cb0707" fill-opacity="1"><g transform="translate(18.33535, 21.450001)"><g><path d="M 0.40625 0.015625 C 0.351562 0.015625 0.304688 0.00390625 0.265625 -0.015625 C 0.234375 -0.0351562 0.207031 -0.0625 0.1875 -0.09375 C 0.164062 -0.132812 0.15625 -0.179688 0.15625 -0.234375 C 0.15625 -0.273438 0.164062 -0.3125 0.1875 -0.34375 C 0.207031 -0.382812 0.234375 -0.414062 0.265625 -0.4375 C 0.304688 -0.46875 0.351562 -0.484375 0.40625 -0.484375 C 0.46875 -0.484375 0.515625 -0.472656 0.546875 -0.453125 C 0.585938 -0.429688 0.617188 -0.398438 0.640625 -0.359375 C 0.660156 -0.316406 0.671875 -0.273438 0.671875 -0.234375 C 0.671875 -0.160156 0.644531 -0.0976562 0.59375 -0.046875 C 0.550781 -0.00390625 0.488281 0.015625 0.40625 0.015625 Z M 0.40625 0.015625 "/></g></g></g><g fill="#cb0707" fill-opacity="1"><g transform="translate(19.327987, 21.450001)"><g><path d="M 0.40625 0.015625 C 0.351562 0.015625 0.304688 0.00390625 0.265625 -0.015625 C 0.234375 -0.0351562 0.207031 -0.0625 0.1875 -0.09375 C 0.164062 -0.132812 0.15625 -0.179688 0.15625 -0.234375 C 0.15625 -0.273438 0.164062 -0.3125 0.1875 -0.34375 C 0.207031 -0.382812 0.234375 -0.414062 0.265625 -0.4375 C 0.304688 -0.46875 0.351562 -0.484375 0.40625 -0.484375 C 0.46875 -0.484375 0.515625 -0.472656 0.546875 -0.453125 C 0.585938 -0.429688 0.617188 -0.398438 0.640625 -0.359375 C 0.660156 -0.316406 0.671875 -0.273438 0.671875 -0.234375 C 0.671875 -0.160156 0.644531 -0.0976562 0.59375 -0.046875 C 0.550781 -0.00390625 0.488281 0.015625 0.40625 0.015625 Z M 0.40625 0.015625 "/></g></g></g><g fill="#cb0707" fill-opacity="1"><g transform="translate(20.320624, 21.450001)"><g><path d="M 0.40625 0.015625 C 0.351562 0.015625 0.304688 0.00390625 0.265625 -0.015625 C 0.234375 -0.0351562 0.207031 -0.0625 0.1875 -0.09375 C 0.164062 -0.132812 0.15625 -0.179688 0.15625 -0.234375 C 0.15625 -0.273438 0.164062 -0.3125 0.1875 -0.34375 C 0.207031 -0.382812 0.234375 -0.414062 0.265625 -0.4375 C 0.304688 -0.46875 0.351562 -0.484375 0.40625 -0.484375 C 0.46875 -0.484375 0.515625 -0.472656 0.546875 -0.453125 C 0.585938 -0.429688 0.617188 -0.398438 0.640625 -0.359375 C 0.660156 -0.316406 0.671875 -0.273438 0.671875 -0.234375 C 0.671875 -0.160156 0.644531 -0.0976562 0.59375 -0.046875 C 0.550781 -0.00390625 0.488281 0.015625 0.40625 0.015625 Z M 0.40625 0.015625 "/></g></g></g></svg>