<svg xmlns="http://www.w3.org/2000/svg" xmlns:xlink="http://www.w3.org/1999/xlink" width="50" zoomAndPan="magnify" viewBox="0 0 37.5 37.499999" height="50" preserveAspectRatio="xMidYMid meet" version="1.0"><defs><g/><clipPath id="aaeaa444e8"><path d="M 13.835938 13.835938 L 23.664062 13.835938 L 23.664062 23.664062 L 13.835938 23.664062 Z M 13.835938 13.835938 " clip-rule="nonzero"/></clipPath><clipPath id="7b95beacff"><path d="M 18.75 13.835938 C 16.035156 13.835938 13.835938 16.035156 13.835938 18.75 C 13.835938 21.464844 16.035156 23.664062 18.75 23.664062 C 21.464844 23.664062 23.664062 21.464844 23.664062 18.75 C 23.664062 16.035156 21.464844 13.835938 18.75 13.835938 " clip-rule="nonzero"/></clipPath></defs><g clip-path="url(#aaeaa444e8)"><g clip-path="url(#7b95beacff)"><path fill="#ffebce" d="M 13.835938 13.835938 L 23.664062 13.835938 L 23.664062 23.664062 L 13.835938 23.664062 Z M 13.835938 13.835938 " fill-opacity="1" fill-rule="nonzero"/></g></g><g fill="#cb0707" fill-opacity="1"><g transform="translate(17.524999, 19.158327)"><g><path d="M 1.21875 0.046875 C 1 0.046875 0.8125 0.0078125 0.65625 -0.0625 C 0.5 -0.132812 0.378906 -0.234375 0.296875 -0.359375 C 0.210938 -0.492188 0.171875 -0.648438 0.171875 -0.828125 C 0.171875 -0.992188 0.210938 -1.132812 0.296875 -1.25 C 0.378906 -1.375 0.5 -1.472656 0.65625 -1.546875 L 0.65625 -1.578125 C 0.539062 -1.648438 0.453125 -1.734375 0.390625 -1.828125 C 0.335938 -1.921875 0.3125 -2.035156 0.3125 -2.171875 C 0.3125 -2.304688 0.347656 -2.429688 0.421875 -2.546875 C 0.492188 -2.660156 0.597656 -2.742188 0.734375 -2.796875 C 0.867188 -2.859375 1.03125 -2.890625 1.21875 -2.890625 C 1.414062 -2.890625 1.582031 -2.859375 1.71875 -2.796875 C 1.851562 -2.742188 1.957031 -2.660156 2.03125 -2.546875 C 2.101562 -2.429688 2.140625 -2.304688 2.140625 -2.171875 C 2.140625 -2.035156 2.109375 -1.921875 2.046875 -1.828125 C 1.984375 -1.734375 1.894531 -1.648438 1.78125 -1.578125 L 1.78125 -1.546875 C 1.945312 -1.472656 2.066406 -1.375 2.140625 -1.25 C 2.222656 -1.132812 2.265625 -0.992188 2.265625 -0.828125 C 2.265625 -0.648438 2.222656 -0.492188 2.140625 -0.359375 C 2.066406 -0.234375 1.953125 -0.132812 1.796875 -0.0625 C 1.640625 0.0078125 1.445312 0.046875 1.21875 0.046875 Z M 1.21875 -1.75 C 1.332031 -1.75 1.421875 -1.78125 1.484375 -1.84375 C 1.554688 -1.90625 1.59375 -1.988281 1.59375 -2.09375 C 1.59375 -2.207031 1.554688 -2.296875 1.484375 -2.359375 C 1.421875 -2.421875 1.332031 -2.453125 1.21875 -2.453125 C 1.101562 -2.453125 1.015625 -2.421875 0.953125 -2.359375 C 0.890625 -2.296875 0.859375 -2.207031 0.859375 -2.09375 C 0.859375 -1.988281 0.890625 -1.90625 0.953125 -1.84375 C 1.015625 -1.78125 1.101562 -1.75 1.21875 -1.75 Z M 1.21875 -0.4375 C 1.375 -0.4375 1.492188 -0.472656 1.578125 -0.546875 C 1.660156 -0.628906 1.703125 -0.738281 1.703125 -0.875 C 1.703125 -1.007812 1.660156 -1.113281 1.578125 -1.1875 C 1.492188 -1.257812 1.375 -1.296875 1.21875 -1.296875 C 1.070312 -1.296875 0.957031 -1.257812 0.875 -1.1875 C 0.789062 -1.113281 0.75 -1.007812 0.75 -0.875 C 0.75 -0.738281 0.789062 -0.628906 0.875 -0.546875 C 0.957031 -0.472656 1.070312 -0.4375 1.21875 -0.4375 Z M 1.21875 -0.4375 "/></g></g></g><g fill="#cb0707" fill-opacity="1"><g transform="translate(16.350077, 21.450004)"><g><path d="M 0.40625 0.015625 C 0.351562 0.015625 0.304688 0.00390625 0.265625 -0.015625 C 0.234375 -0.0351562 0.207031 -0.0625 0.1875 -0.09375 C 0.164062 -0.132812 0.15625 -0.179688 0.15625 -0.234375 C 0.15625 -0.273438 0.164062 -0.3125 0.1875 -0.34375 C 0.207031 -0.382812 0.234375 -0.414062 0.265625 -0.4375 C 0.304688 -0.46875 0.351562 -0.484375 0.40625 -0.484375 C 0.46875 -0.484375 0.515625 -0.472656 0.546875 -0.453125 C 0.585938 -0.429688 0.617188 -0.398438 0.640625 -0.359375 C 0.660156 -0.316406 0.671875 -0.273438 0.671875 -0.234375 C 0.671875 -0.160156 0.644531 -0.0976562 0.59375 -0.046875 C 0.550781 -0.00390625 0.488281 0.015625 0.40625 0.015625 Z M 0.40625 0.015625 "/></g></g></g><g fill="#cb0707" fill-opacity="1"><g transform="translate(17.342714, 21.450004)"><g><path d="M 0.40625 0.015625 C 0.351562 0.015625 0.304688 0.00390625 0.265625 -0.015625 C 0.234375 -0.0351562 0.207031 -0.0625 0.1875 -0.09375 C 0.164062 -0.132812 0.15625 -0.179688 0.15625 -0.234375 C 0.15625 -0.273438 0.164062 -0.3125 0.1875 -0.34375 C 0.207031 -0.382812 0.234375 -0.414062 0.265625 -0.4375 C 0.304688 -0.46875 0.351562 -0.484375 0.40625 -0.484375 C 0.46875 -0.484375 0.515625 -0.472656 0.546875 -0.453125 C 0.585938 -0.429688 0.617188 -0.398438 0.640625 -0.359375 C 0.660156 -0.316406 0.671875 -0.273438 0.671875 -0.234375 C 0.671875 -0.160156 0.644531 -0.0976562 0.59375 -0.046875 C 0.550781 -0.00390625 0.488281 0.015625 0.40625 0.015625 Z M 0.40625 0.015625 "/></g></g></g><g fill="#cb0707" fill-opacity="1"><g transform="translate(18.33535, 21.450004)"><g><path d="M 0.40625 0.015625 C 0.351562 0.015625 0.304688 0.00390625 0.265625 -0.015625 C 0.234375 -0.0351562 0.207031 -0.0625 0.1875 -0.09375 C 0.164062 -0.132812 0.15625 -0.179688 0.15625 -0.234375 C 0.15625 -0.273438 0.164062 -0.3125 0.1875 -0.34375 C 0.207031 -0.382812 0.234375 -0.414062 0.265625 -0.4375 C 0.304688 -0.46875 0.351562 -0.484375 0.40625 -0.484375 C 0.46875 -0.484375 0.515625 -0.472656 0.546875 -0.453125 C 0.585938 -0.429688 0.617188 -0.398438 0.640625 -0.359375 C 0.660156 -0.316406 0.671875 -0.273438 0.671875 -0.234375 C 0.671875 -0.160156 0.644531 -0.0976562 0.59375 -0.046875 C 0.550781 -0.00390625 0.488281 0.015625 0.40625 0.015625 Z M 0.40625 0.015625 "/></g></g></g><g fill="#cb0707" fill-opacity="1"><g transform="translate(19.327987, 21.450004)"><g><path d="M 0.40625 0.015625 C 0.351562 0.015625 0.304688 0.00390625 0.265625 -0.015625 C 0.234375 -0.0351562 0.207031 -0.0625 0.1875 -0.09375 C 0.164062 -0.132812 0.15625 -0.179688 0.15625 -0.234375 C 0.15625 -0.273438 0.164062 -0.3125 0.1875 -0.34375 C 0.207031 -0.382812 0.234375 -0.414062 0.265625 -0.4375 C 0.304688 -0.46875 0.351562 -0.484375 0.40625 -0.484375 C 0.46875 -0.484375 0.515625 -0.472656 0.546875 -0.453125 C 0.585938 -0.429688 0.617188 -0.398438 0.640625 -0.359375 C 0.660156 -0.316406 0.671875 -0.273438 0.671875 -0.234375 C 0.671875 -0.160156 0.644531 -0.0976562 0.59375 -0.046875 C 0.550781 -0.00390625 0.488281 0.015625 0.40625 0.015625 Z M 0.40625 0.015625 "/></g></g></g><g fill="#cb0707" fill-opacity="1"><g transform="translate(20.320624, 21.450004)"><g><path d="M 0.40625 0.015625 C 0.351562 0.015625 0.304688 0.00390625 0.265625 -0.015625 C 0.234375 -0.0351562 0.207031 -0.0625 0.1875 -0.09375 C 0.164062 -0.132812 0.15625 -0.179688 0.15625 -0.234375 C 0.15625 -0.273438 0.164062 -0.3125 0.1875 -0.34375 C 0.207031 -0.382812 0.234375 -0.414062 0.265625 -0.4375 C 0.304688 -0.46875 0.351562 -0.484375 0.40625 -0.484375 C 0.46875 -0.484375 0.515625 -0.472656 0.546875 -0.453125 C 0.585938 -0.429688 0.617188 -0.398438 0.640625 -0.359375 C 0.660156 -0.316406 0.671875 -0.273438 0.671875 -0.234375 C 0.671875 -0.160156 0.644531 -0.0976562 0.59375 -0.046875 C 0.550781 -0.00390625 0.488281 0.015625 0.40625 0.015625 Z M 0.40625 0.015625 "/></g></g></g></svg>