<svg xmlns="http://www.w3.org/2000/svg" xmlns:xlink="http://www.w3.org/1999/xlink" width="50" zoomAndPan="magnify" viewBox="0 0 37.5 37.499999" height="50" preserveAspectRatio="xMidYMid meet" version="1.0"><defs><g/><clipPath id="18c6645e7b"><path d="M 13.835938 13.835938 L 23.664062 13.835938 L 23.664062 23.664062 L 13.835938 23.664062 Z M 13.835938 13.835938 " clip-rule="nonzero"/></clipPath><clipPath id="7e3d1a02f7"><path d="M 18.75 13.835938 C 16.035156 13.835938 13.835938 16.035156 13.835938 18.75 C 13.835938 21.464844 16.035156 23.664062 18.75 23.664062 C 21.464844 23.664062 23.664062 21.464844 23.664062 18.75 C 23.664062 16.035156 21.464844 13.835938 18.75 13.835938 " clip-rule="nonzero"/></clipPath></defs><g clip-path="url(#18c6645e7b)"><g clip-path="url(#7e3d1a02f7)"><path fill="#ffebce" d="M 13.835938 13.835938 L 23.664062 13.835938 L 23.664062 23.664062 L 13.835938 23.664062 Z M 13.835938 13.835938 " fill-opacity="1" fill-rule="nonzero"/></g></g><g fill="#000000" fill-opacity="1"><g transform="translate(17.457291, 19.158327)"><g><path d="M 1.1875 0.046875 C 0.925781 0.046875 0.71875 -0.00390625 0.5625 -0.109375 C 0.40625 -0.222656 0.300781 -0.378906 0.25 -0.578125 L 0.671875 -0.765625 L 0.71875 -0.765625 C 0.789062 -0.546875 0.945312 -0.4375 1.1875 -0.4375 C 1.375 -0.4375 1.515625 -0.515625 1.609375 -0.671875 C 1.710938 -0.828125 1.765625 -1.054688 1.765625 -1.359375 L 1.71875 -1.375 C 1.65625 -1.25 1.570312 -1.15625 1.46875 -1.09375 C 1.363281 -1.03125 1.226562 -1 1.0625 -1 C 0.882812 -1 0.734375 -1.035156 0.609375 -1.109375 C 0.484375 -1.179688 0.382812 -1.285156 0.3125 -1.421875 C 0.238281 -1.566406 0.203125 -1.734375 0.203125 -1.921875 C 0.203125 -2.117188 0.242188 -2.289062 0.328125 -2.4375 C 0.410156 -2.582031 0.523438 -2.691406 0.671875 -2.765625 C 0.828125 -2.847656 1.007812 -2.890625 1.21875 -2.890625 C 1.570312 -2.890625 1.847656 -2.78125 2.046875 -2.5625 C 2.242188 -2.34375 2.34375 -1.984375 2.34375 -1.484375 C 2.34375 -1.140625 2.296875 -0.851562 2.203125 -0.625 C 2.109375 -0.40625 1.972656 -0.238281 1.796875 -0.125 C 1.628906 -0.0078125 1.425781 0.046875 1.1875 0.046875 Z M 1.234375 -1.46875 C 1.378906 -1.46875 1.492188 -1.507812 1.578125 -1.59375 C 1.660156 -1.675781 1.703125 -1.789062 1.703125 -1.9375 C 1.703125 -2.082031 1.660156 -2.195312 1.578125 -2.28125 C 1.492188 -2.375 1.378906 -2.421875 1.234375 -2.421875 C 1.085938 -2.421875 0.972656 -2.378906 0.890625 -2.296875 C 0.804688 -2.210938 0.765625 -2.09375 0.765625 -1.9375 C 0.765625 -1.789062 0.804688 -1.675781 0.890625 -1.59375 C 0.972656 -1.507812 1.085938 -1.46875 1.234375 -1.46875 Z M 1.234375 -1.46875 "/></g></g></g><g fill="#000000" fill-opacity="1"><g transform="translate(16.846171, 21.44999)"><g><path d="M 0.40625 0.015625 C 0.351562 0.015625 0.304688 0.00390625 0.265625 -0.015625 C 0.234375 -0.0351562 0.207031 -0.0625 0.1875 -0.09375 C 0.164062 -0.132812 0.15625 -0.179688 0.15625 -0.234375 C 0.15625 -0.273438 0.164062 -0.3125 0.1875 -0.34375 C 0.207031 -0.382812 0.234375 -0.414062 0.265625 -0.4375 C 0.304688 -0.46875 0.351562 -0.484375 0.40625 -0.484375 C 0.46875 -0.484375 0.515625 -0.472656 0.546875 -0.453125 C 0.585938 -0.429688 0.617188 -0.398438 0.640625 -0.359375 C 0.660156 -0.316406 0.671875 -0.273438 0.671875 -0.234375 C 0.671875 -0.160156 0.644531 -0.0976562 0.59375 -0.046875 C 0.550781 -0.00390625 0.488281 0.015625 0.40625 0.015625 Z M 0.40625 0.015625 "/></g></g></g><g fill="#000000" fill-opacity="1"><g transform="translate(17.838808, 21.44999)"><g><path d="M 0.40625 0.015625 C 0.351562 0.015625 0.304688 0.00390625 0.265625 -0.015625 C 0.234375 -0.0351562 0.207031 -0.0625 0.1875 -0.09375 C 0.164062 -0.132812 0.15625 -0.179688 0.15625 -0.234375 C 0.15625 -0.273438 0.164062 -0.3125 0.1875 -0.34375 C 0.207031 -0.382812 0.234375 -0.414062 0.265625 -0.4375 C 0.304688 -0.46875 0.351562 -0.484375 0.40625 -0.484375 C 0.46875 -0.484375 0.515625 -0.472656 0.546875 -0.453125 C 0.585938 -0.429688 0.617188 -0.398438 0.640625 -0.359375 C 0.660156 -0.316406 0.671875 -0.273438 0.671875 -0.234375 C 0.671875 -0.160156 0.644531 -0.0976562 0.59375 -0.046875 C 0.550781 -0.00390625 0.488281 0.015625 0.40625 0.015625 Z M 0.40625 0.015625 "/></g></g></g><g fill="#000000" fill-opacity="1"><g transform="translate(18.831445, 21.44999)"><g><path d="M 0.40625 0.015625 C 0.351562 0.015625 0.304688 0.00390625 0.265625 -0.015625 C 0.234375 -0.0351562 0.207031 -0.0625 0.1875 -0.09375 C 0.164062 -0.132812 0.15625 -0.179688 0.15625 -0.234375 C 0.15625 -0.273438 0.164062 -0.3125 0.1875 -0.34375 C 0.207031 -0.382812 0.234375 -0.414062 0.265625 -0.4375 C 0.304688 -0.46875 0.351562 -0.484375 0.40625 -0.484375 C 0.46875 -0.484375 0.515625 -0.472656 0.546875 -0.453125 C 0.585938 -0.429688 0.617188 -0.398438 0.640625 -0.359375 C 0.660156 -0.316406 0.671875 -0.273438 0.671875 -0.234375 C 0.671875 -0.160156 0.644531 -0.0976562 0.59375 -0.046875 C 0.550781 -0.00390625 0.488281 0.015625 0.40625 0.015625 Z M 0.40625 0.015625 "/></g></g></g><g fill="#000000" fill-opacity="1"><g transform="translate(19.824081, 21.44999)"><g><path d="M 0.40625 0.015625 C 0.351562 0.015625 0.304688 0.00390625 0.265625 -0.015625 C 0.234375 -0.0351562 0.207031 -0.0625 0.1875 -0.09375 C 0.164062 -0.132812 0.15625 -0.179688 0.15625 -0.234375 C 0.15625 -0.273438 0.164062 -0.3125 0.1875 -0.34375 C 0.207031 -0.382812 0.234375 -0.414062 0.265625 -0.4375 C 0.304688 -0.46875 0.351562 -0.484375 0.40625 -0.484375 C 0.46875 -0.484375 0.515625 -0.472656 0.546875 -0.453125 C 0.585938 -0.429688 0.617188 -0.398438 0.640625 -0.359375 C 0.660156 -0.316406 0.671875 -0.273438 0.671875 -0.234375 C 0.671875 -0.160156 0.644531 -0.0976562 0.59375 -0.046875 C 0.550781 -0.00390625 0.488281 0.015625 0.40625 0.015625 Z M 0.40625 0.015625 "/></g></g></g></svg>