<svg xmlns="http://www.w3.org/2000/svg" xmlns:xlink="http://www.w3.org/1999/xlink" width="50" zoomAndPan="magnify" viewBox="0 0 37.5 37.499999" height="50" preserveAspectRatio="xMidYMid meet" version="1.0"><defs><clipPath id="f8703efaa4"><path d="M 13.835938 13.835938 L 23.789062 13.835938 L 23.789062 23.789062 L 13.835938 23.789062 Z M 13.835938 13.835938 " clip-rule="nonzero"/></clipPath><clipPath id="4b263400f9"><path d="M 18.75 13.835938 C 16.035156 13.835938 13.835938 16.035156 13.835938 18.75 C 13.835938 21.464844 16.035156 23.664062 18.75 23.664062 C 21.464844 23.664062 23.664062 21.464844 23.664062 18.75 C 23.664062 16.035156 21.464844 13.835938 18.75 13.835938 " clip-rule="nonzero"/></clipPath><clipPath id="0581fcfeb1"><path d="M 15.097656 15.199219 L 22.316406 15.199219 L 22.316406 19 L 15.097656 19 Z M 15.097656 15.199219 " clip-rule="nonzero"/></clipPath><clipPath id="c9e2e90a19"><path d="M 15.097656 19 L 21 19 L 21 22.210938 L 15.097656 22.210938 Z M 15.097656 19 " clip-rule="nonzero"/></clipPath></defs><g clip-path="url(#f8703efaa4)"><g clip-path="url(#4b263400f9)"><path fill="#ffebce" d="M 13.835938 13.835938 L 23.636719 13.835938 L 23.636719 23.636719 L 13.835938 23.636719 Z M 13.835938 13.835938 " fill-opacity="1" fill-rule="nonzero"/></g></g><g clip-path="url(#0581fcfeb1)"><path fill="#000000" d="M 22.265625 17.140625 C 22.226562 17.097656 22.171875 17.074219 22.117188 17.074219 L 20.332031 17.074219 C 20.308594 16.996094 20.261719 16.832031 20.195312 16.628906 C 19.945312 15.871094 19.714844 15.429688 19.515625 15.320312 C 19.304688 15.203125 19.140625 15.261719 18.953125 15.328125 C 18.9375 15.332031 18.925781 15.339844 18.910156 15.34375 C 18.855469 15.363281 18.746094 15.402344 18.707031 15.417969 C 18.65625 15.402344 18.609375 15.386719 18.566406 15.375 C 18.296875 15.296875 18.066406 15.226562 17.898438 15.320312 C 17.699219 15.429688 17.46875 15.871094 17.21875 16.628906 C 17.152344 16.832031 17.105469 16.996094 17.085938 17.074219 L 15.296875 17.074219 C 15.242188 17.074219 15.1875 17.097656 15.152344 17.140625 C 15.113281 17.179688 15.097656 17.238281 15.105469 17.292969 C 15.125 17.429688 15.191406 17.539062 15.304688 17.613281 C 15.53125 17.769531 16.761719 18.191406 18.707031 18.191406 C 20.652344 18.191406 21.882812 17.769531 22.113281 17.613281 C 22.222656 17.539062 22.289062 17.429688 22.308594 17.292969 C 22.316406 17.238281 22.300781 17.179688 22.265625 17.140625 Z M 18.378906 17.027344 C 18.425781 16.882812 18.554688 16.785156 18.707031 16.785156 C 18.859375 16.785156 18.988281 16.882812 19.035156 17.027344 C 19.046875 17.058594 19.050781 17.09375 19.050781 17.128906 C 19.050781 17.230469 19.007812 17.324219 18.933594 17.386719 C 18.871094 17.441406 18.789062 17.472656 18.707031 17.472656 C 18.625 17.472656 18.542969 17.441406 18.480469 17.386719 C 18.40625 17.324219 18.363281 17.230469 18.363281 17.128906 C 18.363281 17.09375 18.371094 17.058594 18.378906 17.027344 Z M 20.050781 17.222656 Z M 19.101562 17.363281 C 19.140625 17.292969 19.164062 17.214844 19.164062 17.128906 C 19.164062 17.105469 19.164062 17.082031 19.160156 17.058594 C 19.371094 17.03125 19.585938 16.988281 19.796875 16.925781 C 19.796875 16.960938 19.804688 17 19.816406 17.035156 C 19.839844 17.101562 19.875 17.160156 19.921875 17.207031 C 19.71875 17.265625 19.441406 17.332031 19.101562 17.363281 Z M 19.859375 16.84375 L 19.886719 16.851562 Z M 17.554688 16.84375 L 17.527344 16.851562 Z M 17.597656 17.035156 C 17.609375 17 17.617188 16.960938 17.617188 16.925781 C 17.828125 16.988281 18.042969 17.03125 18.253906 17.058594 C 18.25 17.082031 18.25 17.105469 18.25 17.128906 C 18.25 17.214844 18.273438 17.292969 18.316406 17.363281 C 17.972656 17.332031 17.695312 17.265625 17.492188 17.207031 C 17.539062 17.160156 17.578125 17.101562 17.597656 17.035156 Z M 17.363281 17.222656 Z M 20.21875 17.097656 C 20.183594 17.113281 20.128906 17.136719 20.054688 17.164062 C 19.996094 17.132812 19.949219 17.074219 19.925781 17 C 19.910156 16.953125 19.90625 16.902344 19.914062 16.855469 C 19.929688 16.78125 19.976562 16.726562 20.035156 16.707031 C 20.054688 16.699219 20.074219 16.695312 20.097656 16.699219 C 20.15625 16.878906 20.199219 17.027344 20.21875 17.097656 Z M 17.316406 16.699219 C 17.339844 16.695312 17.359375 16.699219 17.378906 16.707031 C 17.441406 16.726562 17.484375 16.78125 17.5 16.855469 C 17.507812 16.902344 17.503906 16.953125 17.488281 17 C 17.464844 17.074219 17.417969 17.132812 17.359375 17.164062 C 17.285156 17.136719 17.230469 17.113281 17.195312 17.097656 C 17.214844 17.027344 17.257812 16.878906 17.316406 16.699219 Z M 22.195312 17.277344 C 22.183594 17.382812 22.132812 17.464844 22.046875 17.519531 C 21.835938 17.664062 20.601562 18.078125 18.707031 18.078125 C 16.8125 18.078125 15.578125 17.664062 15.367188 17.519531 C 15.28125 17.464844 15.234375 17.382812 15.21875 17.277344 C 15.214844 17.253906 15.222656 17.230469 15.238281 17.214844 C 15.253906 17.195312 15.273438 17.1875 15.296875 17.1875 L 15.441406 17.1875 C 15.730469 17.644531 16.800781 17.867188 18.707031 17.867188 C 20.613281 17.867188 21.683594 17.644531 21.972656 17.1875 L 22.117188 17.1875 C 22.140625 17.1875 22.164062 17.195312 22.175781 17.214844 C 22.191406 17.230469 22.199219 17.253906 22.195312 17.277344 Z M 22.195312 17.277344 " fill-opacity="1" fill-rule="nonzero"/></g><path fill="#000000" d="M 17.789062 19.039062 C 17.828125 19.046875 17.867188 19.050781 17.90625 19.050781 C 18.199219 19.050781 18.375 18.789062 18.382812 18.777344 C 18.394531 18.761719 18.394531 18.742188 18.390625 18.726562 C 18.386719 18.710938 18.371094 18.695312 18.355469 18.691406 L 17.460938 18.335938 C 17.441406 18.328125 17.421875 18.332031 17.402344 18.34375 C 17.386719 18.355469 17.378906 18.375 17.378906 18.394531 C 17.382812 18.417969 17.421875 18.953125 17.789062 19.039062 Z M 17.789062 19.039062 " fill-opacity="1" fill-rule="nonzero"/><path fill="#000000" d="M 19.511719 19.050781 C 19.546875 19.050781 19.585938 19.046875 19.625 19.039062 C 19.992188 18.953125 20.03125 18.417969 20.035156 18.394531 C 20.035156 18.375 20.027344 18.355469 20.011719 18.34375 C 19.996094 18.332031 19.972656 18.328125 19.957031 18.335938 L 19.058594 18.691406 C 19.042969 18.699219 19.03125 18.710938 19.023438 18.726562 C 19.019531 18.742188 19.023438 18.761719 19.03125 18.777344 C 19.039062 18.789062 19.214844 19.050781 19.511719 19.050781 Z M 19.511719 19.050781 " fill-opacity="1" fill-rule="nonzero"/><g clip-path="url(#c9e2e90a19)"><path fill="#000000" d="M 20.511719 19.886719 C 20.5 19.851562 20.496094 19.820312 20.492188 19.796875 C 20.488281 19.734375 20.503906 19.6875 20.523438 19.640625 C 20.542969 19.589844 20.5625 19.527344 20.550781 19.449219 C 20.53125 19.289062 20.363281 19.207031 20.21875 19.207031 L 17.199219 19.207031 C 17.070312 19.207031 16.929688 19.269531 16.878906 19.382812 C 16.328125 19.222656 15.851562 19.417969 15.457031 19.96875 C 15.445312 19.984375 15.445312 20 15.449219 20.019531 C 15.453125 20.035156 15.464844 20.046875 15.480469 20.054688 C 15.742188 20.160156 15.980469 20.210938 16.195312 20.210938 C 16.207031 20.210938 16.222656 20.210938 16.234375 20.210938 C 16.117188 20.386719 16.039062 20.609375 16.003906 20.875 C 16 20.890625 16.007812 20.910156 16.015625 20.921875 C 16.027344 20.933594 16.042969 20.941406 16.058594 20.941406 C 16.0625 20.941406 16.0625 20.941406 16.0625 20.941406 C 16.558594 20.933594 16.894531 20.789062 17.0625 20.515625 L 18.664062 22.1875 C 18.675781 22.199219 18.691406 22.207031 18.707031 22.207031 C 18.722656 22.207031 18.738281 22.199219 18.75 22.1875 L 20.523438 20.335938 C 20.605469 20.253906 20.625 20.125 20.570312 20.019531 C 20.546875 19.972656 20.527344 19.925781 20.511719 19.886719 Z M 20.378906 19.804688 C 20.378906 19.828125 20.386719 19.859375 20.394531 19.886719 L 18.707031 21.394531 L 17.019531 19.886719 C 17.027344 19.859375 17.035156 19.828125 17.035156 19.804688 C 17.042969 19.722656 17.023438 19.660156 17.003906 19.609375 L 18.667969 21.121094 C 18.679688 21.132812 18.695312 21.136719 18.707031 21.136719 C 18.722656 21.136719 18.734375 21.132812 18.746094 21.121094 L 20.410156 19.609375 C 20.394531 19.660156 20.371094 19.722656 20.378906 19.804688 Z M 15.59375 19.976562 C 15.953125 19.503906 16.367188 19.347656 16.859375 19.496094 C 16.859375 19.523438 16.863281 19.550781 16.871094 19.574219 L 16.152344 19.785156 C 16.121094 19.792969 16.105469 19.824219 16.113281 19.855469 C 16.121094 19.878906 16.144531 19.898438 16.167969 19.898438 C 16.171875 19.898438 16.179688 19.894531 16.183594 19.894531 L 16.90625 19.683594 C 16.917969 19.710938 16.921875 19.742188 16.921875 19.777344 C 16.761719 19.953125 16.570312 20.054688 16.347656 20.085938 C 16.128906 20.117188 15.878906 20.078125 15.59375 19.976562 Z M 16.128906 20.824219 C 16.171875 20.5625 16.257812 20.351562 16.386719 20.195312 C 16.558594 20.167969 16.71875 20.097656 16.859375 19.992188 C 16.851562 20 16.847656 20.011719 16.84375 20.019531 C 16.816406 20.078125 16.808594 20.144531 16.820312 20.203125 L 16.4375 20.511719 C 16.414062 20.53125 16.410156 20.566406 16.429688 20.589844 C 16.441406 20.605469 16.457031 20.613281 16.472656 20.613281 C 16.484375 20.613281 16.5 20.609375 16.507812 20.597656 L 16.867188 20.3125 C 16.875 20.320312 16.882812 20.328125 16.890625 20.335938 L 16.980469 20.429688 C 16.84375 20.675781 16.5625 20.804688 16.128906 20.824219 Z M 16.128906 20.824219 " fill-opacity="1" fill-rule="nonzero"/></g><path stroke-linecap="butt" transform="matrix(0.000000000000000013, 0.211959, -0.206282, 0.000000000000000013, 20.48082, 18.047356)" fill="none" stroke-linejoin="miter" d="M -0.00226733 0.494053 L 6.816551 0.494053 " stroke="#000000" stroke-width="1" stroke-opacity="1" stroke-miterlimit="4"/><path stroke-linecap="butt" transform="matrix(0.000000000000000013, 0.211959, -0.206282, 0.000000000000000013, 17.180309, 18.08695)" fill="none" stroke-linejoin="miter" d="M -0.00477525 0.495361 L 6.814043 0.495361 " stroke="#000000" stroke-width="1" stroke-opacity="1" stroke-miterlimit="4"/></svg>