<svg xmlns="http://www.w3.org/2000/svg" xmlns:xlink="http://www.w3.org/1999/xlink" width="50" zoomAndPan="magnify" viewBox="0 0 37.5 37.499999" height="50" preserveAspectRatio="xMidYMid meet" version="1.0"><defs><clipPath id="02a25182d5"><path d="M 2.636719 0 L 34.886719 0 L 34.886719 37.007812 L 2.636719 37.007812 Z M 2.636719 0 " clip-rule="nonzero"/></clipPath><clipPath id="4f097798e7"><path d="M 18.761719 0 L 34.886719 9.375 L 34.886719 28.125 L 18.761719 37.5 L 2.636719 28.125 L 2.636719 9.375 L 18.761719 0 " clip-rule="nonzero"/></clipPath><clipPath id="a6cbca2c4a"><path d="M 4.128906 1.738281 L 33.371094 1.738281 L 33.371094 35.761719 L 4.128906 35.761719 Z M 4.128906 1.738281 " clip-rule="nonzero"/></clipPath><clipPath id="9dcfa67b1a"><path d="M 18.75 1.738281 L 33.371094 10.242188 L 33.371094 27.257812 L 18.75 35.761719 L 4.128906 27.257812 L 4.128906 10.242188 L 18.75 1.738281 " clip-rule="nonzero"/></clipPath><clipPath id="becb3511d9"><path d="M 13.125 5.035156 L 24.375 5.035156 L 24.375 16.285156 L 13.125 16.285156 Z M 13.125 5.035156 " clip-rule="nonzero"/></clipPath><clipPath id="b390c7598a"><path d="M 18.75 5.035156 C 15.644531 5.035156 13.125 7.554688 13.125 10.660156 C 13.125 13.769531 15.644531 16.285156 18.75 16.285156 C 21.855469 16.285156 24.375 13.769531 24.375 10.660156 C 24.375 7.554688 21.855469 5.035156 18.75 5.035156 " clip-rule="nonzero"/></clipPath><clipPath id="6d210563d7"><path d="M 23.472656 12.601562 L 33.222656 12.601562 L 33.222656 27.601562 L 23.472656 27.601562 Z M 23.472656 12.601562 " clip-rule="nonzero"/></clipPath><clipPath id="d1ddb32a5c"><path d="M 18.75 16.050781 L 28.5 16.050781 L 28.5 31.050781 L 18.75 31.050781 Z M 18.75 16.050781 " clip-rule="nonzero"/></clipPath><clipPath id="1be36f1d82"><path d="M 4.585938 12.601562 L 14.335938 12.601562 L 14.335938 27.601562 L 4.585938 27.601562 Z M 4.585938 12.601562 " clip-rule="nonzero"/></clipPath><clipPath id="ed2297745b"><path d="M 9.304688 16.050781 L 19.054688 16.050781 L 19.054688 31.050781 L 9.304688 31.050781 Z M 9.304688 16.050781 " clip-rule="nonzero"/></clipPath><clipPath id="1b0a88789a"><path d="M 14.027344 18.75 L 23.777344 18.75 L 23.777344 33.75 L 14.027344 33.75 Z M 14.027344 18.75 " clip-rule="nonzero"/></clipPath></defs><g clip-path="url(#02a25182d5)"><g clip-path="url(#4f097798e7)"><path stroke-linecap="butt" transform="matrix(0.750545, 0, 0, 0.75, 2.636719, 0)" fill="none" stroke-linejoin="miter" d="M 21.484377 0 L 42.968754 12.500002 L 42.968754 37.500005 L 21.484377 50.000006 L -0.000000110562 37.500005 L -0.000000110562 12.500002 L 21.484377 0 " stroke="#008037" stroke-width="4" stroke-opacity="1" stroke-miterlimit="4"/></g></g><g clip-path="url(#a6cbca2c4a)"><g clip-path="url(#9dcfa67b1a)"><path fill="#47ab1d" d="M 4.128906 1.738281 L 33.371094 1.738281 L 33.371094 35.761719 L 4.128906 35.761719 Z M 4.128906 1.738281 " fill-opacity="1" fill-rule="nonzero"/></g></g><g clip-path="url(#becb3511d9)"><g clip-path="url(#b390c7598a)"><path fill="#ffebce" d="M 13.125 5.035156 L 24.375 5.035156 L 24.375 16.285156 L 13.125 16.285156 Z M 13.125 5.035156 " fill-opacity="1" fill-rule="nonzero"/><path stroke-linecap="butt" transform="matrix(0.75, 0, 0, 0.75, 13.124999, 5.036651)" fill="none" stroke-linejoin="miter" d="M 7.500002 -0.00199356 C 3.359377 -0.00199356 0.00000137127 3.357382 0.00000137127 7.498007 C 0.00000137127 11.643841 3.359377 14.998008 7.500002 14.998008 C 11.640628 14.998008 15.000003 11.643841 15.000003 7.498007 C 15.000003 3.357382 11.640628 -0.00199356 7.500002 -0.00199356 " stroke="#008037" stroke-width="2" stroke-opacity="1" stroke-miterlimit="4"/></g></g><g clip-path="url(#6d210563d7)"><path fill="#035024" d="M 28.046875 27.542969 C 27.902344 27.457031 27.902344 27.460938 27.933594 26.625 C 27.964844 25.796875 27.96875 24.953125 27.945312 24.933594 C 27.929688 24.917969 27.753906 24.984375 27.328125 25.171875 C 26.074219 25.710938 24.511719 26.25 23.972656 26.328125 C 23.832031 26.347656 23.683594 26.304688 23.644531 26.238281 C 23.539062 26.042969 23.757812 25.785156 24.449219 25.28125 C 24.636719 25.144531 24.789062 25.027344 24.789062 25.015625 C 24.789062 25.003906 24.710938 25 24.613281 25.007812 C 24.449219 25.015625 24.4375 25.015625 24.386719 24.949219 C 24.3125 24.859375 24.316406 24.753906 24.394531 24.6875 C 24.429688 24.65625 24.628906 24.53125 24.832031 24.40625 C 25.039062 24.28125 25.230469 24.160156 25.261719 24.140625 L 25.316406 24.105469 L 25.265625 24.011719 C 25.183594 23.867188 25.210938 23.789062 25.472656 23.464844 C 25.699219 23.183594 25.742188 23.105469 25.65625 23.128906 C 25.632812 23.136719 25.382812 23.207031 25.105469 23.28125 C 24.824219 23.355469 24.40625 23.472656 24.171875 23.542969 L 23.746094 23.664062 L 23.65625 23.621094 C 23.472656 23.535156 23.5 23.402344 23.714844 23.28125 C 24.019531 23.113281 24.773438 22.640625 24.78125 22.609375 C 24.789062 22.589844 24.753906 22.582031 24.652344 22.582031 C 24.527344 22.582031 24.507812 22.574219 24.449219 22.503906 C 24.371094 22.417969 24.363281 22.359375 24.425781 22.289062 C 24.449219 22.261719 24.675781 22.132812 24.925781 22.007812 L 25.382812 21.773438 L 25.375 21.683594 C 25.367188 21.578125 25.398438 21.527344 25.613281 21.292969 C 25.910156 20.96875 26.210938 20.605469 26.210938 20.574219 C 26.210938 20.53125 26.183594 20.542969 25.503906 20.871094 C 25.160156 21.039062 24.886719 21.15625 24.84375 21.15625 C 24.738281 21.15625 24.65625 21.082031 24.65625 20.996094 C 24.65625 20.925781 24.707031 20.863281 24.878906 20.746094 C 24.953125 20.691406 24.953125 20.691406 24.910156 20.621094 C 24.820312 20.476562 24.859375 20.414062 25.171875 20.207031 C 25.34375 20.09375 25.347656 20.089844 25.332031 19.996094 C 25.308594 19.878906 25.300781 19.886719 25.824219 19.457031 C 26.050781 19.269531 26.234375 19.105469 26.234375 19.09375 C 26.234375 19.078125 26.203125 19.054688 26.160156 19.03125 C 26.089844 18.996094 26.058594 18.933594 26.058594 18.832031 C 26.058594 18.769531 26.253906 18.375 26.570312 17.808594 C 26.695312 17.585938 26.792969 17.382812 26.789062 17.363281 C 26.78125 17.335938 26.691406 17.367188 26.398438 17.496094 C 25.960938 17.6875 25.476562 17.863281 25.386719 17.863281 C 25.351562 17.863281 25.289062 17.835938 25.246094 17.800781 C 25.128906 17.707031 25.144531 17.636719 25.300781 17.488281 C 25.566406 17.238281 25.917969 16.941406 26.011719 16.886719 C 26.121094 16.824219 26.121094 16.816406 26.070312 16.722656 C 26.007812 16.605469 26.042969 16.5625 26.410156 16.285156 L 26.675781 16.085938 L 26.578125 16.0625 C 26.464844 16.03125 26.371094 15.910156 26.398438 15.832031 C 26.414062 15.785156 26.675781 15.53125 26.855469 15.390625 L 26.953125 15.3125 L 26.886719 15.234375 C 26.777344 15.113281 26.78125 15.113281 27.324219 14.570312 C 27.53125 14.363281 27.535156 14.355469 27.496094 14.300781 C 27.425781 14.207031 27.445312 14.152344 27.628906 13.917969 C 27.847656 13.636719 28 13.390625 28.105469 13.136719 C 28.175781 12.976562 28.1875 12.921875 28.171875 12.828125 C 28.152344 12.679688 28.214844 12.609375 28.367188 12.609375 C 28.492188 12.609375 28.546875 12.675781 28.542969 12.832031 C 28.535156 12.964844 28.574219 13.078125 28.703125 13.332031 C 28.820312 13.5625 28.976562 13.792969 29.140625 13.984375 C 29.265625 14.128906 29.285156 14.214844 29.21875 14.3125 C 29.183594 14.363281 29.191406 14.375 29.460938 14.636719 C 29.75 14.910156 29.890625 15.074219 29.890625 15.128906 C 29.890625 15.144531 29.863281 15.191406 29.828125 15.230469 L 29.765625 15.304688 L 29.972656 15.484375 C 30.242188 15.714844 30.320312 15.800781 30.320312 15.863281 C 30.320312 15.941406 30.230469 16.042969 30.140625 16.058594 C 30.101562 16.070312 30.070312 16.085938 30.074219 16.097656 C 30.078125 16.109375 30.195312 16.207031 30.332031 16.3125 C 30.472656 16.417969 30.609375 16.53125 30.636719 16.570312 C 30.6875 16.636719 30.6875 16.640625 30.640625 16.722656 C 30.585938 16.816406 30.589844 16.820312 30.71875 16.894531 C 30.808594 16.949219 31.078125 17.179688 31.378906 17.460938 C 31.5 17.574219 31.539062 17.628906 31.539062 17.679688 C 31.539062 17.765625 31.429688 17.863281 31.332031 17.863281 C 31.238281 17.863281 30.871094 17.734375 30.371094 17.519531 C 29.992188 17.355469 29.914062 17.332031 29.914062 17.363281 C 29.914062 17.386719 30.128906 17.785156 30.273438 18.042969 C 30.476562 18.398438 30.652344 18.769531 30.652344 18.847656 C 30.652344 18.949219 30.613281 19.015625 30.535156 19.042969 C 30.5 19.058594 30.472656 19.078125 30.472656 19.089844 C 30.472656 19.101562 30.648438 19.257812 30.859375 19.429688 C 31.390625 19.871094 31.425781 19.910156 31.382812 20.019531 C 31.359375 20.085938 31.363281 20.089844 31.636719 20.269531 C 31.847656 20.414062 31.878906 20.476562 31.804688 20.609375 C 31.761719 20.691406 31.761719 20.691406 31.820312 20.734375 C 31.933594 20.808594 32.042969 20.921875 32.058594 20.976562 C 32.082031 21.050781 31.976562 21.15625 31.875 21.15625 C 31.828125 21.15625 31.539062 21.03125 31.15625 20.847656 C 30.796875 20.675781 30.507812 20.550781 30.503906 20.566406 C 30.492188 20.59375 30.636719 20.765625 31.050781 21.234375 C 31.3125 21.53125 31.34375 21.578125 31.332031 21.703125 C 31.324219 21.769531 31.34375 21.78125 31.757812 21.988281 C 31.992188 22.109375 32.21875 22.234375 32.257812 22.269531 C 32.34375 22.34375 32.347656 22.429688 32.265625 22.515625 C 32.210938 22.570312 32.179688 22.582031 32.0625 22.582031 C 31.984375 22.582031 31.921875 22.589844 31.921875 22.605469 C 31.921875 22.632812 32.234375 22.832031 32.769531 23.144531 C 33.164062 23.378906 33.226562 23.445312 33.15625 23.550781 C 33.078125 23.664062 32.976562 23.671875 32.695312 23.585938 C 32.554688 23.542969 32.136719 23.425781 31.769531 23.324219 C 31.398438 23.222656 31.074219 23.132812 31.050781 23.128906 C 30.96875 23.105469 31.003906 23.167969 31.25 23.476562 C 31.382812 23.644531 31.492188 23.804688 31.492188 23.828125 C 31.5 23.917969 31.484375 23.96875 31.4375 24.035156 C 31.378906 24.109375 31.359375 24.09375 31.730469 24.3125 C 32.355469 24.683594 32.429688 24.746094 32.378906 24.871094 C 32.332031 24.988281 32.265625 25.019531 32.085938 25.007812 C 31.996094 25 31.921875 25.003906 31.921875 25.015625 C 31.921875 25.027344 32.078125 25.148438 32.269531 25.285156 C 32.664062 25.566406 33.019531 25.894531 33.074219 26.027344 C 33.109375 26.105469 33.109375 26.128906 33.078125 26.199219 C 33.003906 26.371094 32.832031 26.371094 32.25 26.214844 C 31.40625 25.980469 30.511719 25.648438 28.984375 25 C 28.722656 24.886719 28.738281 24.828125 28.757812 25.855469 C 28.769531 26.34375 28.789062 26.875 28.800781 27.03125 C 28.824219 27.347656 28.808594 27.433594 28.699219 27.53125 C 28.652344 27.570312 28.597656 27.578125 28.382812 27.585938 C 28.164062 27.59375 28.113281 27.585938 28.046875 27.542969 Z M 28.046875 27.542969 " fill-opacity="1" fill-rule="nonzero"/></g><g clip-path="url(#d1ddb32a5c)"><path fill="#008037" d="M 23.324219 30.992188 C 23.179688 30.90625 23.179688 30.910156 23.210938 30.074219 C 23.242188 29.246094 23.25 28.40625 23.222656 28.382812 C 23.207031 28.367188 23.03125 28.433594 22.605469 28.621094 C 21.351562 29.164062 19.789062 29.703125 19.25 29.777344 C 19.109375 29.796875 18.960938 29.757812 18.921875 29.691406 C 18.816406 29.496094 19.035156 29.234375 19.730469 28.730469 C 19.914062 28.59375 20.066406 28.476562 20.066406 28.464844 C 20.066406 28.453125 19.988281 28.449219 19.894531 28.457031 C 19.726562 28.46875 19.71875 28.464844 19.664062 28.398438 C 19.589844 28.308594 19.59375 28.207031 19.675781 28.136719 C 19.710938 28.105469 19.90625 27.980469 20.113281 27.855469 C 20.316406 27.730469 20.511719 27.613281 20.539062 27.589844 L 20.59375 27.554688 L 20.542969 27.460938 C 20.460938 27.316406 20.492188 27.238281 20.75 26.914062 C 20.976562 26.632812 21.023438 26.554688 20.9375 26.582031 C 20.910156 26.585938 20.664062 26.65625 20.382812 26.730469 C 20.105469 26.804688 19.683594 26.921875 19.449219 26.992188 L 19.027344 27.117188 L 18.933594 27.070312 C 18.753906 26.984375 18.777344 26.851562 18.996094 26.730469 C 19.300781 26.5625 20.050781 26.089844 20.058594 26.0625 C 20.066406 26.039062 20.03125 26.03125 19.929688 26.03125 C 19.804688 26.03125 19.785156 26.023438 19.726562 25.953125 C 19.648438 25.867188 19.644531 25.808594 19.703125 25.738281 C 19.730469 25.710938 19.953125 25.582031 20.207031 25.457031 L 20.664062 25.226562 L 20.65625 25.132812 C 20.644531 25.027344 20.675781 24.976562 20.890625 24.742188 C 21.1875 24.417969 21.488281 24.054688 21.488281 24.023438 C 21.488281 23.980469 21.460938 23.992188 20.78125 24.320312 C 20.4375 24.488281 20.164062 24.605469 20.121094 24.605469 C 20.019531 24.605469 19.933594 24.535156 19.933594 24.445312 C 19.933594 24.375 19.988281 24.316406 20.15625 24.195312 C 20.230469 24.144531 20.230469 24.144531 20.1875 24.070312 C 20.097656 23.925781 20.136719 23.863281 20.449219 23.65625 C 20.625 23.542969 20.625 23.542969 20.609375 23.445312 C 20.589844 23.328125 20.578125 23.339844 21.101562 22.90625 C 21.328125 22.71875 21.511719 22.554688 21.511719 22.542969 C 21.511719 22.53125 21.480469 22.503906 21.441406 22.484375 C 21.367188 22.449219 21.335938 22.386719 21.335938 22.28125 C 21.335938 22.222656 21.535156 21.824219 21.847656 21.261719 C 21.972656 21.035156 22.070312 20.832031 22.066406 20.8125 C 22.0625 20.785156 21.96875 20.816406 21.679688 20.945312 C 21.238281 21.136719 20.753906 21.316406 20.664062 21.316406 C 20.632812 21.316406 20.566406 21.285156 20.523438 21.25 C 20.410156 21.15625 20.421875 21.085938 20.582031 20.9375 C 20.84375 20.6875 21.199219 20.390625 21.289062 20.335938 C 21.398438 20.273438 21.398438 20.265625 21.351562 20.171875 C 21.285156 20.054688 21.320312 20.011719 21.6875 19.734375 L 21.953125 19.539062 L 21.855469 19.511719 C 21.746094 19.480469 21.652344 19.359375 21.675781 19.28125 C 21.691406 19.234375 21.953125 18.980469 22.132812 18.839844 L 22.230469 18.765625 L 22.164062 18.6875 C 22.058594 18.5625 22.058594 18.5625 22.601562 18.019531 C 22.808594 17.8125 22.8125 17.808594 22.773438 17.75 C 22.703125 17.65625 22.722656 17.601562 22.90625 17.367188 C 23.125 17.085938 23.277344 16.839844 23.382812 16.585938 C 23.453125 16.425781 23.464844 16.371094 23.453125 16.277344 C 23.433594 16.128906 23.496094 16.058594 23.644531 16.058594 C 23.773438 16.058594 23.824219 16.128906 23.820312 16.28125 C 23.8125 16.417969 23.851562 16.527344 23.980469 16.785156 C 24.097656 17.011719 24.253906 17.242188 24.417969 17.433594 C 24.542969 17.578125 24.5625 17.664062 24.496094 17.761719 C 24.460938 17.816406 24.46875 17.828125 24.738281 18.085938 C 25.027344 18.363281 25.167969 18.523438 25.167969 18.578125 C 25.167969 18.59375 25.140625 18.640625 25.105469 18.683594 L 25.042969 18.753906 L 25.25 18.933594 C 25.519531 19.164062 25.601562 19.25 25.601562 19.316406 C 25.601562 19.394531 25.507812 19.492188 25.421875 19.511719 C 25.378906 19.519531 25.347656 19.535156 25.351562 19.546875 C 25.355469 19.5625 25.472656 19.65625 25.609375 19.761719 C 25.75 19.867188 25.886719 19.984375 25.914062 20.019531 C 25.964844 20.085938 25.964844 20.089844 25.917969 20.171875 C 25.867188 20.269531 25.867188 20.269531 25.996094 20.34375 C 26.085938 20.398438 26.359375 20.628906 26.660156 20.910156 C 26.777344 21.023438 26.816406 21.078125 26.816406 21.128906 C 26.816406 21.214844 26.707031 21.316406 26.609375 21.316406 C 26.515625 21.316406 26.148438 21.183594 25.648438 20.96875 C 25.269531 20.804688 25.195312 20.78125 25.195312 20.816406 C 25.195312 20.835938 25.40625 21.234375 25.550781 21.492188 C 25.757812 21.847656 25.929688 22.21875 25.929688 22.300781 C 25.929688 22.398438 25.890625 22.464844 25.8125 22.496094 C 25.78125 22.507812 25.753906 22.527344 25.753906 22.539062 C 25.753906 22.550781 25.925781 22.707031 26.140625 22.882812 C 26.671875 23.320312 26.707031 23.359375 26.664062 23.46875 C 26.636719 23.535156 26.640625 23.539062 26.914062 23.722656 C 27.125 23.863281 27.15625 23.925781 27.085938 24.058594 C 27.039062 24.140625 27.039062 24.140625 27.097656 24.183594 C 27.210938 24.257812 27.320312 24.371094 27.339844 24.425781 C 27.359375 24.503906 27.253906 24.605469 27.152344 24.605469 C 27.109375 24.605469 26.816406 24.480469 26.433594 24.296875 C 26.074219 24.125 25.789062 24 25.78125 24.015625 C 25.773438 24.042969 25.914062 24.21875 26.328125 24.683594 C 26.59375 24.980469 26.621094 25.027344 26.609375 25.152344 C 26.601562 25.21875 26.625 25.230469 27.035156 25.441406 C 27.269531 25.558594 27.496094 25.683594 27.535156 25.71875 C 27.621094 25.792969 27.625 25.878906 27.542969 25.964844 C 27.488281 26.019531 27.460938 26.03125 27.339844 26.03125 C 27.261719 26.03125 27.199219 26.042969 27.199219 26.054688 C 27.199219 26.082031 27.511719 26.28125 28.046875 26.597656 C 28.441406 26.828125 28.503906 26.894531 28.433594 27 C 28.355469 27.113281 28.253906 27.121094 27.972656 27.035156 C 27.832031 26.996094 27.417969 26.878906 27.046875 26.773438 C 26.675781 26.671875 26.355469 26.585938 26.328125 26.578125 C 26.246094 26.554688 26.285156 26.617188 26.527344 26.925781 C 26.660156 27.097656 26.769531 27.253906 26.769531 27.277344 C 26.777344 27.367188 26.761719 27.421875 26.714844 27.484375 C 26.660156 27.5625 26.640625 27.542969 27.007812 27.761719 C 27.632812 28.132812 27.707031 28.195312 27.660156 28.320312 C 27.613281 28.4375 27.542969 28.46875 27.363281 28.457031 C 27.273438 28.449219 27.199219 28.453125 27.199219 28.464844 C 27.199219 28.476562 27.355469 28.597656 27.546875 28.734375 C 27.941406 29.015625 28.296875 29.34375 28.355469 29.476562 C 28.386719 29.554688 28.386719 29.578125 28.355469 29.652344 C 28.285156 29.820312 28.109375 29.824219 27.527344 29.664062 C 26.6875 29.433594 25.792969 29.097656 24.261719 28.449219 C 24 28.339844 24.015625 28.277344 24.035156 29.304688 C 24.046875 29.792969 24.066406 30.324219 24.078125 30.484375 C 24.105469 30.800781 24.085938 30.882812 23.976562 30.980469 C 23.929688 31.019531 23.875 31.03125 23.660156 31.035156 C 23.441406 31.042969 23.394531 31.035156 23.324219 30.992188 Z M 23.324219 30.992188 " fill-opacity="1" fill-rule="nonzero"/></g><g clip-path="url(#1be36f1d82)"><path fill="#035024" d="M 9.15625 27.542969 C 9.015625 27.457031 9.015625 27.460938 9.046875 26.625 C 9.074219 25.796875 9.082031 24.953125 9.058594 24.933594 C 9.042969 24.917969 8.867188 24.984375 8.4375 25.171875 C 7.1875 25.710938 5.625 26.25 5.082031 26.328125 C 4.945312 26.347656 4.792969 26.304688 4.757812 26.238281 C 4.648438 26.042969 4.867188 25.785156 5.5625 25.28125 C 5.75 25.144531 5.902344 25.027344 5.902344 25.015625 C 5.902344 25.003906 5.824219 25 5.726562 25.007812 C 5.5625 25.015625 5.550781 25.015625 5.5 24.949219 C 5.425781 24.859375 5.425781 24.753906 5.507812 24.6875 C 5.542969 24.65625 5.742188 24.53125 5.945312 24.40625 C 6.152344 24.28125 6.34375 24.160156 6.375 24.140625 L 6.429688 24.105469 L 6.378906 24.011719 C 6.296875 23.867188 6.324219 23.789062 6.585938 23.464844 C 6.8125 23.183594 6.855469 23.105469 6.769531 23.128906 C 6.746094 23.136719 6.496094 23.207031 6.21875 23.28125 C 5.9375 23.355469 5.519531 23.472656 5.285156 23.542969 L 4.859375 23.664062 L 4.765625 23.621094 C 4.585938 23.535156 4.609375 23.402344 4.828125 23.28125 C 5.132812 23.113281 5.886719 22.640625 5.894531 22.609375 C 5.902344 22.589844 5.867188 22.582031 5.765625 22.582031 C 5.640625 22.582031 5.617188 22.574219 5.558594 22.503906 C 5.484375 22.417969 5.476562 22.359375 5.539062 22.289062 C 5.5625 22.261719 5.789062 22.132812 6.039062 22.007812 L 6.496094 21.773438 L 6.488281 21.683594 C 6.480469 21.578125 6.511719 21.527344 6.726562 21.292969 C 7.023438 20.96875 7.320312 20.605469 7.320312 20.574219 C 7.320312 20.53125 7.296875 20.542969 6.617188 20.871094 C 6.269531 21.039062 5.996094 21.15625 5.953125 21.15625 C 5.851562 21.15625 5.765625 21.082031 5.765625 20.996094 C 5.765625 20.925781 5.820312 20.863281 5.988281 20.746094 C 6.066406 20.691406 6.066406 20.691406 6.019531 20.621094 C 5.933594 20.476562 5.972656 20.414062 6.285156 20.207031 C 6.457031 20.09375 6.457031 20.089844 6.441406 19.996094 C 6.421875 19.878906 6.414062 19.886719 6.933594 19.457031 C 7.160156 19.269531 7.347656 19.105469 7.347656 19.09375 C 7.347656 19.078125 7.316406 19.054688 7.273438 19.03125 C 7.203125 18.996094 7.171875 18.933594 7.171875 18.832031 C 7.167969 18.769531 7.367188 18.375 7.679688 17.808594 C 7.808594 17.585938 7.90625 17.382812 7.902344 17.363281 C 7.894531 17.335938 7.804688 17.367188 7.511719 17.496094 C 7.070312 17.6875 6.589844 17.863281 6.5 17.863281 C 6.464844 17.863281 6.402344 17.835938 6.359375 17.800781 C 6.242188 17.707031 6.253906 17.636719 6.414062 17.488281 C 6.679688 17.238281 7.03125 16.941406 7.125 16.886719 C 7.234375 16.824219 7.234375 16.816406 7.183594 16.722656 C 7.121094 16.605469 7.15625 16.5625 7.523438 16.285156 L 7.785156 16.085938 L 7.6875 16.0625 C 7.578125 16.03125 7.484375 15.910156 7.511719 15.832031 C 7.527344 15.785156 7.789062 15.53125 7.964844 15.390625 L 8.066406 15.3125 L 7.996094 15.234375 C 7.890625 15.113281 7.894531 15.113281 8.4375 14.570312 C 8.644531 14.363281 8.648438 14.355469 8.605469 14.300781 C 8.539062 14.207031 8.558594 14.152344 8.742188 13.917969 C 8.960938 13.636719 9.109375 13.390625 9.21875 13.136719 C 9.285156 12.976562 9.296875 12.921875 9.285156 12.828125 C 9.265625 12.679688 9.328125 12.609375 9.480469 12.609375 C 9.605469 12.609375 9.660156 12.675781 9.652344 12.832031 C 9.648438 12.964844 9.683594 13.078125 9.816406 13.332031 C 9.933594 13.5625 10.089844 13.792969 10.253906 13.984375 C 10.375 14.128906 10.398438 14.214844 10.332031 14.3125 C 10.292969 14.363281 10.304688 14.375 10.574219 14.636719 C 10.863281 14.910156 11.003906 15.074219 11.003906 15.128906 C 11.003906 15.144531 10.972656 15.191406 10.941406 15.230469 L 10.875 15.304688 L 11.085938 15.484375 C 11.355469 15.714844 11.433594 15.800781 11.433594 15.863281 C 11.433594 15.941406 11.34375 16.042969 11.253906 16.058594 C 11.210938 16.070312 11.179688 16.085938 11.183594 16.097656 C 11.191406 16.109375 11.304688 16.207031 11.445312 16.3125 C 11.582031 16.417969 11.71875 16.53125 11.75 16.570312 C 11.800781 16.636719 11.800781 16.640625 11.753906 16.722656 C 11.699219 16.816406 11.699219 16.820312 11.828125 16.894531 C 11.921875 16.949219 12.191406 17.179688 12.492188 17.460938 C 12.613281 17.574219 12.652344 17.628906 12.652344 17.679688 C 12.652344 17.765625 12.542969 17.863281 12.445312 17.863281 C 12.351562 17.863281 11.984375 17.734375 11.484375 17.519531 C 11.105469 17.355469 11.027344 17.332031 11.027344 17.363281 C 11.027344 17.386719 11.238281 17.785156 11.386719 18.042969 C 11.589844 18.398438 11.765625 18.769531 11.765625 18.847656 C 11.765625 18.949219 11.722656 19.015625 11.648438 19.042969 C 11.613281 19.058594 11.585938 19.078125 11.585938 19.089844 C 11.585938 19.101562 11.761719 19.257812 11.972656 19.429688 C 12.503906 19.871094 12.539062 19.910156 12.496094 20.019531 C 12.472656 20.085938 12.476562 20.089844 12.746094 20.269531 C 12.957031 20.414062 12.992188 20.476562 12.917969 20.609375 C 12.871094 20.691406 12.871094 20.691406 12.933594 20.734375 C 13.042969 20.808594 13.15625 20.921875 13.171875 20.976562 C 13.195312 21.050781 13.085938 21.15625 12.988281 21.15625 C 12.941406 21.15625 12.652344 21.03125 12.269531 20.847656 C 11.90625 20.675781 11.621094 20.550781 11.617188 20.566406 C 11.605469 20.59375 11.746094 20.765625 12.160156 21.234375 C 12.425781 21.53125 12.457031 21.578125 12.445312 21.703125 C 12.4375 21.769531 12.457031 21.78125 12.867188 21.988281 C 13.105469 22.109375 13.332031 22.234375 13.371094 22.269531 C 13.457031 22.34375 13.460938 22.429688 13.378906 22.515625 C 13.324219 22.570312 13.292969 22.582031 13.175781 22.582031 C 13.097656 22.582031 13.035156 22.589844 13.035156 22.605469 C 13.035156 22.632812 13.347656 22.832031 13.882812 23.144531 C 14.277344 23.378906 14.339844 23.445312 14.265625 23.550781 C 14.191406 23.664062 14.085938 23.671875 13.804688 23.585938 C 13.667969 23.542969 13.25 23.425781 12.882812 23.324219 C 12.511719 23.222656 12.1875 23.132812 12.164062 23.128906 C 12.082031 23.105469 12.117188 23.167969 12.359375 23.476562 C 12.492188 23.644531 12.601562 23.804688 12.605469 23.828125 C 12.609375 23.917969 12.597656 23.96875 12.550781 24.035156 C 12.492188 24.109375 12.472656 24.09375 12.84375 24.3125 C 13.46875 24.683594 13.542969 24.746094 13.492188 24.871094 C 13.445312 24.988281 13.378906 25.019531 13.199219 25.007812 C 13.109375 25 13.035156 25.003906 13.035156 25.015625 C 13.035156 25.027344 13.191406 25.148438 13.382812 25.285156 C 13.773438 25.566406 14.128906 25.894531 14.1875 26.027344 C 14.222656 26.105469 14.222656 26.128906 14.191406 26.199219 C 14.117188 26.371094 13.941406 26.371094 13.363281 26.214844 C 12.519531 25.980469 11.625 25.648438 10.097656 25 C 9.835938 24.886719 9.851562 24.828125 9.871094 25.855469 C 9.882812 26.34375 9.898438 26.875 9.914062 27.03125 C 9.9375 27.347656 9.921875 27.433594 9.8125 27.53125 C 9.761719 27.570312 9.710938 27.578125 9.496094 27.585938 C 9.273438 27.59375 9.226562 27.585938 9.15625 27.542969 Z M 9.15625 27.542969 " fill-opacity="1" fill-rule="nonzero"/></g><g clip-path="url(#ed2297745b)"><path fill="#008037" d="M 13.878906 30.992188 C 13.738281 30.90625 13.738281 30.910156 13.765625 30.074219 C 13.796875 29.246094 13.804688 28.40625 13.78125 28.382812 C 13.765625 28.367188 13.589844 28.433594 13.160156 28.621094 C 11.90625 29.164062 10.34375 29.703125 9.804688 29.777344 C 9.667969 29.796875 9.515625 29.757812 9.480469 29.691406 C 9.371094 29.496094 9.589844 29.234375 10.285156 28.730469 C 10.472656 28.59375 10.621094 28.476562 10.621094 28.464844 C 10.621094 28.453125 10.542969 28.449219 10.449219 28.457031 C 10.285156 28.46875 10.273438 28.464844 10.21875 28.398438 C 10.144531 28.308594 10.148438 28.207031 10.230469 28.136719 C 10.265625 28.105469 10.460938 27.980469 10.667969 27.855469 C 10.875 27.730469 11.066406 27.613281 11.097656 27.589844 L 11.152344 27.554688 L 11.097656 27.460938 C 11.015625 27.316406 11.046875 27.238281 11.308594 26.914062 C 11.535156 26.632812 11.578125 26.554688 11.492188 26.582031 C 11.46875 26.585938 11.21875 26.65625 10.941406 26.730469 C 10.660156 26.804688 10.242188 26.921875 10.007812 26.992188 L 9.582031 27.117188 L 9.488281 27.070312 C 9.308594 26.984375 9.332031 26.851562 9.550781 26.730469 C 9.855469 26.5625 10.605469 26.089844 10.617188 26.0625 C 10.625 26.039062 10.585938 26.03125 10.488281 26.03125 C 10.363281 26.03125 10.339844 26.023438 10.28125 25.953125 C 10.203125 25.867188 10.199219 25.808594 10.261719 25.738281 C 10.285156 25.710938 10.511719 25.582031 10.761719 25.457031 L 11.21875 25.226562 L 11.210938 25.132812 C 11.203125 25.027344 11.234375 24.976562 11.449219 24.742188 C 11.742188 24.417969 12.042969 24.054688 12.042969 24.023438 C 12.042969 23.980469 12.019531 23.992188 11.335938 24.320312 C 10.992188 24.488281 10.71875 24.605469 10.675781 24.605469 C 10.574219 24.605469 10.488281 24.535156 10.488281 24.445312 C 10.488281 24.375 10.542969 24.316406 10.710938 24.195312 C 10.789062 24.144531 10.789062 24.144531 10.742188 24.070312 C 10.65625 23.925781 10.695312 23.863281 11.003906 23.65625 C 11.179688 23.542969 11.179688 23.542969 11.164062 23.445312 C 11.144531 23.328125 11.136719 23.339844 11.65625 22.90625 C 11.882812 22.71875 12.070312 22.554688 12.070312 22.542969 C 12.070312 22.53125 12.035156 22.503906 11.996094 22.484375 C 11.925781 22.449219 11.894531 22.386719 11.890625 22.28125 C 11.890625 22.222656 12.089844 21.824219 12.402344 21.261719 C 12.527344 21.035156 12.628906 20.832031 12.625 20.8125 C 12.617188 20.785156 12.523438 20.816406 12.234375 20.945312 C 11.792969 21.136719 11.308594 21.316406 11.222656 21.316406 C 11.1875 21.316406 11.125 21.285156 11.082031 21.25 C 10.964844 21.15625 10.976562 21.085938 11.136719 20.9375 C 11.402344 20.6875 11.753906 20.390625 11.847656 20.335938 C 11.953125 20.273438 11.957031 20.265625 11.90625 20.171875 C 11.84375 20.054688 11.878906 20.011719 12.246094 19.734375 L 12.507812 19.539062 L 12.410156 19.511719 C 12.300781 19.480469 12.207031 19.359375 12.234375 19.28125 C 12.25 19.234375 12.511719 18.980469 12.6875 18.839844 L 12.789062 18.765625 L 12.71875 18.6875 C 12.613281 18.5625 12.613281 18.5625 13.15625 18.019531 C 13.367188 17.8125 13.371094 17.808594 13.328125 17.75 C 13.261719 17.65625 13.28125 17.601562 13.464844 17.367188 C 13.683594 17.085938 13.832031 16.839844 13.941406 16.585938 C 14.007812 16.425781 14.019531 16.371094 14.007812 16.277344 C 13.988281 16.128906 14.050781 16.058594 14.199219 16.058594 C 14.328125 16.058594 14.382812 16.128906 14.375 16.28125 C 14.371094 16.417969 14.40625 16.527344 14.539062 16.785156 C 14.65625 17.011719 14.808594 17.242188 14.972656 17.433594 C 15.097656 17.578125 15.117188 17.664062 15.050781 17.761719 C 15.015625 17.816406 15.023438 17.828125 15.296875 18.085938 C 15.585938 18.363281 15.726562 18.523438 15.726562 18.578125 C 15.726562 18.59375 15.695312 18.640625 15.660156 18.683594 L 15.597656 18.753906 L 15.808594 18.933594 C 16.078125 19.164062 16.15625 19.25 16.15625 19.316406 C 16.15625 19.394531 16.066406 19.492188 15.976562 19.511719 C 15.933594 19.519531 15.902344 19.535156 15.90625 19.546875 C 15.910156 19.5625 16.027344 19.65625 16.167969 19.761719 C 16.304688 19.867188 16.441406 19.984375 16.46875 20.019531 C 16.523438 20.085938 16.523438 20.089844 16.476562 20.171875 C 16.421875 20.269531 16.421875 20.269531 16.550781 20.34375 C 16.640625 20.398438 16.914062 20.628906 17.214844 20.910156 C 17.332031 21.023438 17.375 21.078125 17.375 21.128906 C 17.375 21.214844 17.261719 21.316406 17.167969 21.316406 C 17.074219 21.316406 16.707031 21.183594 16.207031 20.96875 C 15.828125 20.804688 15.75 20.78125 15.75 20.816406 C 15.75 20.835938 15.960938 21.234375 16.109375 21.492188 C 16.3125 21.847656 16.484375 22.21875 16.484375 22.300781 C 16.484375 22.398438 16.445312 22.464844 16.371094 22.496094 C 16.335938 22.507812 16.308594 22.527344 16.308594 22.539062 C 16.308594 22.550781 16.484375 22.707031 16.695312 22.882812 C 17.226562 23.320312 17.261719 23.359375 17.21875 23.46875 C 17.195312 23.535156 17.199219 23.539062 17.46875 23.722656 C 17.679688 23.863281 17.710938 23.925781 17.640625 24.058594 C 17.59375 24.140625 17.59375 24.140625 17.65625 24.183594 C 17.765625 24.257812 17.878906 24.371094 17.894531 24.425781 C 17.917969 24.503906 17.808594 24.605469 17.707031 24.605469 C 17.664062 24.605469 17.375 24.480469 16.992188 24.296875 C 16.628906 24.125 16.34375 24 16.339844 24.015625 C 16.328125 24.042969 16.46875 24.21875 16.882812 24.683594 C 17.148438 24.980469 17.175781 25.027344 17.164062 25.152344 C 17.160156 25.21875 17.179688 25.230469 17.589844 25.441406 C 17.828125 25.558594 18.054688 25.683594 18.089844 25.71875 C 18.179688 25.792969 18.179688 25.878906 18.097656 25.964844 C 18.046875 26.019531 18.015625 26.03125 17.894531 26.03125 C 17.820312 26.03125 17.753906 26.042969 17.753906 26.054688 C 17.753906 26.082031 18.066406 26.28125 18.605469 26.597656 C 18.996094 26.828125 19.0625 26.894531 18.988281 27 C 18.914062 27.113281 18.808594 27.121094 18.527344 27.035156 C 18.390625 26.996094 17.972656 26.878906 17.601562 26.773438 C 17.234375 26.671875 16.910156 26.585938 16.886719 26.578125 C 16.804688 26.554688 16.839844 26.617188 17.082031 26.925781 C 17.214844 27.097656 17.324219 27.253906 17.328125 27.277344 C 17.332031 27.367188 17.320312 27.421875 17.273438 27.484375 C 17.214844 27.5625 17.195312 27.542969 17.566406 27.761719 C 18.191406 28.132812 18.265625 28.195312 18.214844 28.320312 C 18.167969 28.4375 18.101562 28.46875 17.921875 28.457031 C 17.828125 28.449219 17.753906 28.453125 17.753906 28.464844 C 17.753906 28.476562 17.914062 28.597656 18.105469 28.734375 C 18.496094 29.015625 18.851562 29.34375 18.910156 29.476562 C 18.945312 29.554688 18.945312 29.578125 18.914062 29.652344 C 18.839844 29.820312 18.664062 29.824219 18.085938 29.664062 C 17.242188 29.433594 16.347656 29.097656 14.816406 28.449219 C 14.558594 28.339844 14.574219 28.277344 14.59375 29.304688 C 14.601562 29.792969 14.621094 30.324219 14.632812 30.484375 C 14.660156 30.800781 14.644531 30.882812 14.53125 30.980469 C 14.484375 31.019531 14.433594 31.03125 14.21875 31.035156 C 13.996094 31.042969 13.949219 31.035156 13.878906 30.992188 Z M 13.878906 30.992188 " fill-opacity="1" fill-rule="nonzero"/></g><g clip-path="url(#1b0a88789a)"><path fill="#035024" d="M 18.601562 33.695312 C 18.457031 33.609375 18.457031 33.609375 18.488281 32.773438 C 18.519531 31.945312 18.527344 31.105469 18.503906 31.082031 C 18.488281 31.066406 18.308594 31.136719 17.882812 31.320312 C 16.628906 31.863281 15.066406 32.402344 14.527344 32.476562 C 14.386719 32.496094 14.238281 32.457031 14.203125 32.390625 C 14.09375 32.195312 14.3125 31.933594 15.007812 31.429688 C 15.191406 31.296875 15.34375 31.175781 15.34375 31.164062 C 15.34375 31.152344 15.265625 31.148438 15.171875 31.15625 C 15.003906 31.167969 14.996094 31.164062 14.941406 31.101562 C 14.867188 31.007812 14.871094 30.90625 14.953125 30.835938 C 14.988281 30.804688 15.183594 30.679688 15.390625 30.554688 C 15.59375 30.429688 15.789062 30.3125 15.816406 30.292969 L 15.875 30.253906 L 15.820312 30.160156 C 15.738281 30.015625 15.769531 29.9375 16.03125 29.613281 C 16.257812 29.332031 16.300781 29.253906 16.214844 29.28125 C 16.1875 29.289062 15.941406 29.355469 15.660156 29.429688 C 15.382812 29.507812 14.960938 29.625 14.730469 29.691406 L 14.304688 29.816406 L 14.210938 29.769531 C 14.03125 29.683594 14.054688 29.550781 14.273438 29.429688 C 14.578125 29.261719 15.328125 28.789062 15.339844 28.761719 C 15.347656 28.738281 15.308594 28.730469 15.210938 28.730469 C 15.085938 28.730469 15.0625 28.722656 15.003906 28.65625 C 14.925781 28.566406 14.921875 28.511719 14.984375 28.4375 C 15.007812 28.410156 15.234375 28.285156 15.484375 28.15625 L 15.941406 27.925781 L 15.933594 27.835938 C 15.925781 27.726562 15.953125 27.675781 16.167969 27.441406 C 16.464844 27.117188 16.765625 26.757812 16.765625 26.726562 C 16.765625 26.679688 16.742188 26.691406 16.058594 27.019531 C 15.714844 27.1875 15.441406 27.304688 15.398438 27.304688 C 15.296875 27.304688 15.210938 27.234375 15.210938 27.144531 C 15.210938 27.074219 15.265625 27.015625 15.433594 26.894531 C 15.507812 26.84375 15.507812 26.84375 15.464844 26.769531 C 15.375 26.625 15.417969 26.5625 15.726562 26.355469 C 15.902344 26.242188 15.902344 26.242188 15.886719 26.148438 C 15.867188 26.027344 15.859375 26.039062 16.378906 25.605469 C 16.605469 25.417969 16.792969 25.253906 16.792969 25.242188 C 16.792969 25.230469 16.757812 25.203125 16.71875 25.183594 C 16.648438 25.148438 16.613281 25.085938 16.613281 24.984375 C 16.613281 24.921875 16.8125 24.523438 17.125 23.960938 C 17.25 23.734375 17.351562 23.53125 17.34375 23.511719 C 17.339844 23.484375 17.246094 23.515625 16.957031 23.644531 C 16.515625 23.839844 16.03125 24.015625 15.941406 24.015625 C 15.910156 24.015625 15.847656 23.984375 15.804688 23.953125 C 15.6875 23.855469 15.699219 23.785156 15.859375 23.636719 C 16.121094 23.390625 16.476562 23.089844 16.570312 23.035156 C 16.675781 22.972656 16.679688 22.964844 16.628906 22.871094 C 16.566406 22.753906 16.597656 22.710938 16.964844 22.4375 L 17.230469 22.238281 L 17.132812 22.210938 C 17.023438 22.179688 16.929688 22.058594 16.953125 21.980469 C 16.96875 21.933594 17.234375 21.679688 17.410156 21.542969 L 17.507812 21.464844 L 17.441406 21.386719 C 17.335938 21.265625 17.335938 21.261719 17.878906 20.71875 C 18.089844 20.511719 18.089844 20.507812 18.050781 20.449219 C 17.984375 20.355469 18 20.300781 18.183594 20.066406 C 18.402344 19.789062 18.554688 19.542969 18.660156 19.289062 C 18.730469 19.125 18.742188 19.070312 18.730469 18.976562 C 18.710938 18.828125 18.773438 18.757812 18.921875 18.757812 C 19.050781 18.757812 19.105469 18.828125 19.097656 18.984375 C 19.09375 19.117188 19.128906 19.230469 19.261719 19.484375 C 19.375 19.710938 19.53125 19.941406 19.695312 20.132812 C 19.820312 20.277344 19.839844 20.363281 19.773438 20.460938 C 19.738281 20.515625 19.746094 20.527344 20.019531 20.785156 C 20.304688 21.0625 20.445312 21.222656 20.445312 21.277344 C 20.445312 21.296875 20.417969 21.34375 20.382812 21.382812 L 20.320312 21.453125 L 20.53125 21.632812 C 20.796875 21.863281 20.878906 21.949219 20.878906 22.015625 C 20.878906 22.09375 20.789062 22.191406 20.699219 22.210938 C 20.65625 22.21875 20.625 22.238281 20.628906 22.25 C 20.632812 22.261719 20.75 22.355469 20.890625 22.460938 C 21.027344 22.566406 21.164062 22.683594 21.191406 22.71875 C 21.242188 22.789062 21.242188 22.789062 21.195312 22.875 C 21.144531 22.96875 21.144531 22.96875 21.273438 23.042969 C 21.363281 23.097656 21.636719 23.328125 21.9375 23.613281 C 22.054688 23.722656 22.097656 23.777344 22.097656 23.828125 C 22.097656 23.914062 21.984375 24.015625 21.886719 24.015625 C 21.792969 24.015625 21.429688 23.882812 20.925781 23.667969 C 20.550781 23.507812 20.472656 23.480469 20.472656 23.515625 C 20.472656 23.535156 20.683594 23.9375 20.832031 24.191406 C 21.035156 24.546875 21.207031 24.917969 21.207031 25 C 21.207031 25.097656 21.167969 25.167969 21.09375 25.195312 C 21.058594 25.207031 21.03125 25.226562 21.03125 25.238281 C 21.03125 25.253906 21.203125 25.40625 21.417969 25.582031 C 21.949219 26.019531 21.984375 26.058594 21.941406 26.171875 C 21.917969 26.234375 21.917969 26.238281 22.191406 26.421875 C 22.402344 26.5625 22.433594 26.628906 22.363281 26.757812 C 22.316406 26.839844 22.316406 26.839844 22.378906 26.882812 C 22.488281 26.957031 22.601562 27.070312 22.617188 27.128906 C 22.640625 27.203125 22.53125 27.304688 22.429688 27.304688 C 22.386719 27.304688 22.097656 27.179688 21.710938 26.996094 C 21.351562 26.824219 21.066406 26.699219 21.058594 26.714844 C 21.050781 26.746094 21.191406 26.917969 21.605469 27.382812 C 21.871094 27.679688 21.898438 27.730469 21.886719 27.851562 C 21.882812 27.917969 21.902344 27.933594 22.3125 28.140625 C 22.550781 28.257812 22.773438 28.386719 22.8125 28.417969 C 22.902344 28.492188 22.902344 28.578125 22.820312 28.664062 C 22.769531 28.722656 22.738281 28.730469 22.617188 28.730469 C 22.539062 28.730469 22.476562 28.742188 22.476562 28.753906 C 22.476562 28.78125 22.789062 28.980469 23.324219 29.296875 C 23.71875 29.527344 23.78125 29.59375 23.710938 29.699219 C 23.636719 29.8125 23.53125 29.820312 23.25 29.738281 C 23.109375 29.695312 22.695312 29.578125 22.324219 29.476562 C 21.953125 29.375 21.632812 29.285156 21.609375 29.277344 C 21.527344 29.253906 21.5625 29.320312 21.804688 29.628906 C 21.9375 29.796875 22.046875 29.953125 22.046875 29.976562 C 22.054688 30.066406 22.039062 30.121094 21.996094 30.183594 C 21.9375 30.261719 21.917969 30.242188 22.285156 30.460938 C 22.914062 30.832031 22.984375 30.894531 22.9375 31.019531 C 22.890625 31.136719 22.820312 31.167969 22.644531 31.15625 C 22.550781 31.148438 22.476562 31.152344 22.476562 31.164062 C 22.476562 31.175781 22.632812 31.296875 22.828125 31.433594 C 23.21875 31.714844 23.574219 32.042969 23.632812 32.179688 C 23.664062 32.253906 23.667969 32.277344 23.636719 32.351562 C 23.5625 32.519531 23.386719 32.523438 22.808594 32.363281 C 21.964844 32.132812 21.070312 31.800781 19.539062 31.148438 C 19.277344 31.039062 19.292969 30.980469 19.316406 32.003906 C 19.324219 32.492188 19.34375 33.023438 19.355469 33.183594 C 19.382812 33.5 19.363281 33.585938 19.253906 33.679688 C 19.207031 33.71875 19.15625 33.730469 18.941406 33.734375 C 18.71875 33.742188 18.671875 33.734375 18.601562 33.695312 Z M 18.601562 33.695312 " fill-opacity="1" fill-rule="nonzero"/></g></svg>