<svg xmlns="http://www.w3.org/2000/svg" xmlns:xlink="http://www.w3.org/1999/xlink" width="50" zoomAndPan="magnify" viewBox="0 0 37.5 37.499999" height="50" preserveAspectRatio="xMidYMid meet" version="1.0"><defs><g/><clipPath id="0966f9c4a9"><path d="M 5.152344 0 L 32.347656 0 L 32.347656 37.007812 L 5.152344 37.007812 Z M 5.152344 0 " clip-rule="nonzero"/></clipPath><clipPath id="e535ad134c"><path d="M 5.152344 0.0078125 L 32.152344 0.0078125 L 32.152344 37.007812 L 5.152344 37.007812 Z M 5.152344 0.0078125 " clip-rule="nonzero"/></clipPath><clipPath id="7438d17dd6"><path d="M 16.859375 17.699219 L 20.601562 17.699219 L 20.601562 32.699219 L 16.859375 32.699219 Z M 16.859375 17.699219 " clip-rule="nonzero"/></clipPath><clipPath id="23c73ab1a4"><path d="M 11.234375 15.238281 L 14.976562 15.238281 L 14.976562 30.234375 L 11.234375 30.234375 Z M 11.234375 15.238281 " clip-rule="nonzero"/></clipPath><clipPath id="25e6958b44"><path d="M 22.484375 15.238281 L 26.226562 15.238281 L 26.226562 30.234375 L 22.484375 30.234375 Z M 22.484375 15.238281 " clip-rule="nonzero"/></clipPath></defs><g clip-path="url(#0966f9c4a9)"><path fill="#ffde59" d="M 5.152344 0 L 32.445312 0 L 32.445312 37.46875 L 5.152344 37.46875 Z M 5.152344 0 " fill-opacity="1" fill-rule="nonzero"/></g><g clip-path="url(#e535ad134c)"><path stroke-linecap="butt" transform="matrix(0.744828, 0, 0, 0.75, 5.151596, 0.00641673)" fill="none" stroke-linejoin="miter" d="M 0.00100376 0.00186103 L 36.251006 0.00186103 L 36.251006 49.981034 L 0.00100376 49.981034 L 0.00100376 0.00186103 " stroke="#d68612" stroke-width="2" stroke-opacity="1" stroke-miterlimit="4"/></g><g fill="#d68612" fill-opacity="1"><g transform="translate(9.400667, 9.149999)"><g><path d="M -0.0585938 -3.246094 L -0.0585938 -3.101562 L 0.972656 0 L 1.878906 0 L 2.015625 -0.371094 L 2.296875 -1.285156 L 2.566406 -0.382812 L 2.710938 0 L 3.617188 0 L 4.648438 -3.101562 L 4.648438 -3.246094 L 3.683594 -3.246094 L 3.359375 -2.269531 L 3.144531 -1.378906 L 2.632812 -3.058594 L 1.957031 -3.058594 L 1.445312 -1.378906 L 1.230469 -2.269531 L 0.90625 -3.246094 Z M -0.0585938 -3.246094 "/></g></g></g><g fill="#d68612" fill-opacity="1"><g transform="translate(14.272699, 9.149999)"><g><path d="M 1.097656 -2.921875 L 1.097656 -4.230469 L 0.144531 -4.230469 L 0.144531 0 L 1.144531 0 L 1.144531 -1.765625 C 1.144531 -2.152344 1.488281 -2.398438 1.769531 -2.398438 C 2.027344 -2.398438 2.269531 -2.214844 2.269531 -1.78125 L 2.269531 0 L 3.222656 0 L 3.222656 -1.789062 C 3.234375 -2.597656 2.976562 -3.28125 2.050781 -3.292969 C 1.703125 -3.292969 1.332031 -3.210938 1.097656 -2.921875 Z M 1.097656 -2.921875 "/></g></g></g><g fill="#d68612" fill-opacity="1"><g transform="translate(17.914728, 9.149999)"><g><path d="M 3.433594 -1.632812 C 3.433594 -2.742188 2.59375 -3.292969 1.757812 -3.292969 C 0.910156 -3.292969 0.078125 -2.742188 0.078125 -1.632812 C 0.078125 -0.523438 0.910156 0.0351562 1.753906 0.0351562 C 2.425781 0.0351562 3.089844 -0.316406 3.335938 -1.027344 L 2.308594 -1.027344 C 2.171875 -0.875 1.972656 -0.804688 1.765625 -0.804688 C 1.476562 -0.808594 1.183594 -0.960938 1.066406 -1.261719 L 3.394531 -1.261719 C 3.421875 -1.378906 3.433594 -1.5 3.433594 -1.632812 Z M 2.398438 -1.996094 L 1.105469 -1.996094 C 1.199219 -2.316406 1.457031 -2.472656 1.738281 -2.472656 C 2.046875 -2.472656 2.308594 -2.320312 2.398438 -1.996094 Z M 2.398438 -1.996094 "/></g></g></g><g fill="#d68612" fill-opacity="1"><g transform="translate(21.754754, 9.149999)"><g><path d="M 1.65625 -3.300781 C 0.601562 -3.300781 0.0859375 -2.554688 0.0859375 -1.667969 C 0.0859375 -0.773438 0.617188 0.0429688 1.644531 0.0429688 C 1.957031 0.0429688 2.273438 -0.046875 2.496094 -0.324219 L 2.496094 0 L 3.4375 0 L 3.4375 -3.246094 L 2.496094 -3.246094 L 2.496094 -2.910156 C 2.285156 -3.179688 1.972656 -3.300781 1.65625 -3.300781 Z M 1.757812 -0.863281 C 1.277344 -0.863281 1.03125 -1.253906 1.03125 -1.644531 C 1.03125 -2.039062 1.273438 -2.429688 1.757812 -2.429688 C 2.164062 -2.429688 2.496094 -2.074219 2.496094 -1.644531 C 2.496094 -1.210938 2.164062 -0.863281 1.757812 -0.863281 Z M 1.757812 -0.863281 "/></g></g></g><g fill="#d68612" fill-opacity="1"><g transform="translate(25.612779, 9.149999)"><g><path d="M 2.160156 0.0078125 L 2.128906 -0.773438 C 2.046875 -0.757812 1.949219 -0.742188 1.859375 -0.742188 C 1.632812 -0.742188 1.421875 -0.835938 1.421875 -1.121094 L 1.421875 -2.398438 L 2.101562 -2.398438 L 2.101562 -3.210938 L 1.421875 -3.210938 L 1.421875 -3.910156 L 0.480469 -3.828125 L 0.480469 -3.210938 L 0.0546875 -3.210938 L 0.0546875 -2.398438 L 0.480469 -2.398438 L 0.480469 -1.121094 C 0.480469 -0.28125 0.910156 0.0546875 1.625 0.0546875 C 1.789062 0.0546875 1.96875 0.0351562 2.160156 0.0078125 Z M 2.160156 0.0078125 "/></g></g></g><g clip-path="url(#7438d17dd6)"><path fill="#d68612" d="M 18.445312 28.675781 C 18.503906 27.335938 17.511719 26.101562 16.859375 26.617188 C 17.230469 26.578125 17.628906 26.738281 17.800781 27.242188 C 17.304688 26.699219 16.808594 26.847656 16.949219 27.179688 C 17.242188 27.863281 18.195312 27.464844 18.445312 28.675781 Z M 18.445312 27.5 C 18.503906 26.160156 17.511719 24.925781 16.859375 25.4375 C 17.230469 25.402344 17.628906 25.5625 17.800781 26.0625 C 17.304688 25.523438 16.808594 25.667969 16.949219 26.003906 C 17.242188 26.6875 18.195312 26.285156 18.445312 27.5 Z M 18.445312 26.296875 C 18.195312 25.082031 17.242188 25.484375 16.949219 24.800781 C 16.808594 24.464844 17.304688 24.320312 17.800781 24.859375 C 17.628906 24.359375 17.230469 24.199219 16.859375 24.234375 C 17.511719 23.722656 18.503906 24.957031 18.445312 26.296875 Z M 18.445312 25.09375 C 18.503906 23.753906 17.511719 22.519531 16.859375 23.03125 C 17.230469 22.996094 17.628906 23.15625 17.800781 23.65625 C 17.304688 23.117188 16.808594 23.261719 16.949219 23.597656 C 17.242188 24.28125 18.195312 23.878906 18.445312 25.09375 Z M 18.445312 23.890625 C 18.503906 22.550781 17.511719 21.316406 16.859375 21.828125 C 17.230469 21.792969 17.628906 21.953125 17.800781 22.453125 C 17.304688 21.914062 16.808594 22.058594 16.949219 22.394531 C 17.242188 23.078125 18.195312 22.675781 18.445312 23.890625 Z M 18.445312 22.714844 C 18.195312 21.5 17.242188 21.902344 16.949219 21.214844 C 16.808594 20.882812 17.304688 20.738281 17.800781 21.277344 C 17.628906 20.777344 17.230469 20.617188 16.859375 20.652344 C 17.511719 20.140625 18.503906 21.375 18.445312 22.714844 Z M 18.445312 21.511719 C 18.195312 20.296875 17.242188 20.699219 16.949219 20.011719 C 16.808594 19.679688 17.304688 19.535156 17.800781 20.074219 C 17.628906 19.574219 17.230469 19.414062 16.859375 19.449219 C 17.511719 18.9375 18.503906 20.171875 18.445312 21.511719 Z M 18.332031 20.3125 C 18.246094 19.808594 17.605469 19.363281 17.554688 19 C 17.519531 18.738281 17.882812 18.710938 18.15625 19.179688 C 18.109375 18.792969 17.851562 18.613281 17.578125 18.582031 C 18.125 18.316406 18.582031 19.359375 18.332031 20.3125 Z M 18.550781 20.238281 L 18.613281 17.808594 C 18.617188 17.664062 18.453125 17.664062 18.460938 17.8125 Z M 18.429688 19.171875 C 18.390625 18.75 18.300781 18.347656 18.152344 17.96875 C 18.101562 17.847656 17.945312 17.902344 18.011719 18.03125 C 18.207031 18.398438 18.339844 18.761719 18.429688 19.171875 Z M 19.015625 28.675781 C 18.960938 27.335938 19.953125 26.101562 20.601562 26.617188 C 20.230469 26.578125 19.832031 26.738281 19.664062 27.242188 C 20.160156 26.699219 20.652344 26.847656 20.511719 27.179688 C 20.222656 27.863281 19.269531 27.464844 19.015625 28.675781 Z M 19.015625 27.5 C 18.960938 26.160156 19.953125 24.925781 20.601562 25.4375 C 20.230469 25.402344 19.832031 25.5625 19.664062 26.0625 C 20.160156 25.523438 20.652344 25.667969 20.511719 26.003906 C 20.222656 26.6875 19.269531 26.285156 19.015625 27.5 Z M 19.015625 26.296875 C 19.269531 25.082031 20.222656 25.484375 20.511719 24.800781 C 20.652344 24.464844 20.160156 24.320312 19.664062 24.859375 C 19.832031 24.359375 20.230469 24.199219 20.601562 24.234375 C 19.953125 23.722656 18.960938 24.957031 19.015625 26.296875 Z M 19.015625 25.09375 C 19.269531 23.878906 20.222656 24.28125 20.511719 23.597656 C 20.652344 23.261719 20.160156 23.117188 19.664062 23.65625 C 19.832031 23.15625 20.230469 22.996094 20.601562 23.03125 C 19.953125 22.519531 18.960938 23.753906 19.015625 25.09375 Z M 19.015625 23.890625 C 18.960938 22.550781 19.953125 21.316406 20.601562 21.828125 C 20.230469 21.792969 19.832031 21.953125 19.664062 22.453125 C 20.160156 21.914062 20.652344 22.058594 20.511719 22.394531 C 20.222656 23.078125 19.269531 22.675781 19.015625 23.890625 Z M 19.015625 22.714844 C 18.960938 21.375 19.953125 20.140625 20.601562 20.652344 C 20.230469 20.617188 19.832031 20.777344 19.664062 21.277344 C 20.160156 20.738281 20.652344 20.882812 20.511719 21.214844 C 20.222656 21.902344 19.269531 21.5 19.015625 22.714844 Z M 19.015625 21.511719 C 19.269531 20.296875 20.222656 20.699219 20.511719 20.011719 C 20.652344 19.679688 20.160156 19.535156 19.664062 20.074219 C 19.832031 19.574219 20.230469 19.414062 20.601562 19.449219 C 19.953125 18.9375 18.960938 20.171875 19.015625 21.511719 Z M 19.128906 20.3125 C 19.214844 19.808594 19.859375 19.363281 19.90625 19 C 19.945312 18.738281 19.582031 18.710938 19.308594 19.179688 C 19.351562 18.792969 19.613281 18.613281 19.882812 18.582031 C 19.339844 18.316406 18.882812 19.359375 19.128906 20.3125 Z M 18.910156 20.238281 L 19.003906 17.8125 C 19.007812 17.664062 18.847656 17.664062 18.851562 17.808594 Z M 19.035156 19.171875 C 19.070312 18.75 19.160156 18.347656 19.3125 17.96875 C 19.359375 17.847656 19.519531 17.902344 19.449219 18.03125 C 19.253906 18.398438 19.121094 18.761719 19.035156 19.171875 Z M 19.015625 29.878906 C 19.269531 28.667969 20.222656 29.066406 20.511719 28.382812 C 20.652344 28.050781 20.160156 27.902344 19.664062 28.445312 C 19.832031 27.941406 20.230469 27.78125 20.601562 27.820312 C 19.953125 27.304688 18.960938 28.539062 19.015625 29.878906 Z M 18.445312 29.878906 C 18.195312 28.667969 17.242188 29.066406 16.949219 28.382812 C 16.808594 28.050781 17.304688 27.902344 17.800781 28.445312 C 17.628906 27.941406 17.230469 27.78125 16.859375 27.820312 C 17.511719 27.304688 18.503906 28.539062 18.445312 29.878906 Z M 18.847656 32.699219 L 18.613281 32.699219 L 18.730469 17.710938 L 18.847656 32.699219 " fill-opacity="1" fill-rule="evenodd"/></g><g clip-path="url(#23c73ab1a4)"><path fill="#d68612" d="M 12.820312 26.214844 C 12.878906 24.871094 11.886719 23.640625 11.234375 24.152344 C 11.605469 24.117188 12.003906 24.277344 12.175781 24.777344 C 11.679688 24.238281 11.183594 24.382812 11.324219 24.714844 C 11.617188 25.402344 12.570312 25 12.820312 26.214844 Z M 12.820312 25.035156 C 12.878906 23.695312 11.886719 22.460938 11.234375 22.976562 C 11.605469 22.9375 12.003906 23.097656 12.175781 23.601562 C 11.679688 23.0625 11.183594 23.207031 11.324219 23.539062 C 11.617188 24.222656 12.570312 23.824219 12.820312 25.035156 Z M 12.820312 23.832031 C 12.570312 22.621094 11.617188 23.019531 11.324219 22.335938 C 11.183594 22.003906 11.679688 21.859375 12.175781 22.398438 C 12.003906 21.894531 11.605469 21.734375 11.234375 21.773438 C 11.886719 21.257812 12.878906 22.492188 12.820312 23.832031 Z M 12.820312 22.628906 C 12.878906 21.289062 11.886719 20.054688 11.234375 20.570312 C 11.605469 20.53125 12.003906 20.691406 12.175781 21.195312 C 11.679688 20.652344 11.183594 20.800781 11.324219 21.132812 C 11.617188 21.816406 12.570312 21.417969 12.820312 22.628906 Z M 12.820312 21.425781 C 12.878906 20.085938 11.886719 18.851562 11.234375 19.367188 C 11.605469 19.328125 12.003906 19.488281 12.175781 19.992188 C 11.679688 19.449219 11.183594 19.597656 11.324219 19.929688 C 11.617188 20.613281 12.570312 20.214844 12.820312 21.425781 Z M 12.820312 20.25 C 12.570312 19.039062 11.617188 19.4375 11.324219 18.753906 C 11.183594 18.421875 11.679688 18.273438 12.175781 18.8125 C 12.003906 18.3125 11.605469 18.152344 11.234375 18.1875 C 11.886719 17.675781 12.878906 18.910156 12.820312 20.25 Z M 12.820312 19.046875 C 12.570312 17.835938 11.617188 18.234375 11.324219 17.550781 C 11.183594 17.21875 11.679688 17.070312 12.175781 17.609375 C 12.003906 17.109375 11.605469 16.949219 11.234375 16.984375 C 11.886719 16.472656 12.878906 17.707031 12.820312 19.046875 Z M 12.707031 17.847656 C 12.621094 17.34375 11.980469 16.898438 11.929688 16.539062 C 11.894531 16.273438 12.257812 16.25 12.53125 16.714844 C 12.484375 16.328125 12.226562 16.152344 11.953125 16.117188 C 12.5 15.851562 12.957031 16.894531 12.707031 17.847656 Z M 12.925781 17.773438 L 12.988281 15.347656 C 12.992188 15.199219 12.828125 15.199219 12.835938 15.351562 Z M 12.804688 16.707031 C 12.765625 16.285156 12.675781 15.882812 12.527344 15.503906 C 12.476562 15.386719 12.320312 15.441406 12.386719 15.570312 C 12.582031 15.933594 12.714844 16.300781 12.804688 16.707031 Z M 13.390625 26.214844 C 13.335938 24.871094 14.328125 23.640625 14.976562 24.152344 C 14.605469 24.117188 14.207031 24.277344 14.039062 24.777344 C 14.535156 24.238281 15.027344 24.382812 14.886719 24.714844 C 14.597656 25.402344 13.644531 25 13.390625 26.214844 Z M 13.390625 25.035156 C 13.335938 23.695312 14.328125 22.460938 14.976562 22.976562 C 14.605469 22.9375 14.207031 23.097656 14.039062 23.601562 C 14.535156 23.0625 15.027344 23.207031 14.886719 23.539062 C 14.597656 24.222656 13.644531 23.824219 13.390625 25.035156 Z M 13.390625 23.832031 C 13.644531 22.621094 14.597656 23.019531 14.886719 22.335938 C 15.027344 22.003906 14.535156 21.859375 14.039062 22.398438 C 14.207031 21.894531 14.605469 21.734375 14.976562 21.773438 C 14.328125 21.257812 13.335938 22.492188 13.390625 23.832031 Z M 13.390625 22.628906 C 13.644531 21.417969 14.597656 21.816406 14.886719 21.132812 C 15.027344 20.800781 14.535156 20.652344 14.039062 21.195312 C 14.207031 20.691406 14.605469 20.53125 14.976562 20.570312 C 14.328125 20.054688 13.335938 21.289062 13.390625 22.628906 Z M 13.390625 21.425781 C 13.335938 20.085938 14.328125 18.851562 14.976562 19.367188 C 14.605469 19.328125 14.207031 19.488281 14.039062 19.992188 C 14.535156 19.449219 15.027344 19.597656 14.886719 19.929688 C 14.597656 20.613281 13.644531 20.214844 13.390625 21.425781 Z M 13.390625 20.25 C 13.335938 18.910156 14.328125 17.675781 14.976562 18.1875 C 14.605469 18.152344 14.207031 18.3125 14.039062 18.8125 C 14.535156 18.273438 15.027344 18.421875 14.886719 18.753906 C 14.597656 19.4375 13.644531 19.039062 13.390625 20.25 Z M 13.390625 19.046875 C 13.644531 17.835938 14.597656 18.234375 14.886719 17.550781 C 15.027344 17.21875 14.535156 17.070312 14.039062 17.609375 C 14.207031 17.109375 14.605469 16.949219 14.976562 16.984375 C 14.328125 16.472656 13.335938 17.707031 13.390625 19.046875 Z M 13.503906 17.847656 C 13.589844 17.34375 14.234375 16.898438 14.28125 16.539062 C 14.320312 16.273438 13.957031 16.25 13.683594 16.714844 C 13.726562 16.328125 13.988281 16.152344 14.257812 16.117188 C 13.714844 15.851562 13.257812 16.894531 13.503906 17.847656 Z M 13.285156 17.773438 L 13.378906 15.351562 C 13.382812 15.199219 13.222656 15.199219 13.226562 15.347656 Z M 13.410156 16.707031 C 13.445312 16.285156 13.535156 15.882812 13.6875 15.503906 C 13.734375 15.386719 13.894531 15.441406 13.824219 15.570312 C 13.628906 15.933594 13.496094 16.300781 13.410156 16.707031 Z M 13.390625 27.417969 C 13.644531 26.203125 14.597656 26.605469 14.886719 25.917969 C 15.027344 25.585938 14.535156 25.441406 14.039062 25.980469 C 14.207031 25.480469 14.605469 25.320312 14.976562 25.355469 C 14.328125 24.84375 13.335938 26.074219 13.390625 27.417969 Z M 12.820312 27.417969 C 12.570312 26.203125 11.617188 26.605469 11.324219 25.917969 C 11.183594 25.585938 11.679688 25.441406 12.175781 25.980469 C 12.003906 25.480469 11.605469 25.320312 11.234375 25.355469 C 11.886719 24.84375 12.878906 26.074219 12.820312 27.417969 Z M 13.222656 30.234375 L 12.988281 30.234375 L 13.105469 15.246094 L 13.222656 30.234375 " fill-opacity="1" fill-rule="evenodd"/></g><g clip-path="url(#25e6958b44)"><path fill="#d68612" d="M 24.070312 26.214844 C 24.128906 24.871094 23.136719 23.640625 22.484375 24.152344 C 22.855469 24.117188 23.253906 24.277344 23.425781 24.777344 C 22.929688 24.238281 22.433594 24.382812 22.574219 24.714844 C 22.867188 25.402344 23.820312 25 24.070312 26.214844 Z M 24.070312 25.035156 C 24.128906 23.695312 23.136719 22.460938 22.484375 22.976562 C 22.855469 22.9375 23.253906 23.097656 23.425781 23.601562 C 22.929688 23.0625 22.433594 23.207031 22.574219 23.539062 C 22.867188 24.222656 23.820312 23.824219 24.070312 25.035156 Z M 24.070312 23.832031 C 23.820312 22.621094 22.867188 23.019531 22.574219 22.335938 C 22.433594 22.003906 22.929688 21.859375 23.425781 22.398438 C 23.253906 21.894531 22.855469 21.734375 22.484375 21.773438 C 23.136719 21.257812 24.128906 22.492188 24.070312 23.832031 Z M 24.070312 22.628906 C 24.128906 21.289062 23.136719 20.054688 22.484375 20.570312 C 22.855469 20.53125 23.253906 20.691406 23.425781 21.195312 C 22.929688 20.652344 22.433594 20.800781 22.574219 21.132812 C 22.867188 21.816406 23.820312 21.417969 24.070312 22.628906 Z M 24.070312 21.425781 C 24.128906 20.085938 23.136719 18.851562 22.484375 19.367188 C 22.855469 19.328125 23.253906 19.488281 23.425781 19.992188 C 22.929688 19.449219 22.433594 19.597656 22.574219 19.929688 C 22.867188 20.613281 23.820312 20.214844 24.070312 21.425781 Z M 24.070312 20.25 C 23.820312 19.039062 22.867188 19.4375 22.574219 18.753906 C 22.433594 18.421875 22.929688 18.273438 23.425781 18.8125 C 23.253906 18.3125 22.855469 18.152344 22.484375 18.1875 C 23.136719 17.675781 24.128906 18.910156 24.070312 20.25 Z M 24.070312 19.046875 C 23.820312 17.835938 22.867188 18.234375 22.574219 17.550781 C 22.433594 17.21875 22.929688 17.070312 23.425781 17.609375 C 23.253906 17.109375 22.855469 16.949219 22.484375 16.984375 C 23.136719 16.472656 24.128906 17.707031 24.070312 19.046875 Z M 23.957031 17.847656 C 23.871094 17.34375 23.230469 16.898438 23.179688 16.539062 C 23.144531 16.273438 23.507812 16.25 23.78125 16.714844 C 23.734375 16.328125 23.476562 16.152344 23.203125 16.117188 C 23.75 15.851562 24.207031 16.894531 23.957031 17.847656 Z M 24.175781 17.773438 L 24.238281 15.347656 C 24.242188 15.199219 24.078125 15.199219 24.085938 15.351562 Z M 24.054688 16.707031 C 24.015625 16.285156 23.925781 15.882812 23.777344 15.503906 C 23.726562 15.386719 23.570312 15.441406 23.636719 15.570312 C 23.832031 15.933594 23.964844 16.300781 24.054688 16.707031 Z M 24.640625 26.214844 C 24.585938 24.871094 25.578125 23.640625 26.226562 24.152344 C 25.855469 24.117188 25.457031 24.277344 25.289062 24.777344 C 25.785156 24.238281 26.277344 24.382812 26.136719 24.714844 C 25.847656 25.402344 24.894531 25 24.640625 26.214844 Z M 24.640625 25.035156 C 24.585938 23.695312 25.578125 22.460938 26.226562 22.976562 C 25.855469 22.9375 25.457031 23.097656 25.289062 23.601562 C 25.785156 23.0625 26.277344 23.207031 26.136719 23.539062 C 25.847656 24.222656 24.894531 23.824219 24.640625 25.035156 Z M 24.640625 23.832031 C 24.894531 22.621094 25.847656 23.019531 26.136719 22.335938 C 26.277344 22.003906 25.785156 21.859375 25.289062 22.398438 C 25.457031 21.894531 25.855469 21.734375 26.226562 21.773438 C 25.578125 21.257812 24.585938 22.492188 24.640625 23.832031 Z M 24.640625 22.628906 C 24.894531 21.417969 25.847656 21.816406 26.136719 21.132812 C 26.277344 20.800781 25.785156 20.652344 25.289062 21.195312 C 25.457031 20.691406 25.855469 20.53125 26.226562 20.570312 C 25.578125 20.054688 24.585938 21.289062 24.640625 22.628906 Z M 24.640625 21.425781 C 24.585938 20.085938 25.578125 18.851562 26.226562 19.367188 C 25.855469 19.328125 25.457031 19.488281 25.289062 19.992188 C 25.785156 19.449219 26.277344 19.597656 26.136719 19.929688 C 25.847656 20.613281 24.894531 20.214844 24.640625 21.425781 Z M 24.640625 20.25 C 24.585938 18.910156 25.578125 17.675781 26.226562 18.1875 C 25.855469 18.152344 25.457031 18.3125 25.289062 18.8125 C 25.785156 18.273438 26.277344 18.421875 26.136719 18.753906 C 25.847656 19.4375 24.894531 19.039062 24.640625 20.25 Z M 24.640625 19.046875 C 24.894531 17.835938 25.847656 18.234375 26.136719 17.550781 C 26.277344 17.21875 25.785156 17.070312 25.289062 17.609375 C 25.457031 17.109375 25.855469 16.949219 26.226562 16.984375 C 25.578125 16.472656 24.585938 17.707031 24.640625 19.046875 Z M 24.753906 17.847656 C 24.839844 17.34375 25.484375 16.898438 25.53125 16.539062 C 25.570312 16.273438 25.207031 16.25 24.933594 16.714844 C 24.976562 16.328125 25.238281 16.152344 25.507812 16.117188 C 24.964844 15.851562 24.507812 16.894531 24.753906 17.847656 Z M 24.535156 17.773438 L 24.628906 15.351562 C 24.632812 15.199219 24.472656 15.199219 24.476562 15.347656 Z M 24.660156 16.707031 C 24.695312 16.285156 24.785156 15.882812 24.9375 15.503906 C 24.984375 15.386719 25.144531 15.441406 25.074219 15.570312 C 24.878906 15.933594 24.746094 16.300781 24.660156 16.707031 Z M 24.640625 27.417969 C 24.894531 26.203125 25.847656 26.605469 26.136719 25.917969 C 26.277344 25.585938 25.785156 25.441406 25.289062 25.980469 C 25.457031 25.480469 25.855469 25.320312 26.226562 25.355469 C 25.578125 24.84375 24.585938 26.074219 24.640625 27.417969 Z M 24.070312 27.417969 C 23.820312 26.203125 22.867188 26.605469 22.574219 25.917969 C 22.433594 25.585938 22.929688 25.441406 23.425781 25.980469 C 23.253906 25.480469 22.855469 25.320312 22.484375 25.355469 C 23.136719 24.84375 24.128906 26.074219 24.070312 27.417969 Z M 24.472656 30.234375 L 24.238281 30.234375 L 24.355469 15.246094 L 24.472656 30.234375 " fill-opacity="1" fill-rule="evenodd"/></g></svg>