<svg xmlns="http://www.w3.org/2000/svg" xmlns:xlink="http://www.w3.org/1999/xlink" width="50" zoomAndPan="magnify" viewBox="0 0 37.5 37.499999" height="50" preserveAspectRatio="xMidYMid meet" version="1.0"><defs><g/><clipPath id="83b3bf1dec"><path d="M 5.152344 0 L 32.347656 0 L 32.347656 37.007812 L 5.152344 37.007812 Z M 5.152344 0 " clip-rule="nonzero"/></clipPath><clipPath id="fd0683c3da"><path d="M 5.152344 0.0078125 L 32.152344 0.0078125 L 32.152344 37.007812 L 5.152344 37.007812 Z M 5.152344 0.0078125 " clip-rule="nonzero"/></clipPath><clipPath id="60c1179c73"><path d="M 22.773438 15.722656 L 31 15.722656 L 31 28.472656 L 22.773438 28.472656 Z M 22.773438 15.722656 " clip-rule="nonzero"/></clipPath><clipPath id="1269a9dfb5"><path d="M 18.75 18.664062 L 27 18.664062 L 27 31.414062 L 18.75 31.414062 Z M 18.75 18.664062 " clip-rule="nonzero"/></clipPath><clipPath id="b39a9e0ca4"><path d="M 6.675781 15.722656 L 14.925781 15.722656 L 14.925781 28.472656 L 6.675781 28.472656 Z M 6.675781 15.722656 " clip-rule="nonzero"/></clipPath><clipPath id="34fb2fef53"><path d="M 10.703125 18.664062 L 18.953125 18.664062 L 18.953125 31.414062 L 10.703125 31.414062 Z M 10.703125 18.664062 " clip-rule="nonzero"/></clipPath><clipPath id="d01655a827"><path d="M 14.726562 20.964844 L 22.976562 20.964844 L 22.976562 33.714844 L 14.726562 33.714844 Z M 14.726562 20.964844 " clip-rule="nonzero"/></clipPath></defs><g clip-path="url(#83b3bf1dec)"><path fill="#47ab1d" d="M 5.152344 0 L 32.445312 0 L 32.445312 37.46875 L 5.152344 37.46875 Z M 5.152344 0 " fill-opacity="1" fill-rule="nonzero"/></g><g clip-path="url(#fd0683c3da)"><path stroke-linecap="butt" transform="matrix(0.744828, 0, 0, 0.75, 5.151596, 0.00641673)" fill="none" stroke-linejoin="miter" d="M 0.00100376 0.00186103 L 36.251006 0.00186103 L 36.251006 49.981034 L 0.00100376 49.981034 L 0.00100376 0.00186103 " stroke="#035024" stroke-width="2" stroke-opacity="1" stroke-miterlimit="4"/></g><g clip-path="url(#60c1179c73)"><path fill="#035024" d="M 26.644531 28.429688 C 26.523438 28.359375 26.523438 28.359375 26.550781 27.648438 C 26.574219 26.945312 26.582031 26.230469 26.558594 26.210938 C 26.546875 26.195312 26.398438 26.253906 26.035156 26.410156 C 24.976562 26.875 23.652344 27.332031 23.195312 27.394531 C 23.078125 27.414062 22.953125 27.378906 22.921875 27.320312 C 22.828125 27.15625 23.015625 26.933594 23.601562 26.503906 C 23.757812 26.390625 23.886719 26.289062 23.886719 26.28125 C 23.886719 26.269531 23.820312 26.265625 23.742188 26.273438 C 23.601562 26.28125 23.59375 26.28125 23.546875 26.226562 C 23.484375 26.148438 23.488281 26.058594 23.554688 26 C 23.585938 25.976562 23.753906 25.867188 23.925781 25.761719 C 24.101562 25.65625 24.261719 25.554688 24.289062 25.535156 L 24.335938 25.503906 L 24.292969 25.425781 C 24.222656 25.300781 24.246094 25.234375 24.46875 24.960938 C 24.660156 24.722656 24.695312 24.65625 24.625 24.675781 C 24.601562 24.683594 24.394531 24.742188 24.15625 24.804688 C 23.921875 24.867188 23.566406 24.96875 23.367188 25.027344 L 23.007812 25.132812 L 22.929688 25.09375 C 22.777344 25.019531 22.796875 24.90625 22.980469 24.804688 C 23.238281 24.660156 23.875 24.257812 23.882812 24.234375 C 23.890625 24.214844 23.859375 24.210938 23.773438 24.210938 C 23.667969 24.210938 23.648438 24.203125 23.601562 24.144531 C 23.535156 24.070312 23.53125 24.023438 23.582031 23.960938 C 23.601562 23.9375 23.792969 23.828125 24.007812 23.722656 L 24.394531 23.523438 L 24.386719 23.445312 C 24.378906 23.355469 24.402344 23.3125 24.585938 23.113281 C 24.835938 22.835938 25.089844 22.53125 25.089844 22.503906 C 25.089844 22.464844 25.070312 22.476562 24.492188 22.753906 C 24.203125 22.898438 23.96875 22.996094 23.933594 22.996094 C 23.847656 22.996094 23.773438 22.9375 23.773438 22.863281 C 23.773438 22.800781 23.820312 22.75 23.964844 22.648438 C 24.027344 22.605469 24.027344 22.605469 23.988281 22.542969 C 23.914062 22.417969 23.949219 22.367188 24.210938 22.191406 C 24.359375 22.09375 24.359375 22.09375 24.347656 22.011719 C 24.328125 21.910156 24.324219 21.917969 24.761719 21.550781 C 24.957031 21.390625 25.113281 21.253906 25.113281 21.242188 C 25.113281 21.230469 25.085938 21.210938 25.050781 21.191406 C 24.988281 21.160156 24.960938 21.109375 24.960938 21.019531 C 24.960938 20.96875 25.128906 20.632812 25.394531 20.152344 C 25.5 19.960938 25.585938 19.789062 25.582031 19.773438 C 25.574219 19.75 25.496094 19.773438 25.25 19.882812 C 24.878906 20.046875 24.46875 20.199219 24.394531 20.199219 C 24.367188 20.199219 24.3125 20.175781 24.277344 20.144531 C 24.175781 20.0625 24.1875 20.003906 24.324219 19.875 C 24.546875 19.664062 24.84375 19.410156 24.925781 19.363281 C 25.015625 19.3125 25.015625 19.304688 24.972656 19.226562 C 24.921875 19.125 24.949219 19.089844 25.261719 18.855469 L 25.484375 18.6875 L 25.402344 18.664062 C 25.308594 18.636719 25.230469 18.535156 25.25 18.46875 C 25.265625 18.425781 25.484375 18.210938 25.636719 18.09375 L 25.71875 18.027344 L 25.664062 17.960938 C 25.574219 17.859375 25.574219 17.855469 26.03125 17.394531 C 26.210938 17.21875 26.210938 17.214844 26.179688 17.167969 C 26.121094 17.085938 26.136719 17.039062 26.292969 16.839844 C 26.476562 16.601562 26.605469 16.394531 26.695312 16.175781 C 26.753906 16.039062 26.761719 15.992188 26.753906 15.914062 C 26.734375 15.789062 26.789062 15.726562 26.917969 15.726562 C 27.023438 15.726562 27.070312 15.785156 27.0625 15.917969 C 27.058594 16.03125 27.089844 16.125 27.203125 16.34375 C 27.300781 16.535156 27.429688 16.734375 27.570312 16.898438 C 27.675781 17.019531 27.691406 17.09375 27.636719 17.175781 C 27.605469 17.222656 27.613281 17.230469 27.84375 17.453125 C 28.085938 17.6875 28.207031 17.824219 28.207031 17.871094 C 28.207031 17.886719 28.179688 17.925781 28.152344 17.957031 L 28.097656 18.019531 L 28.277344 18.171875 C 28.503906 18.367188 28.570312 18.441406 28.570312 18.496094 C 28.570312 18.5625 28.492188 18.648438 28.417969 18.664062 C 28.382812 18.671875 28.355469 18.683594 28.359375 18.695312 C 28.363281 18.707031 28.460938 18.789062 28.578125 18.875 C 28.695312 18.964844 28.8125 19.066406 28.835938 19.097656 C 28.878906 19.152344 28.878906 19.15625 28.839844 19.226562 C 28.796875 19.308594 28.796875 19.308594 28.90625 19.371094 C 28.980469 19.417969 29.210938 19.617188 29.464844 19.855469 C 29.566406 19.949219 29.601562 19.996094 29.601562 20.039062 C 29.601562 20.113281 29.507812 20.199219 29.425781 20.199219 C 29.347656 20.199219 29.035156 20.085938 28.613281 19.902344 C 28.292969 19.765625 28.226562 19.742188 28.226562 19.773438 C 28.226562 19.792969 28.40625 20.132812 28.53125 20.351562 C 28.703125 20.652344 28.851562 20.96875 28.851562 21.035156 C 28.851562 21.121094 28.816406 21.179688 28.75 21.203125 C 28.722656 21.210938 28.699219 21.230469 28.699219 21.238281 C 28.699219 21.25 28.847656 21.382812 29.027344 21.53125 C 29.476562 21.902344 29.503906 21.9375 29.46875 22.03125 C 29.449219 22.085938 29.453125 22.089844 29.679688 22.246094 C 29.859375 22.367188 29.886719 22.421875 29.828125 22.53125 C 29.789062 22.601562 29.789062 22.601562 29.839844 22.636719 C 29.933594 22.699219 30.027344 22.796875 30.042969 22.847656 C 30.058594 22.910156 29.96875 22.996094 29.882812 22.996094 C 29.847656 22.996094 29.601562 22.890625 29.277344 22.734375 C 28.972656 22.585938 28.730469 22.484375 28.722656 22.496094 C 28.714844 22.519531 28.835938 22.667969 29.1875 23.0625 C 29.410156 23.316406 29.433594 23.359375 29.425781 23.464844 C 29.417969 23.519531 29.4375 23.53125 29.785156 23.707031 C 29.984375 23.808594 30.175781 23.914062 30.207031 23.945312 C 30.28125 24.007812 30.285156 24.082031 30.214844 24.152344 C 30.167969 24.199219 30.144531 24.210938 30.042969 24.210938 C 29.976562 24.210938 29.921875 24.21875 29.921875 24.230469 C 29.921875 24.253906 30.1875 24.421875 30.640625 24.691406 C 30.972656 24.886719 31.027344 24.945312 30.96875 25.035156 C 30.902344 25.128906 30.816406 25.136719 30.578125 25.066406 C 30.460938 25.03125 30.109375 24.929688 29.792969 24.84375 C 29.480469 24.757812 29.207031 24.679688 29.1875 24.675781 C 29.117188 24.65625 29.148438 24.710938 29.355469 24.972656 C 29.464844 25.117188 29.558594 25.25 29.5625 25.269531 C 29.566406 25.347656 29.554688 25.390625 29.515625 25.445312 C 29.464844 25.511719 29.449219 25.496094 29.761719 25.683594 C 30.292969 25.996094 30.355469 26.050781 30.3125 26.15625 C 30.273438 26.257812 30.214844 26.285156 30.0625 26.273438 C 29.988281 26.265625 29.921875 26.269531 29.921875 26.28125 C 29.921875 26.289062 30.054688 26.394531 30.21875 26.511719 C 30.550781 26.75 30.851562 27.027344 30.902344 27.140625 C 30.929688 27.207031 30.929688 27.226562 30.902344 27.289062 C 30.839844 27.433594 30.691406 27.433594 30.203125 27.300781 C 29.488281 27.101562 28.730469 26.820312 27.4375 26.265625 C 27.21875 26.171875 27.230469 26.121094 27.246094 26.992188 C 27.257812 27.410156 27.273438 27.859375 27.28125 27.996094 C 27.304688 28.265625 27.289062 28.335938 27.195312 28.417969 C 27.15625 28.453125 27.113281 28.460938 26.929688 28.46875 C 26.742188 28.472656 26.703125 28.46875 26.644531 28.429688 Z M 26.644531 28.429688 " fill-opacity="1" fill-rule="nonzero"/></g><g clip-path="url(#1269a9dfb5)"><path fill="#008037" d="M 22.621094 31.371094 C 22.5 31.296875 22.5 31.300781 22.523438 30.589844 C 22.550781 29.886719 22.554688 29.167969 22.535156 29.148438 C 22.523438 29.136719 22.375 29.195312 22.011719 29.351562 C 20.953125 29.8125 19.628906 30.273438 19.171875 30.335938 C 19.054688 30.351562 18.929688 30.320312 18.898438 30.261719 C 18.804688 30.097656 18.992188 29.875 19.578125 29.445312 C 19.734375 29.332031 19.863281 29.230469 19.863281 29.21875 C 19.863281 29.210938 19.796875 29.207031 19.71875 29.210938 C 19.578125 29.222656 19.566406 29.21875 19.523438 29.164062 C 19.460938 29.085938 19.464844 29 19.53125 28.941406 C 19.5625 28.914062 19.730469 28.808594 19.902344 28.703125 C 20.074219 28.597656 20.238281 28.496094 20.265625 28.476562 L 20.3125 28.445312 L 20.265625 28.367188 C 20.199219 28.242188 20.222656 28.175781 20.445312 27.902344 C 20.636719 27.664062 20.671875 27.597656 20.597656 27.617188 C 20.578125 27.625 20.367188 27.679688 20.132812 27.746094 C 19.894531 27.808594 19.539062 27.910156 19.34375 27.96875 L 18.984375 28.074219 L 18.90625 28.035156 C 18.753906 27.960938 18.773438 27.847656 18.957031 27.746094 C 19.214844 27.601562 19.851562 27.199219 19.859375 27.175781 C 19.863281 27.15625 19.832031 27.148438 19.75 27.148438 C 19.644531 27.148438 19.625 27.144531 19.574219 27.085938 C 19.511719 27.011719 19.503906 26.960938 19.558594 26.902344 C 19.578125 26.878906 19.769531 26.769531 19.980469 26.660156 L 20.367188 26.464844 L 20.363281 26.386719 C 20.355469 26.296875 20.378906 26.253906 20.5625 26.054688 C 20.8125 25.777344 21.066406 25.46875 21.066406 25.445312 C 21.066406 25.40625 21.046875 25.414062 20.46875 25.695312 C 20.175781 25.835938 19.945312 25.9375 19.910156 25.9375 C 19.824219 25.9375 19.75 25.875 19.75 25.800781 C 19.75 25.742188 19.796875 25.691406 19.9375 25.589844 C 20.003906 25.542969 20.003906 25.542969 19.964844 25.480469 C 19.890625 25.359375 19.925781 25.304688 20.1875 25.132812 C 20.335938 25.03125 20.335938 25.03125 20.324219 24.953125 C 20.304688 24.851562 20.296875 24.859375 20.738281 24.492188 C 20.929688 24.332031 21.089844 24.191406 21.089844 24.183594 C 21.089844 24.171875 21.058594 24.148438 21.027344 24.132812 C 20.964844 24.101562 20.9375 24.050781 20.9375 23.960938 C 20.9375 23.910156 21.105469 23.574219 21.371094 23.09375 C 21.476562 22.898438 21.5625 22.730469 21.558594 22.710938 C 21.550781 22.6875 21.472656 22.714844 21.226562 22.824219 C 20.855469 22.988281 20.445312 23.136719 20.371094 23.136719 C 20.339844 23.136719 20.289062 23.113281 20.253906 23.085938 C 20.152344 23.003906 20.164062 22.945312 20.300781 22.816406 C 20.523438 22.605469 20.820312 22.351562 20.898438 22.304688 C 20.992188 22.25 20.992188 22.246094 20.949219 22.167969 C 20.898438 22.066406 20.925781 22.03125 21.238281 21.796875 L 21.460938 21.625 L 21.375 21.605469 C 21.285156 21.578125 21.203125 21.476562 21.226562 21.40625 C 21.238281 21.367188 21.460938 21.152344 21.613281 21.035156 L 21.695312 20.96875 L 21.636719 20.902344 C 21.546875 20.796875 21.550781 20.796875 22.007812 20.335938 C 22.183594 20.160156 22.1875 20.15625 22.152344 20.105469 C 22.097656 20.027344 22.113281 19.980469 22.269531 19.78125 C 22.453125 19.542969 22.582031 19.332031 22.671875 19.117188 C 22.730469 18.980469 22.738281 18.933594 22.726562 18.851562 C 22.710938 18.726562 22.765625 18.667969 22.890625 18.667969 C 23 18.667969 23.042969 18.726562 23.039062 18.859375 C 23.035156 18.972656 23.066406 19.066406 23.175781 19.285156 C 23.277344 19.476562 23.40625 19.675781 23.546875 19.835938 C 23.652344 19.960938 23.667969 20.03125 23.613281 20.117188 C 23.582031 20.160156 23.589844 20.171875 23.820312 20.390625 C 24.0625 20.625 24.179688 20.761719 24.179688 20.8125 C 24.179688 20.824219 24.15625 20.863281 24.128906 20.898438 L 24.074219 20.960938 L 24.25 21.113281 C 24.480469 21.308594 24.546875 21.382812 24.546875 21.4375 C 24.546875 21.503906 24.46875 21.585938 24.394531 21.601562 C 24.359375 21.609375 24.332031 21.625 24.335938 21.636719 C 24.339844 21.644531 24.4375 21.726562 24.554688 21.816406 C 24.671875 21.90625 24.789062 22.003906 24.8125 22.035156 C 24.855469 22.09375 24.855469 22.097656 24.816406 22.167969 C 24.769531 22.25 24.769531 22.25 24.878906 22.3125 C 24.957031 22.359375 25.1875 22.554688 25.441406 22.796875 C 25.542969 22.890625 25.578125 22.9375 25.578125 22.980469 C 25.578125 23.054688 25.484375 23.136719 25.402344 23.136719 C 25.320312 23.136719 25.011719 23.027344 24.585938 22.84375 C 24.269531 22.707031 24.203125 22.683594 24.203125 22.714844 C 24.203125 22.730469 24.382812 23.070312 24.507812 23.289062 C 24.679688 23.589844 24.824219 23.90625 24.824219 23.976562 C 24.824219 24.0625 24.792969 24.117188 24.726562 24.140625 C 24.699219 24.152344 24.675781 24.167969 24.675781 24.179688 C 24.675781 24.191406 24.824219 24.320312 25.003906 24.472656 C 25.453125 24.84375 25.480469 24.878906 25.445312 24.972656 C 25.425781 25.027344 25.425781 25.03125 25.65625 25.1875 C 25.835938 25.308594 25.863281 25.359375 25.800781 25.472656 C 25.761719 25.542969 25.761719 25.542969 25.816406 25.578125 C 25.910156 25.640625 26.003906 25.738281 26.015625 25.785156 C 26.035156 25.851562 25.945312 25.9375 25.859375 25.9375 C 25.820312 25.9375 25.578125 25.832031 25.253906 25.675781 C 24.945312 25.527344 24.703125 25.421875 24.699219 25.4375 C 24.691406 25.460938 24.8125 25.609375 25.160156 26.003906 C 25.386719 26.257812 25.410156 26.296875 25.398438 26.402344 C 25.394531 26.457031 25.410156 26.46875 25.757812 26.648438 C 25.960938 26.75 26.152344 26.855469 26.183594 26.882812 C 26.257812 26.949219 26.257812 27.023438 26.191406 27.09375 C 26.144531 27.140625 26.121094 27.148438 26.019531 27.148438 C 25.953125 27.148438 25.898438 27.160156 25.898438 27.171875 C 25.898438 27.195312 26.164062 27.363281 26.617188 27.628906 C 26.949219 27.828125 27.003906 27.882812 26.945312 27.972656 C 26.878906 28.070312 26.789062 28.078125 26.554688 28.003906 C 26.433594 27.96875 26.082031 27.871094 25.769531 27.78125 C 25.457031 27.695312 25.183594 27.621094 25.164062 27.613281 C 25.09375 27.59375 25.125 27.648438 25.328125 27.914062 C 25.441406 28.054688 25.535156 28.191406 25.535156 28.210938 C 25.542969 28.285156 25.53125 28.332031 25.492188 28.386719 C 25.441406 28.453125 25.425781 28.4375 25.738281 28.621094 C 26.269531 28.9375 26.328125 28.992188 26.289062 29.097656 C 26.25 29.199219 26.191406 29.222656 26.039062 29.210938 C 25.960938 29.207031 25.898438 29.210938 25.898438 29.21875 C 25.898438 29.230469 26.03125 29.332031 26.195312 29.449219 C 26.527344 29.6875 26.828125 29.96875 26.875 30.082031 C 26.90625 30.148438 26.90625 30.167969 26.878906 30.230469 C 26.816406 30.375 26.667969 30.375 26.179688 30.238281 C 25.464844 30.042969 24.707031 29.761719 23.414062 29.207031 C 23.191406 29.113281 23.207031 29.0625 23.222656 29.933594 C 23.230469 30.351562 23.246094 30.800781 23.257812 30.9375 C 23.28125 31.207031 23.265625 31.277344 23.171875 31.359375 C 23.132812 31.394531 23.089844 31.402344 22.90625 31.40625 C 22.71875 31.414062 22.679688 31.40625 22.621094 31.371094 Z M 22.621094 31.371094 " fill-opacity="1" fill-rule="nonzero"/></g><g clip-path="url(#b39a9e0ca4)"><path fill="#035024" d="M 10.546875 28.429688 C 10.425781 28.359375 10.425781 28.359375 10.453125 27.648438 C 10.476562 26.945312 10.484375 26.230469 10.464844 26.210938 C 10.449219 26.195312 10.300781 26.253906 9.9375 26.410156 C 8.878906 26.875 7.554688 27.332031 7.101562 27.394531 C 6.980469 27.414062 6.855469 27.378906 6.824219 27.320312 C 6.734375 27.15625 6.917969 26.933594 7.503906 26.503906 C 7.664062 26.390625 7.789062 26.289062 7.789062 26.28125 C 7.789062 26.269531 7.726562 26.265625 7.644531 26.273438 C 7.503906 26.28125 7.496094 26.28125 7.449219 26.226562 C 7.386719 26.148438 7.390625 26.058594 7.457031 26 C 7.488281 25.976562 7.65625 25.867188 7.828125 25.761719 C 8.003906 25.65625 8.167969 25.554688 8.191406 25.535156 L 8.238281 25.503906 L 8.195312 25.425781 C 8.125 25.300781 8.148438 25.234375 8.371094 24.960938 C 8.5625 24.722656 8.597656 24.65625 8.527344 24.675781 C 8.503906 24.683594 8.296875 24.742188 8.058594 24.804688 C 7.824219 24.867188 7.46875 24.96875 7.269531 25.027344 L 6.910156 25.132812 L 6.832031 25.09375 C 6.679688 25.019531 6.699219 24.90625 6.882812 24.804688 C 7.140625 24.660156 7.777344 24.257812 7.785156 24.234375 C 7.792969 24.214844 7.761719 24.210938 7.675781 24.210938 C 7.570312 24.210938 7.550781 24.203125 7.503906 24.144531 C 7.4375 24.070312 7.433594 24.023438 7.484375 23.960938 C 7.503906 23.9375 7.695312 23.828125 7.910156 23.722656 L 8.296875 23.523438 L 8.289062 23.445312 C 8.28125 23.355469 8.308594 23.3125 8.488281 23.113281 C 8.738281 22.835938 8.992188 22.53125 8.992188 22.503906 C 8.992188 22.464844 8.972656 22.476562 8.394531 22.753906 C 8.105469 22.898438 7.871094 22.996094 7.835938 22.996094 C 7.75 22.996094 7.679688 22.9375 7.679688 22.863281 C 7.679688 22.800781 7.722656 22.75 7.867188 22.648438 C 7.929688 22.605469 7.929688 22.605469 7.894531 22.542969 C 7.816406 22.417969 7.851562 22.367188 8.113281 22.191406 C 8.261719 22.09375 8.261719 22.09375 8.25 22.011719 C 8.234375 21.910156 8.226562 21.917969 8.664062 21.550781 C 8.859375 21.390625 9.015625 21.253906 9.015625 21.242188 C 9.015625 21.230469 8.988281 21.210938 8.953125 21.191406 C 8.894531 21.160156 8.867188 21.109375 8.863281 21.019531 C 8.863281 20.96875 9.03125 20.632812 9.296875 20.152344 C 9.402344 19.960938 9.488281 19.789062 9.484375 19.773438 C 9.476562 19.75 9.402344 19.773438 9.15625 19.882812 C 8.78125 20.046875 8.371094 20.199219 8.296875 20.199219 C 8.269531 20.199219 8.214844 20.175781 8.179688 20.144531 C 8.082031 20.0625 8.089844 20.003906 8.226562 19.875 C 8.449219 19.664062 8.75 19.410156 8.828125 19.363281 C 8.917969 19.3125 8.917969 19.304688 8.878906 19.226562 C 8.824219 19.125 8.851562 19.089844 9.164062 18.855469 L 9.386719 18.6875 L 9.304688 18.664062 C 9.210938 18.636719 9.132812 18.535156 9.152344 18.46875 C 9.167969 18.425781 9.386719 18.210938 9.539062 18.09375 L 9.621094 18.027344 L 9.566406 17.960938 C 9.476562 17.859375 9.476562 17.855469 9.9375 17.394531 C 10.113281 17.21875 10.117188 17.214844 10.082031 17.167969 C 10.023438 17.085938 10.039062 17.039062 10.195312 16.839844 C 10.378906 16.601562 10.507812 16.394531 10.597656 16.175781 C 10.65625 16.039062 10.664062 15.992188 10.65625 15.914062 C 10.640625 15.789062 10.691406 15.726562 10.820312 15.726562 C 10.925781 15.726562 10.972656 15.785156 10.964844 15.917969 C 10.960938 16.03125 10.992188 16.125 11.105469 16.34375 C 11.203125 16.535156 11.332031 16.734375 11.472656 16.898438 C 11.578125 17.019531 11.59375 17.09375 11.539062 17.175781 C 11.507812 17.222656 11.515625 17.230469 11.746094 17.453125 C 11.988281 17.6875 12.109375 17.824219 12.109375 17.871094 C 12.109375 17.886719 12.082031 17.925781 12.054688 17.957031 L 12 18.019531 L 12.179688 18.171875 C 12.40625 18.367188 12.472656 18.441406 12.472656 18.496094 C 12.472656 18.5625 12.394531 18.648438 12.320312 18.664062 C 12.285156 18.671875 12.257812 18.683594 12.261719 18.695312 C 12.265625 18.707031 12.363281 18.789062 12.480469 18.875 C 12.597656 18.964844 12.714844 19.066406 12.738281 19.097656 C 12.78125 19.152344 12.78125 19.15625 12.742188 19.226562 C 12.699219 19.308594 12.699219 19.308594 12.808594 19.371094 C 12.882812 19.417969 13.113281 19.617188 13.367188 19.855469 C 13.46875 19.949219 13.503906 19.996094 13.503906 20.039062 C 13.503906 20.113281 13.410156 20.199219 13.328125 20.199219 C 13.25 20.199219 12.9375 20.085938 12.515625 19.902344 C 12.195312 19.765625 12.128906 19.742188 12.128906 19.773438 C 12.128906 19.792969 12.308594 20.132812 12.433594 20.351562 C 12.605469 20.652344 12.753906 20.96875 12.753906 21.035156 C 12.753906 21.121094 12.71875 21.179688 12.65625 21.203125 C 12.625 21.210938 12.601562 21.230469 12.601562 21.238281 C 12.601562 21.25 12.75 21.382812 12.929688 21.53125 C 13.378906 21.902344 13.410156 21.9375 13.371094 22.03125 C 13.351562 22.085938 13.355469 22.089844 13.585938 22.246094 C 13.761719 22.367188 13.789062 22.421875 13.730469 22.53125 C 13.691406 22.601562 13.691406 22.601562 13.742188 22.636719 C 13.835938 22.699219 13.929688 22.796875 13.945312 22.847656 C 13.960938 22.910156 13.871094 22.996094 13.785156 22.996094 C 13.75 22.996094 13.503906 22.890625 13.179688 22.734375 C 12.875 22.585938 12.632812 22.484375 12.628906 22.496094 C 12.617188 22.519531 12.738281 22.667969 13.089844 23.0625 C 13.3125 23.316406 13.335938 23.359375 13.328125 23.464844 C 13.320312 23.519531 13.339844 23.53125 13.6875 23.707031 C 13.886719 23.808594 14.078125 23.914062 14.109375 23.945312 C 14.183594 24.007812 14.1875 24.082031 14.117188 24.152344 C 14.074219 24.199219 14.046875 24.210938 13.945312 24.210938 C 13.878906 24.210938 13.828125 24.21875 13.828125 24.230469 C 13.828125 24.253906 14.089844 24.421875 14.542969 24.691406 C 14.878906 24.886719 14.929688 24.945312 14.871094 25.035156 C 14.804688 25.128906 14.71875 25.136719 14.480469 25.066406 C 14.363281 25.03125 14.011719 24.929688 13.699219 24.84375 C 13.382812 24.757812 13.109375 24.679688 13.089844 24.675781 C 13.019531 24.65625 13.050781 24.710938 13.257812 24.972656 C 13.371094 25.117188 13.460938 25.25 13.464844 25.269531 C 13.46875 25.347656 13.457031 25.390625 13.417969 25.445312 C 13.367188 25.511719 13.351562 25.496094 13.664062 25.683594 C 14.195312 25.996094 14.257812 26.050781 14.214844 26.15625 C 14.175781 26.257812 14.117188 26.285156 13.964844 26.273438 C 13.890625 26.265625 13.828125 26.269531 13.828125 26.28125 C 13.828125 26.289062 13.960938 26.394531 14.121094 26.511719 C 14.453125 26.75 14.753906 27.027344 14.804688 27.140625 C 14.832031 27.207031 14.832031 27.226562 14.804688 27.289062 C 14.742188 27.433594 14.59375 27.433594 14.105469 27.300781 C 13.390625 27.101562 12.636719 26.820312 11.339844 26.265625 C 11.121094 26.171875 11.132812 26.121094 11.152344 26.992188 C 11.160156 27.410156 11.175781 27.859375 11.1875 27.996094 C 11.207031 28.265625 11.191406 28.335938 11.097656 28.417969 C 11.058594 28.453125 11.015625 28.460938 10.832031 28.46875 C 10.644531 28.472656 10.605469 28.46875 10.546875 28.429688 Z M 10.546875 28.429688 " fill-opacity="1" fill-rule="nonzero"/></g><g clip-path="url(#34fb2fef53)"><path fill="#008037" d="M 14.570312 31.371094 C 14.449219 31.296875 14.449219 31.300781 14.476562 30.589844 C 14.5 29.886719 14.507812 29.167969 14.488281 29.148438 C 14.472656 29.136719 14.324219 29.195312 13.964844 29.351562 C 12.902344 29.8125 11.582031 30.273438 11.125 30.335938 C 11.007812 30.351562 10.878906 30.320312 10.847656 30.261719 C 10.757812 30.097656 10.941406 29.875 11.53125 29.445312 C 11.6875 29.332031 11.816406 29.230469 11.816406 29.21875 C 11.816406 29.210938 11.75 29.207031 11.667969 29.210938 C 11.527344 29.222656 11.519531 29.21875 11.476562 29.164062 C 11.410156 29.085938 11.414062 29 11.484375 28.941406 C 11.511719 28.914062 11.679688 28.808594 11.855469 28.703125 C 12.027344 28.597656 12.191406 28.496094 12.214844 28.476562 L 12.261719 28.445312 L 12.21875 28.367188 C 12.148438 28.242188 12.175781 28.175781 12.394531 27.902344 C 12.585938 27.664062 12.625 27.597656 12.550781 27.617188 C 12.53125 27.625 12.320312 27.679688 12.082031 27.746094 C 11.847656 27.808594 11.492188 27.910156 11.292969 27.96875 L 10.933594 28.074219 L 10.855469 28.035156 C 10.703125 27.960938 10.722656 27.847656 10.910156 27.746094 C 11.164062 27.601562 11.800781 27.199219 11.808594 27.175781 C 11.816406 27.15625 11.785156 27.148438 11.699219 27.148438 C 11.59375 27.148438 11.578125 27.144531 11.527344 27.085938 C 11.460938 27.011719 11.457031 26.960938 11.507812 26.902344 C 11.53125 26.878906 11.71875 26.769531 11.933594 26.660156 L 12.320312 26.464844 L 12.3125 26.386719 C 12.304688 26.296875 12.332031 26.253906 12.511719 26.054688 C 12.761719 25.777344 13.019531 25.46875 13.019531 25.445312 C 13.019531 25.40625 12.996094 25.414062 12.421875 25.695312 C 12.128906 25.835938 11.898438 25.9375 11.859375 25.9375 C 11.773438 25.9375 11.703125 25.875 11.703125 25.800781 C 11.703125 25.742188 11.746094 25.691406 11.890625 25.589844 C 11.953125 25.542969 11.953125 25.542969 11.917969 25.480469 C 11.84375 25.359375 11.875 25.304688 12.140625 25.132812 C 12.285156 25.03125 12.285156 25.03125 12.273438 24.953125 C 12.257812 24.851562 12.25 24.859375 12.691406 24.492188 C 12.882812 24.332031 13.039062 24.191406 13.039062 24.183594 C 13.039062 24.171875 13.011719 24.148438 12.976562 24.132812 C 12.917969 24.101562 12.890625 24.050781 12.890625 23.960938 C 12.890625 23.910156 13.054688 23.574219 13.320312 23.09375 C 13.429688 22.898438 13.511719 22.730469 13.507812 22.710938 C 13.503906 22.6875 13.425781 22.714844 13.179688 22.824219 C 12.804688 22.988281 12.398438 23.136719 12.320312 23.136719 C 12.292969 23.136719 12.238281 23.113281 12.203125 23.085938 C 12.105469 23.003906 12.113281 22.945312 12.25 22.816406 C 12.472656 22.605469 12.773438 22.351562 12.851562 22.304688 C 12.941406 22.25 12.945312 22.246094 12.902344 22.167969 C 12.847656 22.066406 12.875 22.03125 13.1875 21.796875 L 13.410156 21.625 L 13.328125 21.605469 C 13.234375 21.578125 13.15625 21.476562 13.179688 21.40625 C 13.191406 21.367188 13.414062 21.152344 13.5625 21.035156 L 13.648438 20.96875 L 13.589844 20.902344 C 13.5 20.796875 13.5 20.796875 13.960938 20.335938 C 14.136719 20.160156 14.140625 20.15625 14.105469 20.105469 C 14.046875 20.027344 14.0625 19.980469 14.21875 19.78125 C 14.402344 19.542969 14.53125 19.332031 14.621094 19.117188 C 14.679688 18.980469 14.691406 18.933594 14.679688 18.851562 C 14.664062 18.726562 14.714844 18.667969 14.84375 18.667969 C 14.949219 18.667969 14.996094 18.726562 14.992188 18.859375 C 14.988281 18.972656 15.015625 19.066406 15.128906 19.285156 C 15.226562 19.476562 15.359375 19.675781 15.496094 19.835938 C 15.601562 19.960938 15.621094 20.03125 15.5625 20.117188 C 15.53125 20.160156 15.539062 20.171875 15.769531 20.390625 C 16.015625 20.625 16.132812 20.761719 16.132812 20.8125 C 16.132812 20.824219 16.109375 20.863281 16.078125 20.898438 L 16.027344 20.960938 L 16.203125 21.113281 C 16.429688 21.308594 16.496094 21.382812 16.496094 21.4375 C 16.496094 21.503906 16.421875 21.585938 16.34375 21.601562 C 16.308594 21.609375 16.285156 21.625 16.285156 21.636719 C 16.289062 21.644531 16.390625 21.726562 16.507812 21.816406 C 16.625 21.90625 16.738281 22.003906 16.761719 22.035156 C 16.808594 22.09375 16.808594 22.097656 16.765625 22.167969 C 16.722656 22.25 16.722656 22.25 16.832031 22.3125 C 16.910156 22.359375 17.140625 22.554688 17.394531 22.796875 C 17.492188 22.890625 17.527344 22.9375 17.527344 22.980469 C 17.527344 23.054688 17.433594 23.136719 17.351562 23.136719 C 17.273438 23.136719 16.964844 23.027344 16.539062 22.84375 C 16.21875 22.707031 16.152344 22.683594 16.152344 22.714844 C 16.152344 22.730469 16.332031 23.070312 16.457031 23.289062 C 16.628906 23.589844 16.777344 23.90625 16.777344 23.976562 C 16.777344 24.0625 16.742188 24.117188 16.679688 24.140625 C 16.648438 24.152344 16.625 24.167969 16.625 24.179688 C 16.625 24.191406 16.773438 24.320312 16.953125 24.472656 C 17.402344 24.84375 17.433594 24.878906 17.398438 24.972656 C 17.375 25.027344 17.378906 25.03125 17.609375 25.1875 C 17.789062 25.308594 17.816406 25.359375 17.753906 25.472656 C 17.714844 25.542969 17.714844 25.542969 17.765625 25.578125 C 17.859375 25.640625 17.953125 25.738281 17.96875 25.785156 C 17.988281 25.851562 17.894531 25.9375 17.8125 25.9375 C 17.773438 25.9375 17.527344 25.832031 17.203125 25.675781 C 16.898438 25.527344 16.65625 25.421875 16.652344 25.4375 C 16.644531 25.460938 16.761719 25.609375 17.113281 26.003906 C 17.335938 26.257812 17.363281 26.296875 17.351562 26.402344 C 17.347656 26.457031 17.363281 26.46875 17.710938 26.648438 C 17.910156 26.75 18.101562 26.855469 18.136719 26.882812 C 18.207031 26.949219 18.210938 27.023438 18.140625 27.09375 C 18.097656 27.140625 18.070312 27.148438 17.96875 27.148438 C 17.902344 27.148438 17.851562 27.160156 17.851562 27.171875 C 17.851562 27.195312 18.113281 27.363281 18.566406 27.628906 C 18.902344 27.828125 18.957031 27.882812 18.894531 27.972656 C 18.832031 28.070312 18.742188 28.078125 18.503906 28.003906 C 18.386719 27.96875 18.035156 27.871094 17.722656 27.78125 C 17.410156 27.695312 17.136719 27.621094 17.113281 27.613281 C 17.046875 27.59375 17.078125 27.648438 17.28125 27.914062 C 17.394531 28.054688 17.488281 28.191406 17.488281 28.210938 C 17.492188 28.285156 17.480469 28.332031 17.441406 28.386719 C 17.394531 28.453125 17.375 28.4375 17.691406 28.621094 C 18.21875 28.9375 18.28125 28.992188 18.238281 29.097656 C 18.199219 29.199219 18.140625 29.222656 17.992188 29.210938 C 17.914062 29.207031 17.851562 29.210938 17.851562 29.21875 C 17.851562 29.230469 17.984375 29.332031 18.144531 29.449219 C 18.476562 29.6875 18.777344 29.96875 18.828125 30.082031 C 18.855469 30.148438 18.855469 30.167969 18.832031 30.230469 C 18.769531 30.375 18.621094 30.375 18.128906 30.238281 C 17.417969 30.042969 16.660156 29.761719 15.363281 29.207031 C 15.144531 29.113281 15.15625 29.0625 15.175781 29.933594 C 15.183594 30.351562 15.199219 30.800781 15.210938 30.9375 C 15.230469 31.207031 15.21875 31.277344 15.125 31.359375 C 15.082031 31.394531 15.039062 31.402344 14.859375 31.40625 C 14.671875 31.414062 14.628906 31.40625 14.570312 31.371094 Z M 14.570312 31.371094 " fill-opacity="1" fill-rule="nonzero"/></g><g clip-path="url(#d01655a827)"><path fill="#035024" d="M 18.59375 33.671875 C 18.472656 33.597656 18.476562 33.601562 18.5 32.890625 C 18.527344 32.1875 18.53125 31.46875 18.511719 31.453125 C 18.5 31.4375 18.347656 31.496094 17.988281 31.652344 C 16.925781 32.113281 15.605469 32.574219 15.148438 32.636719 C 15.03125 32.652344 14.902344 32.621094 14.871094 32.5625 C 14.78125 32.398438 14.964844 32.175781 15.554688 31.746094 C 15.710938 31.632812 15.839844 31.53125 15.839844 31.519531 C 15.839844 31.511719 15.773438 31.507812 15.691406 31.515625 C 15.550781 31.523438 15.542969 31.523438 15.5 31.464844 C 15.4375 31.386719 15.4375 31.300781 15.507812 31.242188 C 15.539062 31.214844 15.703125 31.109375 15.878906 31.003906 C 16.050781 30.898438 16.214844 30.796875 16.242188 30.777344 L 16.289062 30.746094 L 16.242188 30.667969 C 16.171875 30.542969 16.199219 30.476562 16.417969 30.203125 C 16.609375 29.964844 16.648438 29.898438 16.574219 29.917969 C 16.554688 29.925781 16.34375 29.980469 16.109375 30.046875 C 15.871094 30.109375 15.515625 30.210938 15.320312 30.269531 L 14.960938 30.375 L 14.878906 30.335938 C 14.726562 30.261719 14.75 30.148438 14.933594 30.046875 C 15.191406 29.902344 15.828125 29.5 15.835938 29.476562 C 15.839844 29.457031 15.808594 29.449219 15.726562 29.449219 C 15.621094 29.449219 15.601562 29.445312 15.550781 29.386719 C 15.484375 29.3125 15.480469 29.261719 15.535156 29.203125 C 15.554688 29.179688 15.746094 29.070312 15.957031 28.960938 L 16.34375 28.765625 L 16.335938 28.6875 C 16.328125 28.597656 16.355469 28.554688 16.539062 28.355469 C 16.789062 28.078125 17.042969 27.773438 17.042969 27.746094 C 17.042969 27.707031 17.019531 27.714844 16.445312 27.996094 C 16.152344 28.140625 15.921875 28.238281 15.886719 28.238281 C 15.796875 28.238281 15.726562 28.175781 15.726562 28.101562 C 15.726562 28.042969 15.773438 27.992188 15.914062 27.890625 C 15.980469 27.84375 15.980469 27.84375 15.941406 27.78125 C 15.867188 27.660156 15.898438 27.605469 16.164062 27.433594 C 16.3125 27.335938 16.3125 27.332031 16.296875 27.253906 C 16.28125 27.152344 16.273438 27.160156 16.714844 26.792969 C 16.90625 26.632812 17.0625 26.492188 17.0625 26.484375 C 17.0625 26.472656 17.035156 26.449219 17.003906 26.433594 C 16.941406 26.402344 16.914062 26.351562 16.914062 26.261719 C 16.914062 26.210938 17.082031 25.875 17.347656 25.394531 C 17.453125 25.199219 17.535156 25.03125 17.53125 25.011719 C 17.527344 24.988281 17.449219 25.015625 17.203125 25.125 C 16.832031 25.289062 16.421875 25.441406 16.347656 25.441406 C 16.316406 25.441406 16.265625 25.414062 16.226562 25.386719 C 16.128906 25.304688 16.140625 25.246094 16.273438 25.117188 C 16.5 24.90625 16.796875 24.652344 16.875 24.605469 C 16.964844 24.554688 16.96875 24.546875 16.925781 24.46875 C 16.871094 24.367188 16.902344 24.332031 17.210938 24.097656 L 17.433594 23.929688 L 17.351562 23.90625 C 17.257812 23.878906 17.179688 23.777344 17.203125 23.710938 C 17.214844 23.667969 17.4375 23.453125 17.585938 23.335938 L 17.671875 23.269531 L 17.613281 23.203125 C 17.523438 23.101562 17.527344 23.097656 17.984375 22.636719 C 18.160156 22.460938 18.164062 22.457031 18.128906 22.40625 C 18.070312 22.328125 18.089844 22.28125 18.242188 22.082031 C 18.429688 21.84375 18.554688 21.632812 18.648438 21.417969 C 18.703125 21.28125 18.714844 21.234375 18.703125 21.152344 C 18.6875 21.027344 18.738281 20.96875 18.867188 20.96875 C 18.976562 20.96875 19.019531 21.027344 19.015625 21.160156 C 19.011719 21.273438 19.042969 21.367188 19.152344 21.585938 C 19.25 21.777344 19.382812 21.976562 19.523438 22.140625 C 19.625 22.261719 19.644531 22.335938 19.589844 22.417969 C 19.558594 22.460938 19.566406 22.472656 19.792969 22.695312 C 20.039062 22.929688 20.15625 23.066406 20.15625 23.113281 C 20.15625 23.125 20.132812 23.167969 20.101562 23.199219 L 20.050781 23.261719 L 20.226562 23.414062 C 20.453125 23.609375 20.523438 23.683594 20.523438 23.738281 C 20.523438 23.804688 20.445312 23.886719 20.371094 23.90625 C 20.335938 23.914062 20.308594 23.925781 20.3125 23.9375 C 20.316406 23.949219 20.414062 24.027344 20.53125 24.117188 C 20.648438 24.207031 20.761719 24.304688 20.789062 24.339844 C 20.832031 24.394531 20.832031 24.398438 20.792969 24.46875 C 20.746094 24.550781 20.746094 24.550781 20.855469 24.613281 C 20.933594 24.660156 21.164062 24.855469 21.417969 25.097656 C 21.519531 25.191406 21.550781 25.238281 21.550781 25.28125 C 21.550781 25.355469 21.457031 25.441406 21.375 25.441406 C 21.296875 25.441406 20.988281 25.328125 20.5625 25.144531 C 20.242188 25.007812 20.179688 24.984375 20.179688 25.015625 C 20.179688 25.03125 20.355469 25.371094 20.480469 25.589844 C 20.652344 25.894531 20.800781 26.207031 20.800781 26.277344 C 20.800781 26.363281 20.765625 26.417969 20.703125 26.441406 C 20.675781 26.453125 20.652344 26.472656 20.652344 26.480469 C 20.652344 26.492188 20.796875 26.621094 20.976562 26.773438 C 21.425781 27.144531 21.457031 27.179688 21.421875 27.273438 C 21.398438 27.328125 21.402344 27.332031 21.632812 27.488281 C 21.8125 27.609375 21.839844 27.664062 21.777344 27.773438 C 21.738281 27.84375 21.738281 27.84375 21.789062 27.878906 C 21.882812 27.941406 21.980469 28.039062 21.992188 28.085938 C 22.011719 28.152344 21.921875 28.238281 21.835938 28.238281 C 21.796875 28.238281 21.550781 28.132812 21.226562 27.976562 C 20.921875 27.828125 20.679688 27.722656 20.675781 27.738281 C 20.667969 27.761719 20.789062 27.910156 21.136719 28.304688 C 21.363281 28.558594 21.386719 28.597656 21.375 28.703125 C 21.371094 28.761719 21.386719 28.773438 21.734375 28.949219 C 21.9375 29.050781 22.128906 29.15625 22.160156 29.183594 C 22.234375 29.25 22.234375 29.324219 22.164062 29.394531 C 22.121094 29.441406 22.09375 29.449219 21.992188 29.449219 C 21.929688 29.449219 21.875 29.460938 21.875 29.472656 C 21.875 29.496094 22.140625 29.664062 22.59375 29.933594 C 22.925781 30.128906 22.980469 30.183594 22.917969 30.273438 C 22.855469 30.371094 22.765625 30.378906 22.527344 30.304688 C 22.410156 30.269531 22.058594 30.171875 21.746094 30.085938 C 21.433594 29.996094 21.160156 29.921875 21.140625 29.914062 C 21.070312 29.898438 21.101562 29.953125 21.304688 30.214844 C 21.417969 30.355469 21.511719 30.492188 21.511719 30.511719 C 21.515625 30.589844 21.503906 30.632812 21.464844 30.6875 C 21.417969 30.753906 21.402344 30.738281 21.714844 30.921875 C 22.242188 31.238281 22.304688 31.292969 22.261719 31.398438 C 22.222656 31.5 22.167969 31.527344 22.015625 31.515625 C 21.9375 31.507812 21.875 31.511719 21.875 31.519531 C 21.875 31.53125 22.007812 31.632812 22.171875 31.75 C 22.503906 31.992188 22.804688 32.269531 22.851562 32.382812 C 22.878906 32.449219 22.882812 32.46875 22.855469 32.53125 C 22.792969 32.675781 22.644531 32.675781 22.152344 32.542969 C 21.441406 32.34375 20.683594 32.0625 19.390625 31.507812 C 19.167969 31.414062 19.183594 31.363281 19.199219 32.234375 C 19.207031 32.652344 19.222656 33.101562 19.234375 33.238281 C 19.257812 33.507812 19.242188 33.578125 19.148438 33.660156 C 19.109375 33.695312 19.0625 33.703125 18.882812 33.707031 C 18.695312 33.714844 18.652344 33.707031 18.59375 33.671875 Z M 18.59375 33.671875 " fill-opacity="1" fill-rule="nonzero"/></g><g fill="#035024" fill-opacity="1"><g transform="translate(10.588167, 9.149997)"><g><path d="M -0.0585938 -3.246094 L -0.0585938 -3.101562 L 0.972656 0 L 1.878906 0 L 2.015625 -0.371094 L 2.296875 -1.285156 L 2.566406 -0.382812 L 2.710938 0 L 3.617188 0 L 4.648438 -3.101562 L 4.648438 -3.246094 L 3.683594 -3.246094 L 3.359375 -2.269531 L 3.144531 -1.378906 L 2.632812 -3.058594 L 1.957031 -3.058594 L 1.445312 -1.378906 L 1.230469 -2.269531 L 0.90625 -3.246094 Z M -0.0585938 -3.246094 "/></g></g></g><g fill="#035024" fill-opacity="1"><g transform="translate(15.460199, 9.149997)"><g><path d="M 3.484375 -1.621094 C 3.484375 -2.777344 2.621094 -3.355469 1.757812 -3.355469 C 0.886719 -3.355469 0.0234375 -2.777344 0.0234375 -1.621094 C 0.0234375 -0.46875 0.894531 0.109375 1.757812 0.109375 C 2.621094 0.109375 3.484375 -0.46875 3.484375 -1.621094 Z M 0.972656 -1.621094 C 0.972656 -2.171875 1.363281 -2.449219 1.757812 -2.449219 C 2.191406 -2.449219 2.539062 -2.171875 2.539062 -1.621094 C 2.539062 -1.074219 2.148438 -0.804688 1.757812 -0.804688 C 1.363281 -0.804688 0.972656 -1.074219 0.972656 -1.621094 Z M 0.972656 -1.621094 "/></g></g></g><g fill="#035024" fill-opacity="1"><g transform="translate(19.258226, 9.149997)"><g><path d="M 3.484375 -1.621094 C 3.484375 -2.777344 2.621094 -3.355469 1.757812 -3.355469 C 0.886719 -3.355469 0.0234375 -2.777344 0.0234375 -1.621094 C 0.0234375 -0.46875 0.894531 0.109375 1.757812 0.109375 C 2.621094 0.109375 3.484375 -0.46875 3.484375 -1.621094 Z M 0.972656 -1.621094 C 0.972656 -2.171875 1.363281 -2.449219 1.757812 -2.449219 C 2.191406 -2.449219 2.539062 -2.171875 2.539062 -1.621094 C 2.539062 -1.074219 2.148438 -0.804688 1.757812 -0.804688 C 1.363281 -0.804688 0.972656 -1.074219 0.972656 -1.621094 Z M 0.972656 -1.621094 "/></g></g></g><g fill="#035024" fill-opacity="1"><g transform="translate(23.056253, 9.149997)"><g><path d="M 1.65625 -3.300781 C 0.601562 -3.300781 0.0859375 -2.554688 0.0859375 -1.667969 C 0.0859375 -0.773438 0.617188 0.0429688 1.644531 0.0429688 C 1.957031 0.0429688 2.273438 -0.046875 2.496094 -0.324219 L 2.496094 0 L 3.4375 0 L 3.4375 -4.230469 L 2.496094 -4.230469 L 2.496094 -2.953125 C 2.28125 -3.199219 1.972656 -3.300781 1.65625 -3.300781 Z M 1.757812 -0.863281 C 1.277344 -0.863281 1.03125 -1.253906 1.03125 -1.644531 C 1.03125 -2.039062 1.273438 -2.429688 1.757812 -2.429688 C 2.164062 -2.429688 2.496094 -2.074219 2.496094 -1.644531 C 2.496094 -1.210938 2.164062 -0.863281 1.757812 -0.863281 Z M 1.757812 -0.863281 "/></g></g></g></svg>